NotoSansArabic-ExtraCondensedBlack.ufo
<glyph name="exclam" format="2">
  <advance width="234"/>
  <unicode hex="0021"/>
  <outline>
    <contour>
      <point x="52" y="252" type="line"/>
      <point x="181" y="252" type="line"/>
      <point x="201" y="714" type="line"/>
      <point x="32" y="714" type="line"/>
    </contour>
    <contour>
      <point x="116" y="-12" type="curve" smooth="yes"/>
      <point x="160" y="-12"/>
      <point x="197" y="15"/>
      <point x="197" y="81" type="curve" smooth="yes"/>
      <point x="197" y="150"/>
      <point x="160" y="175"/>
      <point x="116" y="175" type="curve" smooth="yes"/>
      <point x="71" y="175"/>
      <point x="34" y="150"/>
      <point x="34" y="81" type="curve" smooth="yes"/>
      <point x="34" y="15"/>
      <point x="71" y="-12"/>
    </contour>
  </outline>
</glyph>
<glyph name="parenleft" format="2">
  <advance width="354"/>
  <unicode hex="0028"/>
  <outline>
    <contour>
      <point x="171" y="-172" type="curve"/>
      <point x="298" y="-172" type="line"/>
      <point x="231" y="-28"/>
      <point x="191" y="141"/>
      <point x="191" y="309" type="curve" smooth="yes"/>
      <point x="191" y="472"/>
      <point x="223" y="641"/>
      <point x="298" y="785" type="curve"/>
      <point x="171" y="785" type="line"/>
      <point x="100" y="648"/>
      <point x="64" y="490"/>
      <point x="64" y="317" type="curve" smooth="yes"/>
      <point x="64" y="128"/>
      <point x="97" y="-29"/>
    </contour>
  </outline>
</glyph>
<glyph name="comma" format="2">
  <advance width="231"/>
  <unicode hex="002C"/>
  <outline>
    <contour>
      <point x="22" y="-139" type="curve"/>
      <point x="131" y="-139" type="line"/>
      <point x="158" y="-65"/>
      <point x="186" y="63"/>
      <point x="200" y="135" type="curve"/>
      <point x="194" y="146" type="line"/>
      <point x="61" y="146" type="line"/>
      <point x="54" y="66"/>
      <point x="38" y="-48"/>
    </contour>
  </outline>
</glyph>
<glyph name="period" format="2">
  <advance width="230"/>
  <unicode hex="002E"/>
  <outline>
    <contour>
      <point x="117" y="-12" type="curve" smooth="yes"/>
      <point x="160" y="-12"/>
      <point x="197" y="15"/>
      <point x="197" y="81" type="curve" smooth="yes"/>
      <point x="197" y="150"/>
      <point x="160" y="175"/>
      <point x="117" y="175" type="curve" smooth="yes"/>
      <point x="71" y="175"/>
      <point x="34" y="150"/>
      <point x="34" y="81" type="curve" smooth="yes"/>
      <point x="34" y="15"/>
      <point x="71" y="-12"/>
    </contour>
  </outline>
</glyph>
<glyph name="zero" format="2">
  <advance width="469"/>
  <unicode hex="0030"/>
  <outline>
    <contour>
      <point x="234" y="-10" type="curve" smooth="yes"/>
      <point x="387" y="-10"/>
      <point x="441" y="127"/>
      <point x="441" y="356" type="curve" smooth="yes"/>
      <point x="441" y="588"/>
      <point x="377" y="724"/>
      <point x="234" y="724" type="curve" smooth="yes"/>
      <point x="82" y="724"/>
      <point x="28" y="587"/>
      <point x="28" y="356" type="curve" smooth="yes"/>
      <point x="28" y="127"/>
      <point x="91" y="-10"/>
    </contour>
    <contour>
      <point x="234" y="144" type="curve" smooth="yes"/>
      <point x="191" y="144"/>
      <point x="182" y="216"/>
      <point x="182" y="356" type="curve" smooth="yes"/>
      <point x="182" y="497"/>
      <point x="191" y="570"/>
      <point x="234" y="570" type="curve" smooth="yes"/>
      <point x="277" y="570"/>
      <point x="287" y="497"/>
      <point x="287" y="356" type="curve" smooth="yes"/>
      <point x="287" y="215"/>
      <point x="277" y="144"/>
    </contour>
  </outline>
</glyph>
<glyph name="one" format="2">
  <advance width="469"/>
  <unicode hex="0031"/>
  <outline>
    <contour>
      <point x="211" y="0" type="line"/>
      <point x="368" y="0" type="line"/>
      <point x="368" y="714" type="line"/>
      <point x="229" y="714" type="line"/>
      <point x="33" y="514" type="line"/>
      <point x="113" y="391" type="line"/>
      <point x="178" y="458" type="line" smooth="yes"/>
      <point x="189" y="470"/>
      <point x="200" y="484"/>
      <point x="214" y="504" type="curve"/>
      <point x="211" y="453"/>
      <point x="211" y="372"/>
      <point x="211" y="353" type="curve" smooth="yes"/>
    </contour>
  </outline>
</glyph>
<glyph name="two" format="2">
  <advance width="469"/>
  <unicode hex="0032"/>
  <outline>
    <contour>
      <point x="24" y="0" type="line"/>
      <point x="438" y="0" type="line"/>
      <point x="438" y="159" type="line"/>
      <point x="222" y="159" type="line"/>
      <point x="222" y="164" type="line"/>
      <point x="264" y="211" type="line" smooth="yes"/>
      <point x="373" y="334"/>
      <point x="427" y="405"/>
      <point x="427" y="529" type="curve" smooth="yes"/>
      <point x="427" y="641"/>
      <point x="353" y="724"/>
      <point x="237" y="724" type="curve" smooth="yes"/>
      <point x="123" y="724"/>
      <point x="69" y="667"/>
      <point x="18" y="610" type="curve"/>
      <point x="102" y="486" type="line"/>
      <point x="149" y="536"/>
      <point x="183" y="562"/>
      <point x="219" y="562" type="curve" smooth="yes"/>
      <point x="249" y="562"/>
      <point x="274" y="544"/>
      <point x="274" y="502" type="curve" smooth="yes"/>
      <point x="274" y="450"/>
      <point x="250" y="416"/>
      <point x="163" y="303" type="curve" smooth="yes"/>
      <point x="24" y="127" type="line"/>
    </contour>
  </outline>
</glyph>
<glyph name="three" format="2">
  <advance width="469"/>
  <unicode hex="0033"/>
  <outline>
    <contour>
      <point x="198" y="-10" type="curve" smooth="yes"/>
      <point x="363" y="-10"/>
      <point x="436" y="87"/>
      <point x="436" y="204" type="curve" smooth="yes"/>
      <point x="436" y="305"/>
      <point x="384" y="359"/>
      <point x="293" y="373" type="curve"/>
      <point x="293" y="376" type="line"/>
      <point x="361" y="399"/>
      <point x="419" y="457"/>
      <point x="419" y="559" type="curve" smooth="yes"/>
      <point x="419" y="662"/>
      <point x="347" y="724"/>
      <point x="230" y="724" type="curve" smooth="yes"/>
      <point x="130" y="724"/>
      <point x="75" y="692"/>
      <point x="28" y="652" type="curve"/>
      <point x="92" y="523" type="line"/>
      <point x="109" y="536"/>
      <point x="154" y="569"/>
      <point x="206" y="569" type="curve" smooth="yes"/>
      <point x="244" y="569"/>
      <point x="270" y="551"/>
      <point x="270" y="513" type="curve" smooth="yes"/>
      <point x="270" y="469"/>
      <point x="239" y="438"/>
      <point x="152" y="438" type="curve" smooth="yes"/>
      <point x="116" y="438" type="line"/>
      <point x="116" y="293" type="line"/>
      <point x="151" y="293" type="line" smooth="yes"/>
      <point x="250" y="293"/>
      <point x="273" y="264"/>
      <point x="273" y="216" type="curve" smooth="yes"/>
      <point x="273" y="171"/>
      <point x="250" y="142"/>
      <point x="175" y="142" type="curve" smooth="yes"/>
      <point x="132" y="142"/>
      <point x="77" y="157"/>
      <point x="27" y="189" type="curve"/>
      <point x="27" y="29" type="line"/>
      <point x="76" y="5"/>
      <point x="124" y="-10"/>
    </contour>
  </outline>
</glyph>
<glyph name="four" format="2">
  <advance width="469"/>
  <unicode hex="0034"/>
  <outline>
    <contour>
      <point x="242" y="0" type="line"/>
      <point x="394" y="0" type="line"/>
      <point x="394" y="138" type="line"/>
      <point x="457" y="138" type="line"/>
      <point x="457" y="282" type="line"/>
      <point x="394" y="282" type="line"/>
      <point x="394" y="714" type="line"/>
      <point x="251" y="714" type="line"/>
      <point x="14" y="280" type="line"/>
      <point x="14" y="138" type="line"/>
      <point x="242" y="138" type="line"/>
    </contour>
    <contour>
      <point x="147" y="282" type="line"/>
      <point x="210" y="400" type="line" smooth="yes"/>
      <point x="224" y="426"/>
      <point x="230" y="441"/>
      <point x="241" y="470" type="curve"/>
      <point x="245" y="470" type="line"/>
      <point x="244" y="468"/>
      <point x="242" y="395"/>
      <point x="242" y="365" type="curve" smooth="yes"/>
      <point x="242" y="282" type="line"/>
    </contour>
  </outline>
</glyph>
<glyph name="five" format="2">
  <advance width="469"/>
  <unicode hex="0035"/>
  <outline>
    <contour>
      <point x="200" y="-10" type="curve" smooth="yes"/>
      <point x="356" y="-10"/>
      <point x="432" y="78"/>
      <point x="432" y="238" type="curve" smooth="yes"/>
      <point x="432" y="385"/>
      <point x="354" y="468"/>
      <point x="259" y="468" type="curve" smooth="yes"/>
      <point x="222" y="468"/>
      <point x="209" y="463"/>
      <point x="192" y="459" type="curve"/>
      <point x="199" y="553" type="line"/>
      <point x="394" y="553" type="line"/>
      <point x="394" y="714" type="line"/>
      <point x="68" y="714" type="line"/>
      <point x="46" y="337" type="line"/>
      <point x="103" y="302" type="line"/>
      <point x="124" y="310"/>
      <point x="153" y="319"/>
      <point x="182" y="319" type="curve" smooth="yes"/>
      <point x="245" y="319"/>
      <point x="276" y="286"/>
      <point x="276" y="232" type="curve" smooth="yes"/>
      <point x="276" y="173"/>
      <point x="244" y="142"/>
      <point x="187" y="142" type="curve" smooth="yes"/>
      <point x="140" y="142"/>
      <point x="77" y="164"/>
      <point x="37" y="187" type="curve"/>
      <point x="37" y="29" type="line"/>
      <point x="79" y="3"/>
      <point x="134" y="-10"/>
    </contour>
  </outline>
</glyph>
<glyph name="six" format="2">
  <advance width="469"/>
  <unicode hex="0036"/>
  <outline>
    <contour>
      <point x="242" y="-10" type="curve" smooth="yes"/>
      <point x="367" y="-10"/>
      <point x="444" y="84"/>
      <point x="444" y="244" type="curve" smooth="yes"/>
      <point x="444" y="392"/>
      <point x="384" y="476"/>
      <point x="284" y="476" type="curve" smooth="yes"/>
      <point x="223" y="476"/>
      <point x="191" y="440"/>
      <point x="171" y="393" type="curve"/>
      <point x="166" y="393" type="line"/>
      <point x="171" y="506"/>
      <point x="207" y="574"/>
      <point x="323" y="574" type="curve" smooth="yes"/>
      <point x="362" y="574"/>
      <point x="386" y="570"/>
      <point x="408" y="565" type="curve"/>
      <point x="408" y="716" type="line"/>
      <point x="386" y="720"/>
      <point x="349" y="724"/>
      <point x="326" y="724" type="curve" smooth="yes"/>
      <point x="74" y="724"/>
      <point x="27" y="507"/>
      <point x="27" y="302" type="curve" smooth="yes"/>
      <point x="27" y="88"/>
      <point x="120" y="-10"/>
    </contour>
    <contour>
      <point x="239" y="143" type="curve" smooth="yes"/>
      <point x="198" y="143"/>
      <point x="181" y="199"/>
      <point x="181" y="250" type="curve" smooth="yes"/>
      <point x="181" y="288"/>
      <point x="202" y="327"/>
      <point x="241" y="327" type="curve" smooth="yes"/>
      <point x="278" y="327"/>
      <point x="294" y="294"/>
      <point x="294" y="240" type="curve" smooth="yes"/>
      <point x="294" y="173"/>
      <point x="272" y="143"/>
    </contour>
  </outline>
</glyph>
<glyph name="seven" format="2">
  <advance width="469"/>
  <unicode hex="0037"/>
  <outline>
    <contour>
      <point x="82" y="0" type="line"/>
      <point x="242" y="0" type="line"/>
      <point x="442" y="600" type="line"/>
      <point x="442" y="714" type="line"/>
      <point x="30" y="714" type="line"/>
      <point x="30" y="554" type="line"/>
      <point x="278" y="554" type="line"/>
    </contour>
  </outline>
</glyph>
<glyph name="eight" format="2">
  <advance width="469"/>
  <unicode hex="0038"/>
  <outline>
    <contour>
      <point x="234" y="-10" type="curve" smooth="yes"/>
      <point x="378" y="-10"/>
      <point x="443" y="75"/>
      <point x="443" y="190" type="curve" smooth="yes"/>
      <point x="443" y="284"/>
      <point x="382" y="338"/>
      <point x="328" y="376" type="curve"/>
      <point x="386" y="411"/>
      <point x="426" y="464"/>
      <point x="426" y="550" type="curve" smooth="yes"/>
      <point x="426" y="667"/>
      <point x="349" y="724"/>
      <point x="236" y="724" type="curve" smooth="yes"/>
      <point x="123" y="724"/>
      <point x="43" y="666"/>
      <point x="43" y="551" type="curve" smooth="yes"/>
      <point x="43" y="468"/>
      <point x="82" y="413"/>
      <point x="130" y="373" type="curve"/>
      <point x="70" y="335"/>
      <point x="26" y="287"/>
      <point x="26" y="188" type="curve" smooth="yes"/>
      <point x="26" y="71"/>
      <point x="90" y="-10"/>
    </contour>
    <contour>
      <point x="233" y="129" type="curve" smooth="yes"/>
      <point x="192" y="129"/>
      <point x="168" y="156"/>
      <point x="168" y="196" type="curve" smooth="yes"/>
      <point x="168" y="239"/>
      <point x="198" y="268"/>
      <point x="233" y="291" type="curve"/>
      <point x="243" y="283" type="line" smooth="yes"/>
      <point x="263" y="268"/>
      <point x="302" y="236"/>
      <point x="302" y="192" type="curve" smooth="yes"/>
      <point x="302" y="153"/>
      <point x="280" y="129"/>
    </contour>
    <contour>
      <point x="234" y="459" type="curve"/>
      <point x="208" y="477"/>
      <point x="188" y="502"/>
      <point x="188" y="533" type="curve" smooth="yes"/>
      <point x="188" y="565"/>
      <point x="210" y="585"/>
      <point x="235" y="585" type="curve" smooth="yes"/>
      <point x="260" y="585"/>
      <point x="282" y="565"/>
      <point x="282" y="533" type="curve" smooth="yes"/>
      <point x="282" y="495"/>
      <point x="256" y="475"/>
    </contour>
  </outline>
</glyph>
<glyph name="nine" format="2">
  <advance width="469"/>
  <unicode hex="0039"/>
  <outline>
    <contour>
      <point x="139" y="-10" type="curve" smooth="yes"/>
      <point x="362" y="-10"/>
      <point x="442" y="122"/>
      <point x="442" y="387" type="curve" smooth="yes"/>
      <point x="442" y="624"/>
      <point x="346" y="721"/>
      <point x="223" y="721" type="curve" smooth="yes"/>
      <point x="98" y="721"/>
      <point x="21" y="627"/>
      <point x="21" y="468" type="curve" smooth="yes"/>
      <point x="21" y="319"/>
      <point x="82" y="235"/>
      <point x="178" y="235" type="curve" smooth="yes"/>
      <point x="254" y="235"/>
      <point x="278" y="270"/>
      <point x="298" y="318" type="curve"/>
      <point x="303" y="318" type="line"/>
      <point x="299" y="226"/>
      <point x="265" y="140"/>
      <point x="126" y="140" type="curve" smooth="yes"/>
      <point x="102" y="140"/>
      <point x="82" y="143"/>
      <point x="59" y="148" type="curve"/>
      <point x="59" y="-5" type="line"/>
      <point x="81" y="-9"/>
      <point x="116" y="-10"/>
    </contour>
    <contour>
      <point x="226" y="383" type="curve" smooth="yes"/>
      <point x="189" y="383"/>
      <point x="170" y="417"/>
      <point x="170" y="470" type="curve" smooth="yes"/>
      <point x="170" y="538"/>
      <point x="194" y="567"/>
      <point x="227" y="567" type="curve" smooth="yes"/>
      <point x="266" y="567"/>
      <point x="289" y="512"/>
      <point x="289" y="461" type="curve" smooth="yes"/>
      <point x="289" y="423"/>
      <point x="263" y="383"/>
    </contour>
  </outline>
</glyph>
<glyph name="colon" format="2">
  <advance width="230"/>
  <unicode hex="003A"/>
  <outline>
    <contour>
      <point x="117" y="373" type="curve" smooth="yes"/>
      <point x="160" y="373"/>
      <point x="197" y="400"/>
      <point x="197" y="467" type="curve" smooth="yes"/>
      <point x="197" y="535"/>
      <point x="160" y="560"/>
      <point x="117" y="560" type="curve" smooth="yes"/>
      <point x="71" y="560"/>
      <point x="34" y="535"/>
      <point x="34" y="467" type="curve"/>
      <point x="34" y="400"/>
      <point x="71" y="373"/>
    </contour>
    <contour>
      <point x="117" y="-12" type="curve" smooth="yes"/>
      <point x="160" y="-12"/>
      <point x="197" y="15"/>
      <point x="197" y="81" type="curve" smooth="yes"/>
      <point x="197" y="150"/>
      <point x="160" y="175"/>
      <point x="117" y="175" type="curve" smooth="yes"/>
      <point x="71" y="175"/>
      <point x="34" y="150"/>
      <point x="34" y="81" type="curve"/>
      <point x="34" y="15"/>
      <point x="71" y="-12"/>
    </contour>
  </outline>
</glyph>
<glyph name="guillemotleft" format="2">
  <advance width="513"/>
  <unicode hex="00AB"/>
  <outline>
    <contour>
      <point x="389" y="39" type="line"/>
      <point x="499" y="111" type="line"/>
      <point x="392" y="281" type="line"/>
      <point x="499" y="450" type="line"/>
      <point x="389" y="523" type="line"/>
      <point x="238" y="287" type="line"/>
      <point x="238" y="274" type="line"/>
    </contour>
    <contour>
      <point x="165" y="39" type="line"/>
      <point x="274" y="111" type="line"/>
      <point x="168" y="281" type="line"/>
      <point x="274" y="450" type="line"/>
      <point x="165" y="523" type="line"/>
      <point x="13" y="287" type="line"/>
      <point x="13" y="274" type="line"/>
    </contour>
  </outline>
</glyph>
<glyph name="guillemotright" format="2">
  <advance width="513"/>
  <unicode hex="00BB"/>
  <outline>
    <contour>
      <point x="349" y="39" type="line"/>
      <point x="500" y="274" type="line"/>
      <point x="500" y="287" type="line"/>
      <point x="349" y="523" type="line"/>
      <point x="238" y="450" type="line"/>
      <point x="345" y="281" type="line"/>
      <point x="238" y="111" type="line"/>
    </contour>
    <contour>
      <point x="124" y="39" type="line"/>
      <point x="275" y="274" type="line"/>
      <point x="275" y="287" type="line"/>
      <point x="124" y="523" type="line"/>
      <point x="14" y="450" type="line"/>
      <point x="120" y="281" type="line"/>
      <point x="14" y="111" type="line"/>
    </contour>
  </outline>
</glyph>
<glyph name="ray-ar" format="2">
  <advance width="826"/>
  <unicode hex="0608"/>
  <outline>
    <contour>
      <point x="452" y="-264" type="curve" smooth="yes"/>
      <point x="664" y="-264"/>
      <point x="780" y="-179"/>
      <point x="780" y="71" type="curve" smooth="yes"/>
      <point x="780" y="328"/>
      <point x="704" y="442"/>
      <point x="598" y="442" type="curve" smooth="yes"/>
      <point x="496" y="442"/>
      <point x="428" y="330"/>
      <point x="428" y="179" type="curve" smooth="yes"/>
      <point x="428" y="47"/>
      <point x="499" y="-10"/>
      <point x="630" y="-10" type="curve" smooth="yes"/>
      <point x="826" y="-10" type="line" smooth="yes"/>
      <point x="879" y="-10"/>
      <point x="906" y="30"/>
      <point x="906" y="81" type="curve" smooth="yes"/>
      <point x="906" y="126"/>
      <point x="885" y="170"/>
      <point x="834" y="170" type="curve" smooth="yes"/>
      <point x="721" y="170" type="line"/>
      <point x="682" y="165"/>
      <point x="648" y="152"/>
      <point x="607" y="152" type="curve" smooth="yes"/>
      <point x="560" y="152"/>
      <point x="540" y="163"/>
      <point x="540" y="203" type="curve" smooth="yes"/>
      <point x="540" y="244"/>
      <point x="559" y="281"/>
      <point x="594" y="281" type="curve" smooth="yes"/>
      <point x="632" y="281"/>
      <point x="666" y="243"/>
      <point x="666" y="82" type="curve" smooth="yes"/>
      <point x="666" y="-58"/>
      <point x="636" y="-86"/>
      <point x="473" y="-86" type="curve" smooth="yes"/>
      <point x="344" y="-86"/>
      <point x="295" y="-49"/>
      <point x="295" y="59" type="curve" smooth="yes"/>
      <point x="295" y="111"/>
      <point x="302" y="155"/>
      <point x="314" y="224" type="curve"/>
      <point x="234" y="273" type="line"/>
      <point x="24" y="201" type="line"/>
      <point x="46" y="50" type="line"/>
      <point x="205" y="108" type="line"/>
      <point x="184" y="149" type="line"/>
      <point x="174" y="103"/>
      <point x="169" y="50"/>
      <point x="169" y="11" type="curve" smooth="yes"/>
      <point x="169" y="-170"/>
      <point x="258" y="-264"/>
    </contour>
  </outline>
</glyph>
<glyph name="pertenthousand-ar" format="2">
  <advance width="843"/>
  <unicode hex="060A"/>
  <outline>
    <contour>
      <point x="558" y="-24" type="curve"/>
      <point x="639" y="77" type="line"/>
      <point x="614" y="115"/>
      <point x="581" y="158"/>
      <point x="545" y="193" type="curve"/>
      <point x="466" y="87" type="line"/>
      <point x="502" y="49"/>
      <point x="522" y="22"/>
    </contour>
    <contour>
      <point x="746" y="-24" type="curve"/>
      <point x="827" y="77" type="line"/>
      <point x="802" y="115"/>
      <point x="769" y="158"/>
      <point x="733" y="193" type="curve"/>
      <point x="654" y="87" type="line"/>
      <point x="690" y="49"/>
      <point x="710" y="22"/>
    </contour>
    <component base="percent-ar"/>
  </outline>
</glyph>
<glyph name="comma-ar" format="2">
  <advance width="263"/>
  <unicode hex="060C"/>
  <outline>
    <contour>
      <point x="142" y="-15" type="curve" smooth="yes"/>
      <point x="185" y="-15"/>
      <point x="215" y="15"/>
      <point x="215" y="62" type="curve" smooth="yes"/>
      <point x="215" y="97"/>
      <point x="196" y="124"/>
      <point x="163" y="137" type="curve"/>
      <point x="172" y="171"/>
      <point x="188" y="204"/>
      <point x="210" y="242" type="curve"/>
      <point x="143" y="292" type="line"/>
      <point x="99" y="234"/>
      <point x="61" y="169"/>
      <point x="61" y="93" type="curve" smooth="yes"/>
      <point x="61" y="34"/>
      <point x="88" y="-15"/>
    </contour>
  </outline>
</glyph>
<glyph name="sadabove-ar" format="2">
  <unicode hex="0610"/>
  <anchor x="139" y="550" name="_top"/>
  <anchor x="144" y="860" name="top"/>
  <outline>
    <contour>
      <point x="31" y="575" type="curve"/>
      <point x="75" y="567" type="line"/>
      <point x="82" y="605"/>
      <point x="86" y="654"/>
      <point x="86" y="691" type="curve"/>
      <point x="71" y="692" type="line"/>
      <point x="77" y="672"/>
      <point x="94" y="656"/>
      <point x="157" y="656" type="curve" smooth="yes"/>
      <point x="227" y="656"/>
      <point x="270" y="689"/>
      <point x="270" y="754" type="curve" smooth="yes"/>
      <point x="270" y="803"/>
      <point x="244" y="835"/>
      <point x="204" y="835" type="curve" smooth="yes"/>
      <point x="152" y="835"/>
      <point x="111" y="768"/>
      <point x="86" y="714" type="curve"/>
      <point x="130" y="693" type="line"/>
      <point x="142" y="729"/>
      <point x="166" y="772"/>
      <point x="194" y="772" type="curve" smooth="yes"/>
      <point x="210" y="772"/>
      <point x="219" y="761"/>
      <point x="219" y="746" type="curve" smooth="yes"/>
      <point x="219" y="726"/>
      <point x="209" y="718"/>
      <point x="150" y="718" type="curve" smooth="yes"/>
      <point x="93" y="718"/>
      <point x="90" y="724"/>
      <point x="85" y="739" type="curve" smooth="yes"/>
      <point x="81" y="750"/>
      <point x="78" y="768"/>
      <point x="74" y="793" type="curve"/>
      <point x="29" y="780" type="line"/>
      <point x="36" y="743"/>
      <point x="40" y="710"/>
      <point x="40" y="684" type="curve" smooth="yes"/>
      <point x="40" y="655"/>
      <point x="38" y="613"/>
    </contour>
  </outline>
</glyph>
<glyph name="ainabove-ar" format="2">
  <unicode hex="0611"/>
  <anchor x="131" y="550" name="_top"/>
  <anchor x="136" y="860" name="top"/>
  <outline>
    <contour>
      <point x="31" y="575" type="curve"/>
      <point x="75" y="567" type="line"/>
      <point x="82" y="605"/>
      <point x="86" y="654"/>
      <point x="86" y="691" type="curve"/>
      <point x="71" y="692" type="line"/>
      <point x="77" y="672"/>
      <point x="103" y="656"/>
      <point x="151" y="656" type="curve" smooth="yes"/>
      <point x="175" y="656"/>
      <point x="206" y="663"/>
      <point x="232" y="679" type="curve"/>
      <point x="225" y="735" type="line"/>
      <point x="210" y="729"/>
      <point x="199" y="724"/>
      <point x="185" y="724" type="curve" smooth="yes"/>
      <point x="169" y="724"/>
      <point x="158" y="734"/>
      <point x="158" y="754" type="curve" smooth="yes"/>
      <point x="158" y="770"/>
      <point x="168" y="779"/>
      <point x="183" y="779" type="curve" smooth="yes"/>
      <point x="192" y="779"/>
      <point x="200" y="777"/>
      <point x="209" y="774" type="curve"/>
      <point x="214" y="827" type="line"/>
      <point x="204" y="832"/>
      <point x="190" y="837"/>
      <point x="173" y="837" type="curve" smooth="yes"/>
      <point x="134" y="837"/>
      <point x="109" y="807"/>
      <point x="109" y="761" type="curve" smooth="yes"/>
      <point x="109" y="729"/>
      <point x="120" y="709"/>
      <point x="136" y="699" type="curve"/>
      <point x="138" y="718" type="line"/>
      <point x="99" y="718"/>
      <point x="90" y="726"/>
      <point x="83" y="747" type="curve" smooth="yes"/>
      <point x="81" y="756"/>
      <point x="78" y="769"/>
      <point x="74" y="793" type="curve"/>
      <point x="29" y="780" type="line"/>
      <point x="36" y="743"/>
      <point x="40" y="710"/>
      <point x="40" y="684" type="curve" smooth="yes"/>
      <point x="40" y="655"/>
      <point x="38" y="613"/>
    </contour>
  </outline>
</glyph>
<glyph name="rehHahabove-ar" format="2">
  <unicode hex="0612"/>
  <anchor x="124" y="550" name="_top"/>
  <anchor x="129" y="860" name="top"/>
  <outline>
    <contour>
      <point x="15" y="602" type="curve"/>
      <point x="63" y="602" type="line"/>
      <point x="63" y="678"/>
      <point x="106" y="733"/>
      <point x="168" y="733" type="curve"/>
      <point x="171" y="790" type="line"/>
      <point x="123" y="790"/>
      <point x="91" y="821"/>
      <point x="51" y="821" type="curve" smooth="yes"/>
      <point x="37" y="821"/>
      <point x="26" y="819"/>
      <point x="14" y="813" type="curve"/>
      <point x="12" y="760" type="line"/>
      <point x="24" y="763"/>
      <point x="33" y="765"/>
      <point x="45" y="765" type="curve" smooth="yes"/>
      <point x="70" y="765"/>
      <point x="98" y="756"/>
      <point x="119" y="740" type="curve"/>
      <point x="122" y="770" type="line"/>
      <point x="61" y="747"/>
      <point x="15" y="685"/>
    </contour>
    <contour>
      <point x="162" y="600" type="curve" smooth="yes"/>
      <point x="226" y="600"/>
      <point x="258" y="645"/>
      <point x="258" y="711" type="curve" smooth="yes"/>
      <point x="258" y="749"/>
      <point x="251" y="775"/>
      <point x="240" y="806" type="curve"/>
      <point x="194" y="787" type="line"/>
      <point x="202" y="760"/>
      <point x="209" y="737"/>
      <point x="209" y="712" type="curve" smooth="yes"/>
      <point x="209" y="677"/>
      <point x="193" y="659"/>
      <point x="157" y="659" type="curve" smooth="yes"/>
      <point x="146" y="659"/>
      <point x="140" y="660"/>
      <point x="130" y="662" type="curve"/>
      <point x="127" y="607" type="line"/>
      <point x="138" y="602"/>
      <point x="150" y="600"/>
    </contour>
  </outline>
</glyph>
<glyph name="rehDadabove-ar" format="2">
  <unicode hex="0613"/>
  <anchor x="179" y="550" name="_top"/>
  <anchor x="184" y="860" name="top"/>
  <outline>
    <contour>
      <point x="274" y="600" type="curve" smooth="yes"/>
      <point x="338" y="600"/>
      <point x="369" y="645"/>
      <point x="369" y="711" type="curve" smooth="yes"/>
      <point x="369" y="749"/>
      <point x="362" y="775"/>
      <point x="351" y="806" type="curve"/>
      <point x="305" y="787" type="line"/>
      <point x="313" y="760"/>
      <point x="320" y="737"/>
      <point x="320" y="712" type="curve" smooth="yes"/>
      <point x="320" y="677"/>
      <point x="304" y="659"/>
      <point x="268" y="659" type="curve" smooth="yes"/>
      <point x="258" y="659"/>
      <point x="251" y="660"/>
      <point x="242" y="662" type="curve"/>
      <point x="238" y="607" type="line"/>
      <point x="250" y="602"/>
      <point x="261" y="600"/>
    </contour>
    <contour>
      <point x="94" y="818" type="curve" smooth="yes"/>
      <point x="109" y="818"/>
      <point x="121" y="833"/>
      <point x="121" y="852" type="curve" smooth="yes"/>
      <point x="121" y="870"/>
      <point x="109" y="886"/>
      <point x="94" y="886" type="curve" smooth="yes"/>
      <point x="79" y="886"/>
      <point x="66" y="870"/>
      <point x="66" y="852" type="curve" smooth="yes"/>
      <point x="66" y="833"/>
      <point x="79" y="818"/>
    </contour>
    <component base="sadabove-ar"/>
  </outline>
</glyph>
<glyph name="takhallusabove-ar" format="2">
  <unicode hex="0614"/>
  <anchor x="179" y="550" name="_top"/>
  <anchor x="177" y="809" name="top"/>
  <outline>
    <contour>
      <point x="153" y="614" type="curve" smooth="yes"/>
      <point x="192" y="614"/>
      <point x="224" y="627"/>
      <point x="230" y="671" type="curve"/>
      <point x="219" y="671" type="line"/>
      <point x="225" y="628"/>
      <point x="244" y="614"/>
      <point x="268" y="614" type="curve" smooth="yes"/>
      <point x="311" y="614"/>
      <point x="330" y="651"/>
      <point x="330" y="705" type="curve" smooth="yes"/>
      <point x="330" y="728"/>
      <point x="326" y="759"/>
      <point x="315" y="792" type="curve"/>
      <point x="273" y="776" type="line"/>
      <point x="278" y="750"/>
      <point x="282" y="730"/>
      <point x="282" y="710" type="curve" smooth="yes"/>
      <point x="282" y="689"/>
      <point x="277" y="681"/>
      <point x="262" y="681" type="curve" smooth="yes"/>
      <point x="251" y="681"/>
      <point x="244" y="687"/>
      <point x="244" y="705" type="curve" smooth="yes"/>
      <point x="244" y="718"/>
      <point x="242" y="732"/>
      <point x="241" y="760" type="curve"/>
      <point x="198" y="756" type="line"/>
      <point x="198" y="730"/>
      <point x="198" y="714"/>
      <point x="196" y="703" type="curve" smooth="yes"/>
      <point x="193" y="688"/>
      <point x="180" y="681"/>
      <point x="155" y="681" type="curve" smooth="yes"/>
      <point x="114" y="681"/>
      <point x="78" y="687"/>
      <point x="30" y="697" type="curve"/>
      <point x="25" y="635" type="line"/>
      <point x="70" y="618"/>
      <point x="114" y="614"/>
    </contour>
  </outline>
</glyph>
<glyph name="alefLamYehabove-ar" format="2">
  <unicode hex="0616"/>
  <anchor x="154" y="550" name="_top"/>
  <anchor x="169" y="945" name="top"/>
  <outline>
    <contour>
      <point x="158" y="591" type="curve" smooth="yes"/>
      <point x="205" y="591"/>
      <point x="255" y="600"/>
      <point x="286" y="609" type="curve"/>
      <point x="286" y="667" type="line"/>
      <point x="252" y="660"/>
      <point x="210" y="652"/>
      <point x="159" y="652" type="curve" smooth="yes"/>
      <point x="91" y="652"/>
      <point x="80" y="658"/>
      <point x="80" y="672" type="curve" smooth="yes"/>
      <point x="80" y="681"/>
      <point x="85" y="688"/>
      <point x="113" y="696" type="curve" smooth="yes"/>
      <point x="175" y="714"/>
      <point x="194" y="738"/>
      <point x="190" y="803" type="curve" smooth="yes"/>
      <point x="186" y="913" type="line"/>
      <point x="137" y="913" type="line"/>
      <point x="141" y="803" type="line" smooth="yes"/>
      <point x="142" y="775"/>
      <point x="137" y="765"/>
      <point x="116" y="758" type="curve" smooth="yes"/>
      <point x="55" y="738"/>
      <point x="24" y="717"/>
      <point x="24" y="665" type="curve" smooth="yes"/>
      <point x="24" y="616"/>
      <point x="61" y="591"/>
    </contour>
    <contour>
      <point x="224" y="700" type="line"/>
      <point x="273" y="701" type="line"/>
      <point x="265" y="913" type="line"/>
      <point x="216" y="913" type="line"/>
    </contour>
  </outline>
</glyph>
<glyph name="zainabove-ar" format="2">
  <unicode hex="0617"/>
  <anchor x="72" y="550" name="_top"/>
  <anchor x="66" y="907" name="top"/>
  <outline>
    <contour>
      <point x="47" y="600" type="curve" smooth="yes"/>
      <point x="111" y="600"/>
      <point x="142" y="645"/>
      <point x="142" y="711" type="curve" smooth="yes"/>
      <point x="142" y="749"/>
      <point x="136" y="775"/>
      <point x="125" y="806" type="curve"/>
      <point x="78" y="787" type="line"/>
      <point x="86" y="760"/>
      <point x="94" y="737"/>
      <point x="94" y="712" type="curve" smooth="yes"/>
      <point x="94" y="677"/>
      <point x="78" y="659"/>
      <point x="42" y="659" type="curve" smooth="yes"/>
      <point x="31" y="659"/>
      <point x="25" y="660"/>
      <point x="15" y="662" type="curve"/>
      <point x="12" y="607" type="line"/>
      <point x="23" y="602"/>
      <point x="34" y="600"/>
    </contour>
    <contour>
      <point x="92" y="830" type="curve" smooth="yes"/>
      <point x="107" y="830"/>
      <point x="119" y="845"/>
      <point x="119" y="864" type="curve" smooth="yes"/>
      <point x="119" y="882"/>
      <point x="107" y="898"/>
      <point x="92" y="898" type="curve" smooth="yes"/>
      <point x="78" y="898"/>
      <point x="65" y="882"/>
      <point x="65" y="864" type="curve" smooth="yes"/>
      <point x="65" y="845"/>
      <point x="78" y="830"/>
    </contour>
  </outline>
</glyph>
<glyph name="fathasmall-ar" format="2">
  <unicode hex="0618"/>
  <anchor x="115" y="590" name="_top"/>
  <anchor x="115" y="744" name="top"/>
  <outline>
    <contour>
      <point x="34" y="627" type="line"/>
      <point x="197" y="668" type="line"/>
      <point x="188" y="737" type="line"/>
      <point x="24" y="694" type="line"/>
    </contour>
  </outline>
</glyph>
<glyph name="dammasmall-ar" format="2">
  <unicode hex="0619"/>
  <anchor x="103" y="590" name="_top"/>
  <anchor x="109" y="879" name="top"/>
  <outline>
    <contour>
      <point x="25" y="602" type="line"/>
      <point x="136" y="612"/>
      <point x="201" y="677"/>
      <point x="201" y="764" type="curve" smooth="yes"/>
      <point x="201" y="816"/>
      <point x="175" y="863"/>
      <point x="123" y="863" type="curve" smooth="yes"/>
      <point x="77" y="863"/>
      <point x="42" y="825"/>
      <point x="42" y="769" type="curve" smooth="yes"/>
      <point x="42" y="721"/>
      <point x="65" y="688"/>
      <point x="96" y="672" type="curve"/>
      <point x="134" y="712" type="line"/>
      <point x="113" y="720"/>
      <point x="98" y="741"/>
      <point x="98" y="764" type="curve" smooth="yes"/>
      <point x="98" y="784"/>
      <point x="109" y="796"/>
      <point x="123" y="796" type="curve" smooth="yes"/>
      <point x="138" y="796"/>
      <point x="146" y="781"/>
      <point x="146" y="760" type="curve" smooth="yes"/>
      <point x="146" y="713"/>
      <point x="102" y="679"/>
      <point x="15" y="667" type="curve"/>
    </contour>
  </outline>
</glyph>
<glyph name="semicolon-ar" format="2">
  <advance width="282"/>
  <unicode hex="061B"/>
  <outline>
    <contour>
      <point x="66" y="291" type="curve"/>
      <point x="198" y="291" type="line"/>
      <point x="206" y="381"/>
      <point x="218" y="463"/>
      <point x="234" y="556" type="curve"/>
      <point x="127" y="556" type="line"/>
      <point x="94" y="464"/>
      <point x="77" y="383"/>
    </contour>
    <contour>
      <point x="129" y="-15" type="curve" smooth="yes"/>
      <point x="174" y="-15"/>
      <point x="211" y="10"/>
      <point x="211" y="78" type="curve" smooth="yes"/>
      <point x="211" y="145"/>
      <point x="174" y="172"/>
      <point x="129" y="172" type="curve" smooth="yes"/>
      <point x="86" y="172"/>
      <point x="48" y="145"/>
      <point x="48" y="78" type="curve" smooth="yes"/>
      <point x="48" y="10"/>
      <point x="86" y="-15"/>
    </contour>
  </outline>
</glyph>
<glyph name="question-ar" format="2">
  <advance width="406"/>
  <unicode hex="061F"/>
  <outline>
    <contour>
      <point x="165" y="252" type="curve"/>
      <point x="286" y="252" type="line"/>
      <point x="286" y="341"/>
      <point x="274" y="375"/>
      <point x="216" y="435" type="curve" smooth="yes"/>
      <point x="177" y="475"/>
      <point x="162" y="493"/>
      <point x="162" y="522" type="curve" smooth="yes"/>
      <point x="162" y="555"/>
      <point x="190" y="574"/>
      <point x="231" y="574" type="curve" smooth="yes"/>
      <point x="274" y="574"/>
      <point x="311" y="557"/>
      <point x="352" y="529" type="curve"/>
      <point x="390" y="666" type="line"/>
      <point x="358" y="692"/>
      <point x="297" y="724"/>
      <point x="226" y="724" type="curve" smooth="yes"/>
      <point x="100" y="724"/>
      <point x="21" y="647"/>
      <point x="21" y="538" type="curve" smooth="yes"/>
      <point x="21" y="467"/>
      <point x="46" y="415"/>
      <point x="108" y="351" type="curve" smooth="yes"/>
      <point x="150" y="308"/>
      <point x="165" y="284"/>
    </contour>
    <contour>
      <point x="219" y="-15" type="curve" smooth="yes"/>
      <point x="265" y="-15"/>
      <point x="302" y="12"/>
      <point x="302" y="78" type="curve" smooth="yes"/>
      <point x="302" y="147"/>
      <point x="265" y="172"/>
      <point x="219" y="172" type="curve" smooth="yes"/>
      <point x="175" y="172"/>
      <point x="138" y="147"/>
      <point x="138" y="78" type="curve" smooth="yes"/>
      <point x="138" y="12"/>
      <point x="175" y="-15"/>
    </contour>
  </outline>
</glyph>
<glyph name="hamza-ar" format="2">
  <advance width="394"/>
  <unicode hex="0621"/>
  <anchor x="206" y="-51" name="bottom"/>
  <anchor x="198" y="533" name="top"/>
  <outline>
    <contour>
      <point x="37" y="-38" type="line"/>
      <point x="146" y="-10"/>
      <point x="279" y="17"/>
      <point x="380" y="34" type="curve"/>
      <point x="374" y="188" type="line"/>
      <point x="331" y="182"/>
      <point x="302" y="176"/>
      <point x="259" y="176" type="curve" smooth="yes"/>
      <point x="209" y="176"/>
      <point x="191" y="204"/>
      <point x="191" y="237" type="curve" smooth="yes"/>
      <point x="191" y="279"/>
      <point x="212" y="300"/>
      <point x="257" y="300" type="curve" smooth="yes"/>
      <point x="286" y="300"/>
      <point x="305" y="294"/>
      <point x="332" y="285" type="curve"/>
      <point x="344" y="427" type="line"/>
      <point x="317" y="443"/>
      <point x="278" y="455"/>
      <point x="230" y="455" type="curve" smooth="yes"/>
      <point x="128" y="455"/>
      <point x="45" y="377"/>
      <point x="45" y="257" type="curve" smooth="yes"/>
      <point x="45" y="168"/>
      <point x="91" y="101"/>
      <point x="158" y="69" type="curve"/>
      <point x="167" y="153" type="line"/>
      <point x="124" y="142"/>
      <point x="63" y="126"/>
      <point x="19" y="113" type="curve"/>
    </contour>
  </outline>
</glyph>
<glyph name="alef-ar" format="2">
  <advance width="241"/>
  <unicode hex="0627"/>
  <anchor x="126" y="-111" name="bottom"/>
  <anchor x="126" y="-10" name="bottom.dot"/>
  <anchor x="114" y="788" name="top"/>
  <outline>
    <contour>
      <point x="56" y="0" type="line"/>
      <point x="202" y="0" type="line"/>
      <point x="185" y="760" type="line"/>
      <point x="39" y="760" type="line"/>
    </contour>
  </outline>
</glyph>
<glyph name="hah-ar" format="2">
  <advance width="578"/>
  <unicode hex="062D"/>
  <anchor x="266" y="-435" name="bottom"/>
  <anchor x="348" y="-6" name="center"/>
  <anchor x="265" y="650" name="top"/>
  <anchor x="262" y="544" name="top.dot"/>
  <outline>
    <contour>
      <point x="330" y="-394" type="curve" smooth="yes"/>
      <point x="416" y="-394"/>
      <point x="497" y="-370"/>
      <point x="542" y="-349" type="curve"/>
      <point x="543" y="-187" type="line"/>
      <point x="490" y="-204"/>
      <point x="447" y="-214"/>
      <point x="369" y="-214" type="curve" smooth="yes"/>
      <point x="236" y="-214"/>
      <point x="160" y="-163"/>
      <point x="160" y="-51" type="curve" smooth="yes"/>
      <point x="160" y="137"/>
      <point x="348" y="238"/>
      <point x="546" y="286" type="curve"/>
      <point x="554" y="441" type="line"/>
      <point x="522" y="441"/>
      <point x="496" y="443"/>
      <point x="467" y="447" type="curve" smooth="yes"/>
      <point x="345" y="465"/>
      <point x="255" y="555"/>
      <point x="147" y="555" type="curve" smooth="yes"/>
      <point x="112" y="555"/>
      <point x="79" y="547"/>
      <point x="49" y="528" type="curve"/>
      <point x="41" y="371" type="line"/>
      <point x="71" y="379"/>
      <point x="98" y="384"/>
      <point x="133" y="384" type="curve" smooth="yes"/>
      <point x="210" y="384"/>
      <point x="278" y="340"/>
      <point x="406" y="310" type="curve"/>
      <point x="410" y="365" type="line"/>
      <point x="227" y="326"/>
      <point x="14" y="183"/>
      <point x="14" y="-77" type="curve" smooth="yes"/>
      <point x="14" y="-270"/>
      <point x="118" y="-394"/>
    </contour>
  </outline>
</glyph>
<glyph name="dal-ar" format="2">
  <advance width="422"/>
  <unicode hex="062F"/>
  <anchor x="186" y="-111" name="bottom"/>
  <anchor x="188" y="-21" name="bottom.dot"/>
  <anchor x="212" y="602" name="top"/>
  <anchor x="212" y="536" name="top.dot"/>
  <outline>
    <contour>
      <point x="156" y="-10" type="curve" smooth="yes"/>
      <point x="306" y="-10"/>
      <point x="386" y="57"/>
      <point x="386" y="197" type="curve" smooth="yes"/>
      <point x="386" y="309"/>
      <point x="340" y="427"/>
      <point x="241" y="564" type="curve"/>
      <point x="118" y="475" type="line"/>
      <point x="197" y="359"/>
      <point x="240" y="292"/>
      <point x="240" y="220" type="curve" smooth="yes"/>
      <point x="240" y="188"/>
      <point x="216" y="170"/>
      <point x="153" y="170" type="curve" smooth="yes"/>
      <point x="107" y="170"/>
      <point x="69" y="176"/>
      <point x="30" y="187" type="curve"/>
      <point x="27" y="24" type="line"/>
      <point x="53" y="3"/>
      <point x="115" y="-10"/>
    </contour>
  </outline>
</glyph>
<glyph name="reh-ar" format="2">
  <advance width="392"/>
  <unicode hex="0631"/>
  <anchor x="118" y="-308" name="bottom"/>
  <anchor x="118" y="-252" name="bottom.dot"/>
  <anchor x="169" y="31" name="center"/>
  <anchor x="190" y="513" name="top"/>
  <anchor x="193" y="360" name="top.dot"/>
  <outline>
    <contour>
      <point x="95" y="-266" type="curve" smooth="yes"/>
      <point x="265" y="-266"/>
      <point x="357" y="-153"/>
      <point x="357" y="56" type="curve" smooth="yes"/>
      <point x="357" y="167"/>
      <point x="314" y="292"/>
      <point x="257" y="394" type="curve"/>
      <point x="133" y="320" type="line"/>
      <point x="184" y="218"/>
      <point x="221" y="131"/>
      <point x="221" y="52" type="curve" smooth="yes"/>
      <point x="221" y="-53"/>
      <point x="165" y="-102"/>
      <point x="66" y="-102" type="curve" smooth="yes"/>
      <point x="33" y="-102"/>
      <point x="2" y="-98"/>
      <point x="-34" y="-89" type="curve"/>
      <point x="-28" y="-238" type="line"/>
      <point x="1" y="-257"/>
      <point x="51" y="-266"/>
    </contour>
  </outline>
</glyph>
<glyph name="seen-ar" format="2">
  <advance width="1066"/>
  <unicode hex="0633"/>
  <anchor x="739" y="-111" name="bottom"/>
  <anchor x="739" y="-20" name="bottom.dot"/>
  <anchor x="746" y="532" name="top"/>
  <anchor x="747" y="391" name="top.dot"/>
  <outline>
    <contour>
      <point x="262" y="-232" type="curve" smooth="yes"/>
      <point x="421" y="-232"/>
      <point x="566" y="-127"/>
      <point x="551" y="113" type="curve"/>
      <point x="499" y="106" type="line"/>
      <point x="522" y="14"/>
      <point x="577" y="-10"/>
      <point x="625" y="-10" type="curve" smooth="yes"/>
      <point x="691" y="-10"/>
      <point x="741" y="24"/>
      <point x="761" y="141" type="curve"/>
      <point x="732" y="141" type="line"/>
      <point x="746" y="26"/>
      <point x="800" y="-10"/>
      <point x="862" y="-10" type="curve" smooth="yes"/>
      <point x="976" y="-10"/>
      <point x="1026" y="86"/>
      <point x="1026" y="231" type="curve" smooth="yes"/>
      <point x="1026" y="295"/>
      <point x="1017" y="370"/>
      <point x="991" y="456" type="curve"/>
      <point x="873" y="424" type="line"/>
      <point x="890" y="356"/>
      <point x="898" y="299"/>
      <point x="898" y="246" type="curve" smooth="yes"/>
      <point x="898" y="192"/>
      <point x="885" y="170"/>
      <point x="846" y="170" type="curve" smooth="yes"/>
      <point x="814" y="170"/>
      <point x="801" y="182"/>
      <point x="795" y="231" type="curve" smooth="yes"/>
      <point x="791" y="268"/>
      <point x="791" y="305"/>
      <point x="789" y="381" type="curve"/>
      <point x="674" y="373" type="line"/>
      <point x="675" y="303"/>
      <point x="676" y="250"/>
      <point x="669" y="220" type="curve" smooth="yes"/>
      <point x="661" y="183"/>
      <point x="638" y="170"/>
      <point x="606" y="170" type="curve" smooth="yes"/>
      <point x="580" y="170"/>
      <point x="563" y="182"/>
      <point x="554" y="208" type="curve" smooth="yes"/>
      <point x="541" y="243"/>
      <point x="535" y="292"/>
      <point x="524" y="370" type="curve"/>
      <point x="400" y="347" type="line"/>
      <point x="413" y="256"/>
      <point x="423" y="177"/>
      <point x="423" y="108" type="curve" smooth="yes"/>
      <point x="423" y="-10"/>
      <point x="370" y="-52"/>
      <point x="275" y="-52" type="curve" smooth="yes"/>
      <point x="202" y="-52"/>
      <point x="161" y="-27"/>
      <point x="161" y="71" type="curve" smooth="yes"/>
      <point x="161" y="123"/>
      <point x="167" y="167"/>
      <point x="180" y="236" type="curve"/>
      <point x="79" y="263" type="line"/>
      <point x="48" y="176"/>
      <point x="35" y="99"/>
      <point x="35" y="33" type="curve" smooth="yes"/>
      <point x="35" y="-148"/>
      <point x="124" y="-232"/>
    </contour>
  </outline>
</glyph>
<glyph name="sad-ar" format="2">
  <advance width="1106"/>
  <unicode hex="0635"/>
  <anchor x="751" y="-112" name="bottom"/>
  <anchor x="751" y="-20" name="bottom.dot"/>
  <anchor x="566" y="569" name="top"/>
  <anchor x="839" y="499" name="top.dot"/>
  <outline>
    <contour>
      <point x="262" y="-232" type="curve" smooth="yes"/>
      <point x="421" y="-232"/>
      <point x="566" y="-127"/>
      <point x="551" y="113" type="curve"/>
      <point x="502" y="91" type="line"/>
      <point x="546" y="12"/>
      <point x="626" y="-10"/>
      <point x="746" y="-10" type="curve" smooth="yes"/>
      <point x="973" y="-10"/>
      <point x="1070" y="88"/>
      <point x="1070" y="252" type="curve" smooth="yes"/>
      <point x="1070" y="389"/>
      <point x="998" y="502"/>
      <point x="883" y="502" type="curve" smooth="yes"/>
      <point x="760" y="502"/>
      <point x="632" y="378"/>
      <point x="528" y="142" type="curve"/>
      <point x="638" y="96" type="line"/>
      <point x="695" y="225"/>
      <point x="767" y="322"/>
      <point x="851" y="322" type="curve" smooth="yes"/>
      <point x="905" y="322"/>
      <point x="934" y="280"/>
      <point x="934" y="237" type="curve" smooth="yes"/>
      <point x="934" y="183"/>
      <point x="893" y="170"/>
      <point x="752" y="170" type="curve" smooth="yes"/>
      <point x="582" y="170"/>
      <point x="554" y="181"/>
      <point x="546" y="231" type="curve" smooth="yes"/>
      <point x="539" y="266"/>
      <point x="534" y="300"/>
      <point x="524" y="370" type="curve"/>
      <point x="400" y="347" type="line"/>
      <point x="412" y="266"/>
      <point x="423" y="177"/>
      <point x="423" y="108" type="curve" smooth="yes"/>
      <point x="423" y="-10"/>
      <point x="371" y="-52"/>
      <point x="275" y="-52" type="curve" smooth="yes"/>
      <point x="202" y="-52"/>
      <point x="161" y="-27"/>
      <point x="161" y="71" type="curve" smooth="yes"/>
      <point x="161" y="123"/>
      <point x="167" y="167"/>
      <point x="180" y="236" type="curve"/>
      <point x="79" y="263" type="line"/>
      <point x="48" y="176"/>
      <point x="35" y="99"/>
      <point x="35" y="33" type="curve" smooth="yes"/>
      <point x="35" y="-148"/>
      <point x="124" y="-232"/>
    </contour>
  </outline>
</glyph>
<glyph name="tah-ar" format="2">
  <advance width="715"/>
  <unicode hex="0637"/>
  <anchor x="318" y="-111" name="bottom"/>
  <anchor x="318" y="-20" name="bottom.dot"/>
  <anchor x="468" y="642" name="top"/>
  <anchor x="466" y="494" name="top.dot"/>
  <outline>
    <contour>
      <point x="324" y="-10" type="curve" smooth="yes"/>
      <point x="567" y="-10"/>
      <point x="679" y="88"/>
      <point x="679" y="252" type="curve" smooth="yes"/>
      <point x="679" y="389"/>
      <point x="607" y="502"/>
      <point x="492" y="502" type="curve" smooth="yes"/>
      <point x="385" y="502"/>
      <point x="257" y="378"/>
      <point x="137" y="142" type="curve"/>
      <point x="242" y="96" type="line"/>
      <point x="298" y="225"/>
      <point x="376" y="322"/>
      <point x="460" y="322" type="curve" smooth="yes"/>
      <point x="513" y="322"/>
      <point x="543" y="280"/>
      <point x="543" y="237" type="curve" smooth="yes"/>
      <point x="543" y="183"/>
      <point x="487" y="170"/>
      <point x="338" y="170" type="curve" smooth="yes"/>
      <point x="272" y="170"/>
      <point x="158" y="169"/>
      <point x="32" y="179" type="curve"/>
      <point x="24" y="3" type="line"/>
      <point x="121" y="-7"/>
      <point x="226" y="-10"/>
    </contour>
    <contour>
      <point x="183" y="99" type="line"/>
      <point x="305" y="308" type="line"/>
      <point x="292" y="760" type="line"/>
      <point x="166" y="760" type="line"/>
    </contour>
  </outline>
</glyph>
<glyph name="ain-ar" format="2">
  <advance width="484"/>
  <unicode hex="0639"/>
  <anchor x="266" y="-435" name="bottom"/>
  <anchor x="314" y="-65" name="center"/>
  <anchor x="244" y="690" name="top"/>
  <anchor x="244" y="572" name="top.dot"/>
  <outline>
    <contour>
      <point x="289" y="-394" type="curve" smooth="yes"/>
      <point x="374" y="-394"/>
      <point x="448" y="-372"/>
      <point x="492" y="-349" type="curve"/>
      <point x="494" y="-187" type="line"/>
      <point x="438" y="-202"/>
      <point x="374" y="-214"/>
      <point x="305" y="-214" type="curve" smooth="yes"/>
      <point x="195" y="-214"/>
      <point x="144" y="-183"/>
      <point x="144" y="-101" type="curve" smooth="yes"/>
      <point x="144" y="-35"/>
      <point x="170" y="17"/>
      <point x="235" y="55" type="curve" smooth="yes"/>
      <point x="282" y="81"/>
      <point x="362" y="103"/>
      <point x="446" y="126" type="curve"/>
      <point x="434" y="290" type="line"/>
      <point x="374" y="278"/>
      <point x="325" y="264"/>
      <point x="284" y="264" type="curve" smooth="yes"/>
      <point x="219" y="264"/>
      <point x="190" y="292"/>
      <point x="190" y="346" type="curve" smooth="yes"/>
      <point x="190" y="389"/>
      <point x="218" y="415"/>
      <point x="277" y="415" type="curve" smooth="yes"/>
      <point x="309" y="415"/>
      <point x="345" y="408"/>
      <point x="379" y="397" type="curve"/>
      <point x="391" y="559" type="line"/>
      <point x="359" y="582"/>
      <point x="313" y="595"/>
      <point x="267" y="595" type="curve" smooth="yes"/>
      <point x="133" y="595"/>
      <point x="54" y="492"/>
      <point x="54" y="343" type="curve" smooth="yes"/>
      <point x="54" y="230"/>
      <point x="117" y="146"/>
      <point x="191" y="112" type="curve"/>
      <point x="209" y="192" type="line"/>
      <point x="108" y="143"/>
      <point x="8" y="43"/>
      <point x="8" y="-117" type="curve" smooth="yes"/>
      <point x="8" y="-297"/>
      <point x="128" y="-394"/>
    </contour>
  </outline>
</glyph>
<glyph name="kashida-ar" format="2">
  <advance width="240"/>
  <unicode hex="0640"/>
  <outline>
    <contour>
      <point x="0" y="-10" type="line"/>
      <point x="240" y="-10" type="line" smooth="yes"/>
      <point x="293" y="-10"/>
      <point x="320" y="30"/>
      <point x="320" y="81" type="curve" smooth="yes"/>
      <point x="320" y="126"/>
      <point x="299" y="170"/>
      <point x="248" y="170" type="curve" smooth="yes"/>
      <point x="8" y="170" type="line"/>
    </contour>
  </outline>
</glyph>
<glyph name="kaf-ar" format="2">
  <advance width="770"/>
  <unicode hex="0643"/>
  <anchor x="368" y="-111" name="bottom"/>
  <anchor x="369" y="-20" name="bottom.dot"/>
  <anchor x="387" y="667" name="top"/>
  <anchor x="637" y="744" name="top.dot"/>
  <outline>
    <contour>
      <point x="360" y="-15" type="line"/>
      <point x="642" y="-15"/>
      <point x="738" y="66"/>
      <point x="731" y="332" type="curve" smooth="yes"/>
      <point x="720" y="760" type="line"/>
      <point x="584" y="760" type="line"/>
      <point x="597" y="319" type="line" smooth="yes"/>
      <point x="600" y="198"/>
      <point x="564" y="165"/>
      <point x="381" y="165" type="curve"/>
    </contour>
    <contour>
      <point x="293" y="304" type="line"/>
      <point x="402" y="299"/>
      <point x="488" y="336"/>
      <point x="488" y="413" type="curve" smooth="yes"/>
      <point x="488" y="450"/>
      <point x="467" y="473"/>
      <point x="434" y="491" type="curve" smooth="yes"/>
      <point x="410" y="505"/>
      <point x="396" y="510"/>
      <point x="396" y="522" type="curve" smooth="yes"/>
      <point x="396" y="537"/>
      <point x="429" y="551"/>
      <point x="475" y="553" type="curve"/>
      <point x="469" y="659" type="line"/>
      <point x="340" y="631"/>
      <point x="296" y="573"/>
      <point x="296" y="518" type="curve" smooth="yes"/>
      <point x="296" y="481"/>
      <point x="317" y="458"/>
      <point x="339" y="442" type="curve" smooth="yes"/>
      <point x="362" y="426"/>
      <point x="373" y="421"/>
      <point x="373" y="412" type="curve" smooth="yes"/>
      <point x="373" y="394"/>
      <point x="344" y="392"/>
      <point x="284" y="394" type="curve"/>
    </contour>
    <component base="_part.beh.fina" xOffset="5"/>
  </outline>
</glyph>
<glyph name="meem-ar" format="2">
  <advance width="480"/>
  <unicode hex="0645"/>
  <anchor x="298" y="-111" name="bottom"/>
  <anchor x="298" y="-20" name="bottom.dot"/>
  <anchor x="242" y="587" name="top"/>
  <anchor x="243" y="477" name="top.dot"/>
  <outline>
    <contour>
      <point x="42" y="-383" type="curve"/>
      <point x="178" y="-379" type="line"/>
      <point x="172" y="-273"/>
      <point x="165" y="-151"/>
      <point x="165" y="-90" type="curve" smooth="yes"/>
      <point x="165" y="11"/>
      <point x="196" y="28"/>
      <point x="280" y="28" type="curve" smooth="yes"/>
      <point x="329" y="28"/>
      <point x="378" y="20"/>
      <point x="425" y="10" type="curve"/>
      <point x="461" y="167" type="line"/>
      <point x="426" y="343"/>
      <point x="357" y="487"/>
      <point x="245" y="487" type="curve" smooth="yes"/>
      <point x="166" y="487"/>
      <point x="98" y="423"/>
      <point x="66" y="297" type="curve"/>
      <point x="166" y="241" type="line"/>
      <point x="188" y="288"/>
      <point x="207" y="306"/>
      <point x="233" y="306" type="curve" smooth="yes"/>
      <point x="273" y="306"/>
      <point x="301" y="258"/>
      <point x="326" y="154" type="curve"/>
      <point x="386" y="185" type="line"/>
      <point x="353" y="191"/>
      <point x="301" y="200"/>
      <point x="248" y="200" type="curve" smooth="yes"/>
      <point x="98" y="200"/>
      <point x="29" y="125"/>
      <point x="29" y="-62" type="curve" smooth="yes"/>
      <point x="29" y="-164"/>
      <point x="35" y="-278"/>
    </contour>
  </outline>
</glyph>
<glyph name="heh-ar" format="2">
  <advance width="439"/>
  <unicode hex="0647"/>
  <anchor x="215" y="-111" name="bottom"/>
  <anchor x="206" y="630" name="top"/>
  <anchor x="206" y="561" name="top.dot"/>
  <outline>
    <contour>
      <point x="217" y="-10" type="curve" smooth="yes"/>
      <point x="344" y="-10"/>
      <point x="411" y="76"/>
      <point x="411" y="217" type="curve" smooth="yes"/>
      <point x="411" y="356"/>
      <point x="336" y="476"/>
      <point x="193" y="592" type="curve"/>
      <point x="107" y="472" type="line"/>
      <point x="248" y="353"/>
      <point x="286" y="311"/>
      <point x="286" y="237" type="curve" smooth="yes"/>
      <point x="286" y="195"/>
      <point x="266" y="170"/>
      <point x="226" y="170" type="curve" smooth="yes"/>
      <point x="190" y="170"/>
      <point x="164" y="192"/>
      <point x="164" y="236" type="curve" smooth="yes"/>
      <point x="164" y="283"/>
      <point x="198" y="345"/>
      <point x="252" y="399" type="curve"/>
      <point x="182" y="489" type="line"/>
      <point x="84" y="384"/>
      <point x="36" y="283"/>
      <point x="36" y="182" type="curve" smooth="yes"/>
      <point x="36" y="63"/>
      <point x="95" y="-10"/>
    </contour>
  </outline>
</glyph>
<glyph name="waw-ar" format="2">
  <advance width="428"/>
  <unicode hex="0648"/>
  <anchor x="181" y="-290" name="bottom"/>
  <anchor x="213" y="-66" name="center"/>
  <anchor x="211" y="518" name="top"/>
  <anchor x="211" y="442" name="top.dot"/>
  <outline>
    <contour>
      <point x="128" y="-266" type="curve" smooth="yes"/>
      <point x="286" y="-266"/>
      <point x="390" y="-123"/>
      <point x="390" y="86" type="curve" smooth="yes"/>
      <point x="390" y="312"/>
      <point x="318" y="442"/>
      <point x="213" y="442" type="curve" smooth="yes"/>
      <point x="111" y="442"/>
      <point x="43" y="319"/>
      <point x="43" y="175" type="curve" smooth="yes"/>
      <point x="43" y="43"/>
      <point x="100" y="-17"/>
      <point x="214" y="-17" type="curve" smooth="yes"/>
      <point x="258" y="-17"/>
      <point x="298" y="-4"/>
      <point x="328" y="16" type="curve"/>
      <point x="327" y="170" type="line"/>
      <point x="285" y="155"/>
      <point x="262" y="151"/>
      <point x="230" y="151" type="curve" smooth="yes"/>
      <point x="175" y="151"/>
      <point x="155" y="165"/>
      <point x="155" y="205" type="curve" smooth="yes"/>
      <point x="155" y="246"/>
      <point x="176" y="281"/>
      <point x="209" y="281" type="curve" smooth="yes"/>
      <point x="247" y="281"/>
      <point x="281" y="244"/>
      <point x="281" y="94" type="curve" smooth="yes"/>
      <point x="281" y="-53"/>
      <point x="229" y="-110"/>
      <point x="108" y="-110" type="curve" smooth="yes"/>
      <point x="75" y="-110"/>
      <point x="44" y="-106"/>
      <point x="9" y="-97" type="curve"/>
      <point x="14" y="-238" type="line"/>
      <point x="43" y="-257"/>
      <point x="85" y="-266"/>
    </contour>
  </outline>
</glyph>
<glyph name="alefMaksura-ar" format="2">
  <advance width="676"/>
  <unicode hex="0649"/>
  <anchor x="286" y="-261" name="bottom"/>
  <anchor x="286" y="-221" name="bottom.dot"/>
  <anchor x="192" y="376" name="top"/>
  <anchor x="134" y="235" name="top.dot"/>
  <outline>
    <contour>
      <point x="285" y="-232" type="curve" smooth="yes"/>
      <point x="498" y="-232"/>
      <point x="617" y="-80"/>
      <point x="617" y="60" type="curve" smooth="yes"/>
      <point x="617" y="151"/>
      <point x="574" y="181"/>
      <point x="471" y="206" type="curve" smooth="yes"/>
      <point x="414" y="220"/>
      <point x="400" y="232"/>
      <point x="400" y="254" type="curve" smooth="yes"/>
      <point x="400" y="300"/>
      <point x="446" y="343"/>
      <point x="519" y="343" type="curve" smooth="yes"/>
      <point x="555" y="343"/>
      <point x="587" y="333"/>
      <point x="615" y="316" type="curve"/>
      <point x="644" y="481" type="line"/>
      <point x="618" y="505"/>
      <point x="576" y="521"/>
      <point x="526" y="521" type="curve" smooth="yes"/>
      <point x="385" y="521"/>
      <point x="274" y="377"/>
      <point x="274" y="223" type="curve" smooth="yes"/>
      <point x="274" y="137"/>
      <point x="302" y="80"/>
      <point x="414" y="49" type="curve" smooth="yes"/>
      <point x="472" y="33"/>
      <point x="481" y="30"/>
      <point x="481" y="15" type="curve" smooth="yes"/>
      <point x="481" y="-14"/>
      <point x="422" y="-52"/>
      <point x="306" y="-52" type="curve" smooth="yes"/>
      <point x="210" y="-52"/>
      <point x="161" y="-27"/>
      <point x="161" y="71" type="curve" smooth="yes"/>
      <point x="161" y="123"/>
      <point x="167" y="167"/>
      <point x="180" y="236" type="curve"/>
      <point x="79" y="263" type="line"/>
      <point x="48" y="176"/>
      <point x="35" y="99"/>
      <point x="35" y="33" type="curve" smooth="yes"/>
      <point x="35" y="-148"/>
      <point x="130" y="-232"/>
    </contour>
  </outline>
</glyph>
<glyph name="fathatan-ar" format="2">
  <unicode hex="064B"/>
  <guideline x="0" y="804" angle="90"/>
  <anchor x="132" y="578" name="_top"/>
  <anchor x="135" y="800" name="top"/>
  <outline>
    <contour>
      <point x="34" y="696" type="line"/>
      <point x="230" y="746" type="line"/>
      <point x="219" y="814" type="line"/>
      <point x="24" y="763" type="line"/>
    </contour>
    <contour>
      <point x="34" y="586" type="line"/>
      <point x="230" y="636" type="line"/>
      <point x="219" y="704" type="line"/>
      <point x="24" y="653" type="line"/>
    </contour>
  </outline>
</glyph>
<glyph name="dammatan-ar" format="2">
  <unicode hex="064C"/>
  <guideline x="1" y="803" angle="90"/>
  <anchor x="164" y="590" name="_top"/>
  <anchor x="163" y="858" name="top"/>
  <outline>
    <contour>
      <point x="48" y="616" type="line"/>
      <point x="239" y="626"/>
      <point x="296" y="706"/>
      <point x="296" y="793" type="curve" smooth="yes"/>
      <point x="296" y="852"/>
      <point x="266" y="888"/>
      <point x="225" y="888" type="curve" smooth="yes"/>
      <point x="179" y="888"/>
      <point x="146" y="847"/>
      <point x="146" y="788" type="curve" smooth="yes"/>
      <point x="146" y="750"/>
      <point x="165" y="710"/>
      <point x="196" y="694" type="curve"/>
      <point x="233" y="734" type="line"/>
      <point x="211" y="745"/>
      <point x="200" y="766"/>
      <point x="200" y="789" type="curve" smooth="yes"/>
      <point x="200" y="809"/>
      <point x="208" y="821"/>
      <point x="221" y="821" type="curve" smooth="yes"/>
      <point x="235" y="821"/>
      <point x="242" y="808"/>
      <point x="242" y="787" type="curve" smooth="yes"/>
      <point x="242" y="737"/>
      <point x="188" y="698"/>
      <point x="107" y="690" type="curve"/>
      <point x="102" y="660" type="line"/>
      <point x="124" y="667"/>
      <point x="136" y="699"/>
      <point x="136" y="733" type="curve" smooth="yes"/>
      <point x="136" y="779"/>
      <point x="118" y="811"/>
      <point x="82" y="811" type="curve" smooth="yes"/>
      <point x="59" y="811"/>
      <point x="38" y="800"/>
      <point x="24" y="785" type="curve"/>
      <point x="39" y="733" type="line"/>
      <point x="48" y="739"/>
      <point x="56" y="742"/>
      <point x="64" y="742" type="curve" smooth="yes"/>
      <point x="74" y="742"/>
      <point x="81" y="734"/>
      <point x="81" y="718" type="curve" smooth="yes"/>
      <point x="81" y="695"/>
      <point x="69" y="684"/>
      <point x="40" y="680" type="curve"/>
    </contour>
  </outline>
</glyph>
<glyph name="fatha-ar" format="2">
  <unicode hex="064E"/>
  <anchor x="126" y="590" name="_top"/>
  <anchor x="128" y="550" name="_top.dot"/>
  <anchor x="121" y="724" name="top"/>
  <outline>
    <contour>
      <point x="34" y="596" type="line"/>
      <point x="230" y="646" type="line"/>
      <point x="219" y="714" type="line"/>
      <point x="24" y="663" type="line"/>
    </contour>
  </outline>
</glyph>
<glyph name="damma-ar" format="2">
  <unicode hex="064F"/>
  <anchor x="128" y="587" name="_top"/>
  <anchor x="128" y="550" name="_top.dot"/>
  <anchor x="136" y="876" name="top"/>
  <outline>
    <contour>
      <point x="34" y="599" type="line"/>
      <point x="161" y="609"/>
      <point x="234" y="674"/>
      <point x="234" y="761" type="curve" smooth="yes"/>
      <point x="234" y="813"/>
      <point x="208" y="860"/>
      <point x="156" y="860" type="curve" smooth="yes"/>
      <point x="110" y="860"/>
      <point x="74" y="822"/>
      <point x="74" y="766" type="curve" smooth="yes"/>
      <point x="74" y="718"/>
      <point x="98" y="685"/>
      <point x="129" y="669" type="curve"/>
      <point x="167" y="709" type="line"/>
      <point x="146" y="717"/>
      <point x="130" y="738"/>
      <point x="130" y="761" type="curve" smooth="yes"/>
      <point x="130" y="781"/>
      <point x="142" y="793"/>
      <point x="156" y="793" type="curve" smooth="yes"/>
      <point x="170" y="793"/>
      <point x="178" y="778"/>
      <point x="178" y="757" type="curve" smooth="yes"/>
      <point x="178" y="710"/>
      <point x="127" y="676"/>
      <point x="24" y="664" type="curve"/>
    </contour>
  </outline>
</glyph>
<glyph name="shadda-ar" format="2">
  <unicode hex="0651"/>
  <guideline x="0" y="619" angle="90"/>
  <anchor x="149" y="590" name="_top"/>
  <anchor x="145" y="818" name="top"/>
  <outline>
    <contour>
      <point x="84" y="604" type="curve" smooth="yes"/>
      <point x="116" y="604"/>
      <point x="149" y="638"/>
      <point x="149" y="704" type="curve"/>
      <point x="130" y="713" type="line"/>
      <point x="130" y="662"/>
      <point x="158" y="637"/>
      <point x="183" y="637" type="curve" smooth="yes"/>
      <point x="234" y="637"/>
      <point x="254" y="682"/>
      <point x="254" y="743" type="curve" smooth="yes"/>
      <point x="254" y="770"/>
      <point x="246" y="806"/>
      <point x="236" y="832" type="curve"/>
      <point x="186" y="814" type="line"/>
      <point x="190" y="791"/>
      <point x="193" y="771"/>
      <point x="193" y="748" type="curve" smooth="yes"/>
      <point x="193" y="727"/>
      <point x="190" y="715"/>
      <point x="177" y="715" type="curve" smooth="yes"/>
      <point x="166" y="715"/>
      <point x="162" y="721"/>
      <point x="162" y="744" type="curve" smooth="yes"/>
      <point x="162" y="805" type="line"/>
      <point x="114" y="787" type="line"/>
      <point x="114" y="757" type="line" smooth="yes"/>
      <point x="114" y="698"/>
      <point x="107" y="686"/>
      <point x="95" y="686" type="curve" smooth="yes"/>
      <point x="86" y="686"/>
      <point x="82" y="691"/>
      <point x="82" y="716" type="curve" smooth="yes"/>
      <point x="82" y="733"/>
      <point x="85" y="753"/>
      <point x="86" y="773" type="curve"/>
      <point x="29" y="759" type="line"/>
      <point x="26" y="737"/>
      <point x="24" y="722"/>
      <point x="24" y="707" type="curve" smooth="yes"/>
      <point x="24" y="650"/>
      <point x="34" y="604"/>
    </contour>
  </outline>
</glyph>
<glyph name="madda-ar" format="2">
  <unicode hex="0653"/>
  <anchor x="142" y="587" name="_top"/>
  <anchor x="142" y="550" name="_top.dot"/>
  <anchor x="150" y="738" name="top"/>
  <outline>
    <contour>
      <point x="190" y="609" type="curve" smooth="yes"/>
      <point x="225" y="609"/>
      <point x="258" y="636"/>
      <point x="286" y="675" type="curve"/>
      <point x="250" y="736" type="line"/>
      <point x="230" y="714"/>
      <point x="212" y="697"/>
      <point x="189" y="697" type="curve" smooth="yes"/>
      <point x="153" y="697"/>
      <point x="130" y="735"/>
      <point x="90" y="735" type="curve" smooth="yes"/>
      <point x="57" y="735"/>
      <point x="29" y="706"/>
      <point x="6" y="667" type="curve"/>
      <point x="40" y="611" type="line"/>
      <point x="58" y="633"/>
      <point x="73" y="648"/>
      <point x="93" y="648" type="curve" smooth="yes"/>
      <point x="119" y="648"/>
      <point x="148" y="609"/>
    </contour>
  </outline>
</glyph>
<glyph name="noonghunnaabove-ar" format="2">
  <unicode hex="0658"/>
  <anchor x="115" y="587" name="_top"/>
  <anchor x="121" y="820" name="top"/>
  <outline>
    <contour>
      <point x="114" y="600" type="curve" smooth="yes"/>
      <point x="193" y="600"/>
      <point x="228" y="662"/>
      <point x="228" y="737" type="curve" smooth="yes"/>
      <point x="228" y="774"/>
      <point x="223" y="801"/>
      <point x="218" y="826" type="curve"/>
      <point x="163" y="814" type="line"/>
      <point x="167" y="789"/>
      <point x="171" y="762"/>
      <point x="171" y="733" type="curve" smooth="yes"/>
      <point x="171" y="689"/>
      <point x="154" y="670"/>
      <point x="119" y="670" type="curve" smooth="yes"/>
      <point x="85" y="670"/>
      <point x="68" y="686"/>
      <point x="68" y="727" type="curve" smooth="yes"/>
      <point x="68" y="745"/>
      <point x="70" y="767"/>
      <point x="73" y="785" type="curve"/>
      <point x="23" y="794" type="line"/>
      <point x="18" y="771"/>
      <point x="14" y="743"/>
      <point x="14" y="715" type="curve" smooth="yes"/>
      <point x="14" y="642"/>
      <point x="48" y="600"/>
    </contour>
  </outline>
</glyph>
<glyph name="fathaHorizont-ar" format="2">
  <unicode hex="0659"/>
  <anchor x="130" y="587" name="_top"/>
  <anchor x="127" y="740" name="top"/>
  <outline>
    <contour>
      <point x="24" y="633" type="line"/>
      <point x="227" y="633" type="line"/>
      <point x="227" y="697" type="line"/>
      <point x="24" y="696" type="line"/>
    </contour>
  </outline>
</glyph>
<glyph name="fathatwodots-ar" format="2">
  <unicode hex="065E"/>
  <anchor x="132" y="587" name="_top"/>
  <anchor x="138" y="945" name="top"/>
  <outline>
    <contour>
      <point x="32" y="625" type="line"/>
      <point x="229" y="809" type="line"/>
      <point x="229" y="895" type="line"/>
      <point x="32" y="710" type="line"/>
    </contour>
    <contour>
      <point x="186" y="591" type="curve"/>
      <point x="244" y="655" type="line"/>
      <point x="220" y="685"/>
      <point x="206" y="699"/>
      <point x="182" y="721" type="curve"/>
      <point x="125" y="654" type="line"/>
      <point x="151" y="629"/>
      <point x="163" y="615"/>
    </contour>
    <contour>
      <point x="86" y="805" type="curve"/>
      <point x="144" y="869" type="line"/>
      <point x="120" y="899"/>
      <point x="106" y="913"/>
      <point x="82" y="935" type="curve"/>
      <point x="25" y="868" type="line"/>
      <point x="51" y="843"/>
      <point x="63" y="829"/>
    </contour>
  </outline>
</glyph>
<glyph name="zero-ar" format="2">
  <advance width="289"/>
  <unicode hex="0660"/>
  <outline>
    <contour>
      <point x="149" y="99" type="curve"/>
      <point x="249" y="224" type="line"/>
      <point x="218" y="268"/>
      <point x="180" y="316"/>
      <point x="139" y="359" type="curve"/>
      <point x="37" y="233" type="line"/>
      <point x="79" y="186"/>
      <point x="106" y="153"/>
    </contour>
  </outline>
</glyph>
<glyph name="one-ar" format="2">
  <advance width="296"/>
  <unicode hex="0661"/>
  <outline>
    <contour>
      <point x="99" y="-7" type="curve"/>
      <point x="240" y="0" type="line"/>
      <point x="240" y="217"/>
      <point x="222" y="476"/>
      <point x="169" y="692" type="curve"/>
      <point x="28" y="646" type="line"/>
      <point x="76" y="436"/>
      <point x="96" y="197"/>
    </contour>
  </outline>
</glyph>
<glyph name="two-ar" format="2">
  <advance width="446"/>
  <unicode hex="0662"/>
  <outline>
    <contour>
      <point x="113" y="-10" type="curve"/>
      <point x="250" y="0" type="line"/>
      <point x="234" y="227"/>
      <point x="190" y="405"/>
      <point x="190" y="470" type="curve" smooth="yes"/>
      <point x="190" y="511"/>
      <point x="214" y="525"/>
      <point x="286" y="525" type="curve" smooth="yes"/>
      <point x="325" y="525"/>
      <point x="367" y="520"/>
      <point x="399" y="515" type="curve"/>
      <point x="406" y="689" type="line"/>
      <point x="370" y="698"/>
      <point x="332" y="704"/>
      <point x="277" y="704" type="curve" smooth="yes"/>
      <point x="131" y="704"/>
      <point x="43" y="640"/>
      <point x="43" y="511" type="curve" smooth="yes"/>
      <point x="43" y="405"/>
      <point x="90" y="213"/>
    </contour>
  </outline>
</glyph>
<glyph name="three-ar" format="2">
  <advance width="558"/>
  <unicode hex="0663"/>
  <outline>
    <contour>
      <point x="115" y="-7" type="curve"/>
      <point x="246" y="0" type="line"/>
      <point x="244" y="139"/>
      <point x="226" y="411"/>
      <point x="177" y="579" type="curve"/>
      <point x="138" y="446" type="line"/>
      <point x="155" y="413"/>
      <point x="197" y="375"/>
      <point x="229" y="373" type="curve" smooth="yes"/>
      <point x="274" y="370"/>
      <point x="313" y="391"/>
      <point x="333" y="457" type="curve"/>
      <point x="304" y="457" type="line"/>
      <point x="311" y="411"/>
      <point x="339" y="375"/>
      <point x="399" y="373" type="curve" smooth="yes"/>
      <point x="477" y="375"/>
      <point x="525" y="436"/>
      <point x="525" y="551" type="curve" smooth="yes"/>
      <point x="525" y="579"/>
      <point x="518" y="646"/>
      <point x="504" y="704" type="curve"/>
      <point x="403" y="680" type="line"/>
      <point x="409" y="646"/>
      <point x="414" y="611"/>
      <point x="414" y="577" type="curve" smooth="yes"/>
      <point x="414" y="548"/>
      <point x="410" y="531"/>
      <point x="388" y="531" type="curve" smooth="yes"/>
      <point x="372" y="531"/>
      <point x="360" y="539"/>
      <point x="358" y="563" type="curve" smooth="yes"/>
      <point x="354" y="592"/>
      <point x="355" y="626"/>
      <point x="355" y="676" type="curve"/>
      <point x="252" y="677" type="line"/>
      <point x="252" y="612"/>
      <point x="251" y="582"/>
      <point x="248" y="561" type="curve" smooth="yes"/>
      <point x="245" y="541"/>
      <point x="236" y="530"/>
      <point x="220" y="530" type="curve" smooth="yes"/>
      <point x="198" y="530"/>
      <point x="193" y="545"/>
      <point x="186" y="575" type="curve" smooth="yes"/>
      <point x="181" y="600"/>
      <point x="175" y="628"/>
      <point x="161" y="691" type="curve"/>
      <point x="28" y="656" type="line"/>
      <point x="75" y="428"/>
      <point x="101" y="207"/>
    </contour>
  </outline>
</glyph>
<glyph name="four-ar" format="2">
  <advance width="426"/>
  <unicode hex="0664"/>
  <outline>
    <contour>
      <point x="229" y="-10" type="curve" smooth="yes"/>
      <point x="281" y="-10"/>
      <point x="354" y="9"/>
      <point x="394" y="37" type="curve"/>
      <point x="381" y="183" type="line"/>
      <point x="349" y="170"/>
      <point x="298" y="156"/>
      <point x="254" y="156" type="curve" smooth="yes"/>
      <point x="217" y="156"/>
      <point x="189" y="166"/>
      <point x="189" y="197" type="curve" smooth="yes"/>
      <point x="189" y="229"/>
      <point x="222" y="256"/>
      <point x="308" y="284" type="curve"/>
      <point x="301" y="416" type="line"/>
      <point x="207" y="411"/>
      <point x="177" y="432"/>
      <point x="177" y="458" type="curve" smooth="yes"/>
      <point x="177" y="489"/>
      <point x="205" y="517"/>
      <point x="323" y="538" type="curve"/>
      <point x="311" y="696" type="line"/>
      <point x="114" y="642"/>
      <point x="48" y="546"/>
      <point x="48" y="449" type="curve" smooth="yes"/>
      <point x="48" y="369"/>
      <point x="104" y="315"/>
      <point x="197" y="298" type="curve"/>
      <point x="196" y="348" type="line"/>
      <point x="106" y="296"/>
      <point x="43" y="231"/>
      <point x="43" y="143" type="curve" smooth="yes"/>
      <point x="43" y="54"/>
      <point x="89" y="-10"/>
    </contour>
  </outline>
</glyph>
<glyph name="five-ar" format="2">
  <advance width="438"/>
  <unicode hex="0665"/>
  <outline>
    <contour>
      <point x="216" y="0" type="curve" smooth="yes"/>
      <point x="330" y="0"/>
      <point x="406" y="74"/>
      <point x="406" y="252" type="curve" smooth="yes"/>
      <point x="406" y="422"/>
      <point x="339" y="567"/>
      <point x="226" y="567" type="curve" smooth="yes"/>
      <point x="111" y="567"/>
      <point x="32" y="420"/>
      <point x="32" y="239" type="curve" smooth="yes"/>
      <point x="32" y="73"/>
      <point x="100" y="0"/>
    </contour>
    <contour>
      <point x="217" y="164" type="curve" smooth="yes"/>
      <point x="177" y="164"/>
      <point x="152" y="185"/>
      <point x="152" y="256" type="curve" smooth="yes"/>
      <point x="152" y="337"/>
      <point x="178" y="403"/>
      <point x="222" y="403" type="curve" smooth="yes"/>
      <point x="262" y="403"/>
      <point x="283" y="344"/>
      <point x="283" y="255" type="curve" smooth="yes"/>
      <point x="283" y="180"/>
      <point x="254" y="164"/>
    </contour>
  </outline>
</glyph>
<glyph name="six-ar" format="2">
  <advance width="446"/>
  <unicode hex="0666"/>
  <outline>
    <contour>
      <point x="263" y="-10" type="curve"/>
      <point x="406" y="4" type="line"/>
      <point x="380" y="205"/>
      <point x="353" y="488"/>
      <point x="343" y="683" type="curve"/>
      <point x="289" y="677"/>
      <point x="248" y="676"/>
      <point x="200" y="676" type="curve" smooth="yes"/>
      <point x="134" y="676"/>
      <point x="76" y="681"/>
      <point x="24" y="689" type="curve"/>
      <point x="20" y="523" type="line"/>
      <point x="75" y="513"/>
      <point x="124" y="511"/>
      <point x="172" y="511" type="curve" smooth="yes"/>
      <point x="215" y="511"/>
      <point x="252" y="515"/>
      <point x="282" y="521" type="curve"/>
      <point x="226" y="552" type="line"/>
      <point x="229" y="384"/>
      <point x="241" y="182"/>
    </contour>
  </outline>
</glyph>
<glyph name="seven-ar" format="2">
  <advance width="516"/>
  <unicode hex="0667"/>
  <outline>
    <contour>
      <point x="197" y="-10" type="curve"/>
      <point x="330" y="-2" type="line"/>
      <point x="382" y="217"/>
      <point x="453" y="483"/>
      <point x="503" y="657" type="curve"/>
      <point x="381" y="699" type="line"/>
      <point x="333" y="523"/>
      <point x="273" y="283"/>
      <point x="249" y="91" type="curve"/>
      <point x="283" y="91" type="line"/>
      <point x="258" y="278"/>
      <point x="194" y="527"/>
      <point x="137" y="699" type="curve"/>
      <point x="13" y="656" type="line"/>
      <point x="77" y="465"/>
      <point x="154" y="205"/>
    </contour>
  </outline>
</glyph>
<glyph name="nine-ar" format="2">
  <advance width="458"/>
  <unicode hex="0669"/>
  <outline>
    <contour>
      <point x="298" y="0" type="curve"/>
      <point x="432" y="21" type="line"/>
      <point x="418" y="159"/>
      <point x="406" y="274"/>
      <point x="393" y="407" type="curve" smooth="yes"/>
      <point x="374" y="598"/>
      <point x="325" y="702"/>
      <point x="206" y="702" type="curve" smooth="yes"/>
      <point x="94" y="702"/>
      <point x="12" y="577"/>
      <point x="12" y="431" type="curve" smooth="yes"/>
      <point x="12" y="293"/>
      <point x="71" y="231"/>
      <point x="183" y="231" type="curve" smooth="yes"/>
      <point x="226" y="231"/>
      <point x="268" y="241"/>
      <point x="307" y="262" type="curve"/>
      <point x="286" y="420" type="line"/>
      <point x="262" y="406"/>
      <point x="231" y="396"/>
      <point x="203" y="396" type="curve" smooth="yes"/>
      <point x="163" y="396"/>
      <point x="144" y="412"/>
      <point x="144" y="458" type="curve" smooth="yes"/>
      <point x="144" y="498"/>
      <point x="163" y="536"/>
      <point x="199" y="536" type="curve" smooth="yes"/>
      <point x="239" y="536"/>
      <point x="253" y="490"/>
      <point x="259" y="395" type="curve" smooth="yes"/>
      <point x="269" y="258"/>
      <point x="283" y="122"/>
    </contour>
  </outline>
</glyph>
<glyph name="percent-ar" format="2">
  <advance width="467"/>
  <unicode hex="066A"/>
  <outline>
    <contour>
      <point x="158" y="-39" type="line"/>
      <point x="414" y="645" type="line"/>
      <point x="305" y="704" type="line"/>
      <point x="51" y="17" type="line"/>
    </contour>
    <contour>
      <point x="370" y="-24" type="curve"/>
      <point x="451" y="77" type="line"/>
      <point x="426" y="115"/>
      <point x="393" y="158"/>
      <point x="357" y="193" type="curve"/>
      <point x="278" y="87" type="line"/>
      <point x="314" y="49"/>
      <point x="334" y="22"/>
    </contour>
    <contour>
      <point x="117" y="484" type="curve"/>
      <point x="198" y="585" type="line"/>
      <point x="173" y="623"/>
      <point x="139" y="666"/>
      <point x="103" y="701" type="curve"/>
      <point x="24" y="595" type="line"/>
      <point x="61" y="557"/>
      <point x="81" y="530"/>
    </contour>
  </outline>
</glyph>
<glyph name="thousandseparator-ar" format="2">
  <advance width="220"/>
  <unicode hex="066C"/>
  <outline>
    <contour>
      <point x="113" y="0" type="curve" smooth="yes"/>
      <point x="150" y="0"/>
      <point x="180" y="31"/>
      <point x="180" y="71" type="curve" smooth="yes"/>
      <point x="180" y="99"/>
      <point x="170" y="115"/>
      <point x="153" y="135" type="curve" smooth="yes"/>
      <point x="137" y="155"/>
      <point x="132" y="169"/>
      <point x="132" y="188" type="curve" smooth="yes"/>
      <point x="132" y="218"/>
      <point x="149" y="251"/>
      <point x="184" y="298" type="curve"/>
      <point x="132" y="346" type="line"/>
      <point x="69" y="282"/>
      <point x="32" y="198"/>
      <point x="32" y="124" type="curve" smooth="yes"/>
      <point x="32" y="49"/>
      <point x="62" y="0"/>
    </contour>
  </outline>
</glyph>
<glyph name="asterisk-ar" format="2">
  <advance width="398"/>
  <unicode hex="066D"/>
  <outline>
    <contour>
      <point x="73" y="0" type="line"/>
      <point x="199" y="109" type="line"/>
      <point x="327" y="-1" type="line"/>
      <point x="331" y="3" type="line"/>
      <point x="282" y="181" type="line"/>
      <point x="390" y="279" type="line"/>
      <point x="389" y="287" type="line"/>
      <point x="251" y="287" type="line"/>
      <point x="202" y="458" type="line"/>
      <point x="197" y="458" type="line"/>
      <point x="146" y="287" type="line"/>
      <point x="10" y="287" type="line"/>
      <point x="8" y="279" type="line"/>
      <point x="115" y="182" type="line"/>
      <point x="68" y="4" type="line"/>
    </contour>
  </outline>
</glyph>
<glyph name="dotlessbeh-ar" format="2">
  <advance width="822"/>
  <unicode hex="066E"/>
  <anchor x="406" y="-111" name="bottom"/>
  <anchor x="406" y="-20" name="bottom.dot"/>
  <anchor x="410" y="518" name="top"/>
  <anchor x="410" y="329" name="top.dot"/>
  <outline>
    <contour>
      <point x="358" y="-15" type="line"/>
      <point x="674" y="-15"/>
      <point x="782" y="84"/>
      <point x="782" y="264" type="curve" smooth="yes"/>
      <point x="782" y="342"/>
      <point x="767" y="410"/>
      <point x="746" y="474" type="curve"/>
      <point x="607" y="434" type="line"/>
      <point x="624" y="377"/>
      <point x="636" y="334"/>
      <point x="636" y="284" type="curve" smooth="yes"/>
      <point x="636" y="205"/>
      <point x="587" y="165"/>
      <point x="379" y="165" type="curve"/>
    </contour>
    <component base="_part.beh.fina" xOffset="5"/>
  </outline>
</glyph>
<glyph name="dotlessqaf-ar" format="2">
  <advance width="684"/>
  <unicode hex="066F"/>
  <anchor x="318" y="-309" name="bottom"/>
  <anchor x="318" y="-249" name="bottom.dot"/>
  <anchor x="318" y="619" name="top"/>
  <anchor x="452" y="420" name="top.dot"/>
  <outline>
    <contour>
      <point x="326" y="-264" type="curve" smooth="yes"/>
      <point x="538" y="-264"/>
      <point x="648" y="-167"/>
      <point x="648" y="83" type="curve" smooth="yes"/>
      <point x="648" y="319"/>
      <point x="570" y="442"/>
      <point x="464" y="442" type="curve" smooth="yes"/>
      <point x="362" y="442"/>
      <point x="295" y="330"/>
      <point x="295" y="196" type="curve" smooth="yes"/>
      <point x="295" y="64"/>
      <point x="341" y="-1"/>
      <point x="458" y="-1" type="curve" smooth="yes"/>
      <point x="505" y="-1"/>
      <point x="560" y="13"/>
      <point x="589" y="35" type="curve"/>
      <point x="578" y="175" type="line"/>
      <point x="536" y="158"/>
      <point x="513" y="151"/>
      <point x="481" y="151" type="curve" smooth="yes"/>
      <point x="426" y="151"/>
      <point x="406" y="165"/>
      <point x="406" y="205" type="curve" smooth="yes"/>
      <point x="406" y="246"/>
      <point x="426" y="281"/>
      <point x="460" y="281" type="curve" smooth="yes"/>
      <point x="498" y="281"/>
      <point x="532" y="238"/>
      <point x="532" y="74" type="curve" smooth="yes"/>
      <point x="532" y="-47"/>
      <point x="508" y="-86"/>
      <point x="347" y="-86" type="curve" smooth="yes"/>
      <point x="218" y="-86"/>
      <point x="161" y="-57"/>
      <point x="161" y="51" type="curve" smooth="yes"/>
      <point x="161" y="110"/>
      <point x="167" y="157"/>
      <point x="180" y="226" type="curve"/>
      <point x="79" y="253" type="line"/>
      <point x="50" y="176"/>
      <point x="35" y="79"/>
      <point x="35" y="3" type="curve" smooth="yes"/>
      <point x="35" y="-178"/>
      <point x="132" y="-264"/>
    </contour>
  </outline>
</glyph>
<glyph name="dotlessfeh-ar" format="2">
  <advance width="853"/>
  <unicode hex="06A1"/>
  <anchor x="410" y="-111" name="bottom"/>
  <anchor x="614" y="-20" name="bottom.dot"/>
  <anchor x="310" y="621" name="top"/>
  <anchor x="616" y="595" name="top.dot"/>
  <outline>
    <contour>
      <point x="360" y="-15" type="line"/>
      <point x="555" y="-15"/>
      <point x="664" y="6"/>
      <point x="720" y="44" type="curve" smooth="yes"/>
      <point x="783" y="87"/>
      <point x="813" y="156"/>
      <point x="813" y="286" type="curve" smooth="yes"/>
      <point x="813" y="480"/>
      <point x="742" y="607"/>
      <point x="626" y="607" type="curve" smooth="yes"/>
      <point x="524" y="607"/>
      <point x="456" y="501"/>
      <point x="456" y="380" type="curve" smooth="yes"/>
      <point x="456" y="264"/>
      <point x="509" y="215"/>
      <point x="607" y="215" type="curve" smooth="yes"/>
      <point x="659" y="215"/>
      <point x="714" y="232"/>
      <point x="742" y="259" type="curve"/>
      <point x="733" y="371" type="line"/>
      <point x="697" y="350"/>
      <point x="660" y="340"/>
      <point x="624" y="340" type="curve" smooth="yes"/>
      <point x="589" y="340"/>
      <point x="567" y="349"/>
      <point x="567" y="389" type="curve" smooth="yes"/>
      <point x="567" y="428"/>
      <point x="587" y="454"/>
      <point x="619" y="454" type="curve" smooth="yes"/>
      <point x="668" y="454"/>
      <point x="697" y="398"/>
      <point x="697" y="284" type="curve" smooth="yes"/>
      <point x="697" y="220"/>
      <point x="695" y="208"/>
      <point x="678" y="193" type="curve" smooth="yes"/>
      <point x="651" y="168"/>
      <point x="530" y="165"/>
      <point x="381" y="165" type="curve"/>
    </contour>
    <component base="_part.beh.fina" xOffset="5"/>
  </outline>
</glyph>
<glyph name="keheh-ar" format="2">
  <advance width="764"/>
  <unicode hex="06A9"/>
  <anchor x="336" y="-111" name="bottom"/>
  <anchor x="336" y="-20" name="bottom.dot"/>
  <anchor x="622" y="579" name="center"/>
  <anchor x="244" y="619" name="top"/>
  <anchor x="487" y="612" name="top.dot"/>
  <outline>
    <contour>
      <point x="360" y="-15" type="line"/>
      <point x="573" y="-15"/>
      <point x="671" y="53"/>
      <point x="671" y="217" type="curve" smooth="yes"/>
      <point x="671" y="321"/>
      <point x="602" y="418"/>
      <point x="459" y="530" type="curve"/>
      <point x="429" y="440" type="line"/>
      <point x="748" y="586" type="line"/>
      <point x="747" y="764" type="line"/>
      <point x="377" y="564" type="line"/>
      <point x="354" y="418" type="line"/>
      <point x="489" y="321"/>
      <point x="535" y="262"/>
      <point x="535" y="219" type="curve" smooth="yes"/>
      <point x="535" y="184"/>
      <point x="502" y="165"/>
      <point x="368" y="165" type="curve"/>
    </contour>
    <component base="_part.beh.fina" xOffset="5"/>
  </outline>
</glyph>
<glyph name="noonghunna-ar" format="2">
  <advance width="590"/>
  <unicode hex="06BA"/>
  <anchor x="274" y="-274" name="bottom"/>
  <anchor x="275" y="-214" name="bottom.dot"/>
  <anchor x="290" y="280" name="top.dot"/>
  <outline>
    <contour>
      <point x="262" y="-232" type="curve" smooth="yes"/>
      <point x="430" y="-232"/>
      <point x="554" y="-127"/>
      <point x="554" y="113" type="curve" smooth="yes"/>
      <point x="554" y="229"/>
      <point x="542" y="270"/>
      <point x="526" y="340" type="curve"/>
      <point x="404" y="316" type="line"/>
      <point x="416" y="235"/>
      <point x="423" y="177"/>
      <point x="423" y="108" type="curve" smooth="yes"/>
      <point x="423" y="-10"/>
      <point x="370" y="-52"/>
      <point x="276" y="-52" type="curve" smooth="yes"/>
      <point x="203" y="-52"/>
      <point x="161" y="-27"/>
      <point x="161" y="71" type="curve" smooth="yes"/>
      <point x="161" y="123"/>
      <point x="167" y="167"/>
      <point x="180" y="236" type="curve"/>
      <point x="79" y="263" type="line"/>
      <point x="48" y="176"/>
      <point x="35" y="99"/>
      <point x="35" y="33" type="curve" smooth="yes"/>
      <point x="35" y="-148"/>
      <point x="124" y="-232"/>
    </contour>
  </outline>
</glyph>
<glyph name="hehDoachashmee-ar" format="2">
  <advance width="664"/>
  <unicode hex="06BE"/>
  <anchor x="332" y="-111" name="bottom"/>
  <anchor x="332" y="659" name="top"/>
  <anchor x="332" y="604" name="top.dot"/>
  <outline>
    <contour>
      <point x="138" y="-10" type="curve" smooth="yes"/>
      <point x="212" y="-10"/>
      <point x="283" y="13"/>
      <point x="339" y="55" type="curve" smooth="yes"/>
      <point x="407" y="106"/>
      <point x="455" y="186"/>
      <point x="455" y="286" type="curve" smooth="yes"/>
      <point x="455" y="406"/>
      <point x="394" y="494"/>
      <point x="305" y="494" type="curve" smooth="yes"/>
      <point x="228" y="494"/>
      <point x="155" y="393"/>
      <point x="155" y="278" type="curve" smooth="yes"/>
      <point x="155" y="94"/>
      <point x="310" y="-10"/>
      <point x="443" y="-10" type="curve" smooth="yes"/>
      <point x="569" y="-10"/>
      <point x="628" y="67"/>
      <point x="628" y="196" type="curve" smooth="yes"/>
      <point x="628" y="371"/>
      <point x="489" y="486"/>
      <point x="241" y="597" type="curve"/>
      <point x="186" y="458" type="line"/>
      <point x="444" y="331"/>
      <point x="512" y="277"/>
      <point x="512" y="210" type="curve" smooth="yes"/>
      <point x="512" y="176"/>
      <point x="490" y="157"/>
      <point x="449" y="157" type="curve" smooth="yes"/>
      <point x="351" y="157"/>
      <point x="254" y="195"/>
      <point x="254" y="292" type="curve" smooth="yes"/>
      <point x="254" y="336"/>
      <point x="277" y="368"/>
      <point x="307" y="368" type="curve" smooth="yes"/>
      <point x="339" y="368"/>
      <point x="360" y="337"/>
      <point x="360" y="297" type="curve" smooth="yes"/>
      <point x="360" y="235"/>
      <point x="329" y="201"/>
      <point x="269" y="184" type="curve" smooth="yes"/>
      <point x="234" y="174"/>
      <point x="188" y="170"/>
      <point x="142" y="170" type="curve" smooth="yes"/>
      <point x="122" y="170"/>
      <point x="74" y="173"/>
      <point x="37" y="178" type="curve"/>
      <point x="24" y="14" type="line"/>
      <point x="59" y="-2"/>
      <point x="94" y="-10"/>
    </contour>
  </outline>
</glyph>
<glyph name="yehbarree-ar" format="2">
  <advance width="770"/>
  <unicode hex="06D2"/>
  <anchor x="341" y="-111" name="bottom"/>
  <anchor x="347" y="622" name="top"/>
  <anchor x="346" y="558" name="top_1"/>
  <outline>
    <contour>
      <point x="383" y="-21" type="curve" smooth="yes"/>
      <point x="512" y="-21"/>
      <point x="657" y="-2"/>
      <point x="730" y="17" type="curve"/>
      <point x="742" y="191" type="line"/>
      <point x="672" y="179"/>
      <point x="538" y="159"/>
      <point x="386" y="159" type="curve" smooth="yes"/>
      <point x="222" y="159"/>
      <point x="178" y="162"/>
      <point x="178" y="196" type="curve" smooth="yes"/>
      <point x="178" y="222"/>
      <point x="214" y="239"/>
      <point x="251" y="285" type="curve" smooth="yes"/>
      <point x="288" y="331"/>
      <point x="304" y="359"/>
      <point x="332" y="359" type="curve" smooth="yes"/>
      <point x="365" y="359"/>
      <point x="380" y="323"/>
      <point x="406" y="252" type="curve"/>
      <point x="516" y="292" type="line"/>
      <point x="474" y="461"/>
      <point x="428" y="534"/>
      <point x="349" y="534" type="curve" smooth="yes"/>
      <point x="270" y="534"/>
      <point x="225" y="443"/>
      <point x="155" y="365" type="curve" smooth="yes"/>
      <point x="95" y="299"/>
      <point x="26" y="248"/>
      <point x="26" y="151" type="curve" smooth="yes"/>
      <point x="26" y="9"/>
      <point x="159" y="-21"/>
    </contour>
  </outline>
</glyph>
<glyph name="fullstop-ar" format="2">
  <advance width="273"/>
  <unicode hex="06D4"/>
  <outline>
    <contour>
      <point x="24" y="0" type="line"/>
      <point x="240" y="0" type="line"/>
      <point x="249" y="97" type="line"/>
      <point x="33" y="97" type="line"/>
    </contour>
  </outline>
</glyph>
<glyph name="threedotsabove-ar" format="2">
  <unicode hex="06DB"/>
  <anchor x="126" y="550" name="_top.dot"/>
  <anchor x="126" y="896" name="top"/>
  <outline>
    <contour>
      <point x="67" y="612" type="curve"/>
      <point x="126" y="680" type="line"/>
      <point x="101" y="712"/>
      <point x="87" y="726"/>
      <point x="63" y="750" type="curve"/>
      <point x="4" y="679" type="line"/>
      <point x="31" y="652"/>
      <point x="43" y="638"/>
    </contour>
    <contour>
      <point x="191" y="612" type="curve"/>
      <point x="251" y="680" type="line"/>
      <point x="226" y="712"/>
      <point x="212" y="726"/>
      <point x="187" y="750" type="curve"/>
      <point x="128" y="679" type="line"/>
      <point x="155" y="652"/>
      <point x="167" y="638"/>
    </contour>
    <contour>
      <point x="127" y="749" type="curve"/>
      <point x="185" y="814" type="line"/>
      <point x="160" y="845"/>
      <point x="147" y="858"/>
      <point x="124" y="881" type="curve"/>
      <point x="67" y="813" type="line"/>
      <point x="94" y="787"/>
      <point x="105" y="774"/>
    </contour>
  </outline>
</glyph>
<glyph name="seenabove-ar" format="2">
  <unicode hex="06DC"/>
  <anchor x="207" y="590" name="_top"/>
  <anchor x="204" y="873" name="top"/>
  <outline>
    <contour>
      <point x="106" y="620" type="curve" smooth="yes"/>
      <point x="162" y="620"/>
      <point x="214" y="657"/>
      <point x="208" y="741" type="curve"/>
      <point x="190" y="739" type="line"/>
      <point x="198" y="707"/>
      <point x="218" y="698"/>
      <point x="236" y="698" type="curve" smooth="yes"/>
      <point x="259" y="698"/>
      <point x="278" y="710"/>
      <point x="284" y="751" type="curve"/>
      <point x="270" y="751" type="line"/>
      <point x="275" y="711"/>
      <point x="297" y="698"/>
      <point x="318" y="698" type="curve" smooth="yes"/>
      <point x="359" y="698"/>
      <point x="378" y="733"/>
      <point x="378" y="784" type="curve" smooth="yes"/>
      <point x="378" y="806"/>
      <point x="375" y="832"/>
      <point x="365" y="863" type="curve"/>
      <point x="322" y="851" type="line"/>
      <point x="327" y="828"/>
      <point x="330" y="814"/>
      <point x="330" y="795" type="curve" smooth="yes"/>
      <point x="330" y="776"/>
      <point x="326" y="768"/>
      <point x="314" y="768" type="curve" smooth="yes"/>
      <point x="304" y="768"/>
      <point x="298" y="772"/>
      <point x="296" y="790" type="curve" smooth="yes"/>
      <point x="294" y="803"/>
      <point x="294" y="809"/>
      <point x="294" y="837" type="curve"/>
      <point x="250" y="833" type="line"/>
      <point x="250" y="807"/>
      <point x="250" y="797"/>
      <point x="248" y="786" type="curve" smooth="yes"/>
      <point x="245" y="772"/>
      <point x="240" y="768"/>
      <point x="230" y="768" type="curve" smooth="yes"/>
      <point x="222" y="768"/>
      <point x="214" y="771"/>
      <point x="210" y="781" type="curve" smooth="yes"/>
      <point x="206" y="793"/>
      <point x="204" y="806"/>
      <point x="199" y="834" type="curve"/>
      <point x="151" y="820" type="line"/>
      <point x="156" y="792"/>
      <point x="160" y="765"/>
      <point x="160" y="740" type="curve" smooth="yes"/>
      <point x="160" y="704"/>
      <point x="146" y="689"/>
      <point x="110" y="689" type="curve" smooth="yes"/>
      <point x="85" y="689"/>
      <point x="74" y="700"/>
      <point x="74" y="727" type="curve" smooth="yes"/>
      <point x="74" y="745"/>
      <point x="77" y="761"/>
      <point x="82" y="785" type="curve"/>
      <point x="39" y="795" type="line"/>
      <point x="29" y="765"/>
      <point x="24" y="737"/>
      <point x="24" y="713" type="curve" smooth="yes"/>
      <point x="24" y="649"/>
      <point x="57" y="620"/>
    </contour>
  </outline>
</glyph>
<glyph name="sukunoval-ar" format="2">
  <unicode hex="06E0"/>
  <anchor x="110" y="590" name="_top"/>
  <anchor x="110" y="892" name="top"/>
  <outline>
    <contour>
      <point x="109" y="618" type="curve" smooth="yes"/>
      <point x="158" y="618"/>
      <point x="191" y="657"/>
      <point x="191" y="753" type="curve" smooth="yes"/>
      <point x="191" y="838"/>
      <point x="161" y="875"/>
      <point x="109" y="875" type="curve" smooth="yes"/>
      <point x="58" y="875"/>
      <point x="24" y="832"/>
      <point x="24" y="747" type="curve" smooth="yes"/>
      <point x="24" y="657"/>
      <point x="57" y="618"/>
    </contour>
    <contour>
      <point x="107" y="662" type="curve" smooth="yes"/>
      <point x="86" y="662"/>
      <point x="77" y="680"/>
      <point x="77" y="753" type="curve" smooth="yes"/>
      <point x="77" y="812"/>
      <point x="85" y="831"/>
      <point x="107" y="831" type="curve" smooth="yes"/>
      <point x="127" y="831"/>
      <point x="137" y="815"/>
      <point x="137" y="754" type="curve" smooth="yes"/>
      <point x="137" y="679"/>
      <point x="126" y="662"/>
    </contour>
  </outline>
</glyph>
<glyph name="hahabove-ar" format="2">
  <unicode hex="06E1"/>
  <anchor x="113" y="590" name="_top"/>
  <anchor x="126" y="830" name="top"/>
  <outline>
    <contour>
      <point x="54" y="621" type="line"/>
      <point x="127" y="621"/>
      <point x="174" y="654"/>
      <point x="211" y="713" type="curve"/>
      <point x="211" y="771" type="line"/>
      <point x="181" y="788"/>
      <point x="160" y="810"/>
      <point x="123" y="810" type="curve" smooth="yes"/>
      <point x="92" y="810"/>
      <point x="66" y="796"/>
      <point x="45" y="777" type="curve"/>
      <point x="62" y="724" type="line"/>
      <point x="79" y="736"/>
      <point x="96" y="744"/>
      <point x="118" y="744" type="curve" smooth="yes"/>
      <point x="138" y="744"/>
      <point x="153" y="736"/>
      <point x="180" y="718" type="curve"/>
      <point x="179" y="750" type="line"/>
      <point x="148" y="699"/>
      <point x="113" y="680"/>
      <point x="45" y="677" type="curve"/>
    </contour>
  </outline>
</glyph>
<glyph name="meemStopabove-ar" format="2">
  <unicode hex="06E2"/>
  <anchor x="100" y="550" name="_top.dot"/>
  <anchor x="100" y="886" name="top"/>
  <outline>
    <contour>
      <point x="34" y="619" type="curve"/>
      <point x="81" y="621" type="line"/>
      <point x="79" y="646"/>
      <point x="78" y="658"/>
      <point x="78" y="675" type="curve" smooth="yes"/>
      <point x="78" y="704"/>
      <point x="86" y="716"/>
      <point x="114" y="716" type="curve" smooth="yes"/>
      <point x="130" y="716"/>
      <point x="150" y="712"/>
      <point x="165" y="709" type="curve"/>
      <point x="178" y="764" type="line"/>
      <point x="164" y="834"/>
      <point x="140" y="872"/>
      <point x="103" y="872" type="curve" smooth="yes"/>
      <point x="77" y="872"/>
      <point x="54" y="850"/>
      <point x="43" y="808" type="curve"/>
      <point x="77" y="787" type="line"/>
      <point x="83" y="803"/>
      <point x="91" y="809"/>
      <point x="100" y="809" type="curve" smooth="yes"/>
      <point x="114" y="809"/>
      <point x="123" y="794"/>
      <point x="133" y="758" type="curve"/>
      <point x="151" y="769" type="line"/>
      <point x="141" y="771"/>
      <point x="118" y="774"/>
      <point x="102" y="774" type="curve" smooth="yes"/>
      <point x="52" y="774"/>
      <point x="31" y="742"/>
      <point x="31" y="687" type="curve" smooth="yes"/>
      <point x="31" y="658"/>
      <point x="33" y="646"/>
    </contour>
  </outline>
</glyph>
<glyph name="maddalong-ar" format="2">
  <unicode hex="06E4"/>
  <anchor x="161" y="550" name="_top"/>
  <anchor x="182" y="771" name="top"/>
  <outline>
    <contour>
      <point x="229" y="635" type="curve" smooth="yes"/>
      <point x="254" y="635"/>
      <point x="289" y="642"/>
      <point x="321" y="684" type="curve"/>
      <point x="294" y="751" type="line"/>
      <point x="274" y="736"/>
      <point x="250" y="728"/>
      <point x="234" y="728" type="curve" smooth="yes"/>
      <point x="174" y="728"/>
      <point x="155" y="768"/>
      <point x="100" y="768" type="curve" smooth="yes"/>
      <point x="64" y="768"/>
      <point x="34" y="749"/>
      <point x="2" y="700" type="curve"/>
      <point x="41" y="641" type="line"/>
      <point x="58" y="662"/>
      <point x="79" y="676"/>
      <point x="98" y="676" type="curve" smooth="yes"/>
      <point x="139" y="676"/>
      <point x="162" y="635"/>
    </contour>
  </outline>
</glyph>
<glyph name="yehabove-ar" format="2">
  <unicode hex="06E7"/>
  <anchor x="140" y="590" name="_top"/>
  <anchor x="144" y="829" name="top"/>
  <outline>
    <contour>
      <point x="134" y="614" type="curve" smooth="yes"/>
      <point x="198" y="614"/>
      <point x="242" y="626"/>
      <point x="259" y="631" type="curve"/>
      <point x="260" y="689" type="line"/>
      <point x="242" y="685"/>
      <point x="184" y="674"/>
      <point x="134" y="674" type="curve" smooth="yes"/>
      <point x="86" y="674"/>
      <point x="70" y="679"/>
      <point x="70" y="691" type="curve" smooth="yes"/>
      <point x="70" y="701"/>
      <point x="81" y="704"/>
      <point x="96" y="721" type="curve" smooth="yes"/>
      <point x="108" y="735"/>
      <point x="115" y="749"/>
      <point x="125" y="749" type="curve" smooth="yes"/>
      <point x="134" y="749"/>
      <point x="139" y="743"/>
      <point x="152" y="711" type="curve"/>
      <point x="195" y="734" type="line"/>
      <point x="178" y="787"/>
      <point x="158" y="814"/>
      <point x="132" y="814" type="curve" smooth="yes"/>
      <point x="107" y="814"/>
      <point x="87" y="787"/>
      <point x="63" y="758" type="curve" smooth="yes"/>
      <point x="46" y="736"/>
      <point x="16" y="717"/>
      <point x="16" y="682" type="curve" smooth="yes"/>
      <point x="16" y="627"/>
      <point x="60" y="614"/>
    </contour>
  </outline>
</glyph>
<glyph name="noonabove-ar" format="2">
  <unicode hex="06E8"/>
  <anchor x="114" y="550" name="_top.dot"/>
  <anchor x="114" y="921" name="top"/>
  <outline>
    <contour>
      <point x="111" y="610" type="curve" smooth="yes"/>
      <point x="174" y="610"/>
      <point x="212" y="651"/>
      <point x="212" y="731" type="curve" smooth="yes"/>
      <point x="212" y="763"/>
      <point x="206" y="790"/>
      <point x="198" y="815" type="curve"/>
      <point x="147" y="796" type="line"/>
      <point x="154" y="768"/>
      <point x="158" y="746"/>
      <point x="158" y="724" type="curve" smooth="yes"/>
      <point x="158" y="691"/>
      <point x="140" y="679"/>
      <point x="115" y="679" type="curve" smooth="yes"/>
      <point x="87" y="679"/>
      <point x="74" y="694"/>
      <point x="74" y="721" type="curve" smooth="yes"/>
      <point x="74" y="737"/>
      <point x="77" y="750"/>
      <point x="82" y="770" type="curve"/>
      <point x="35" y="785" type="line"/>
      <point x="26" y="761"/>
      <point x="22" y="735"/>
      <point x="22" y="708" type="curve" smooth="yes"/>
      <point x="22" y="639"/>
      <point x="59" y="610"/>
    </contour>
    <contour>
      <point x="115" y="817" type="curve"/>
      <point x="150" y="858" type="line"/>
      <point x="136" y="874"/>
      <point x="128" y="884"/>
      <point x="112" y="898" type="curve"/>
      <point x="78" y="857" type="line"/>
      <point x="92" y="841"/>
      <point x="101" y="832"/>
    </contour>
  </outline>
</glyph>
<glyph name="sajdah-ar" format="2">
  <advance width="486"/>
  <unicode hex="06E9"/>
  <outline>
    <contour>
      <point x="50" y="0" type="line"/>
      <point x="434" y="0" type="line"/>
      <point x="434" y="81" type="line"/>
      <point x="398" y="105"/>
      <point x="389" y="123"/>
      <point x="389" y="201" type="curve" smooth="yes"/>
      <point x="389" y="364" type="line"/>
      <point x="438" y="396"/>
      <point x="454" y="430"/>
      <point x="454" y="497" type="curve" smooth="yes"/>
      <point x="454" y="604"/>
      <point x="344" y="657"/>
      <point x="242" y="734" type="curve"/>
      <point x="149" y="660"/>
      <point x="32" y="607"/>
      <point x="32" y="494" type="curve" smooth="yes"/>
      <point x="32" y="427"/>
      <point x="50" y="395"/>
      <point x="98" y="363" type="curve"/>
      <point x="98" y="201" type="line" smooth="yes"/>
      <point x="98" y="123"/>
      <point x="86" y="102"/>
      <point x="51" y="78" type="curve"/>
    </contour>
    <contour>
      <point x="118" y="64" type="line"/>
      <point x="145" y="99"/>
      <point x="151" y="147"/>
      <point x="151" y="207" type="curve" smooth="yes"/>
      <point x="151" y="403" type="line"/>
      <point x="118" y="425"/>
      <point x="95" y="450"/>
      <point x="95" y="496" type="curve" smooth="yes"/>
      <point x="95" y="563"/>
      <point x="174" y="591"/>
      <point x="242" y="658" type="curve"/>
      <point x="310" y="591"/>
      <point x="393" y="559"/>
      <point x="393" y="493" type="curve" smooth="yes"/>
      <point x="393" y="447"/>
      <point x="369" y="426"/>
      <point x="335" y="404" type="curve"/>
      <point x="335" y="206" type="line" smooth="yes"/>
      <point x="335" y="128"/>
      <point x="340" y="92"/>
      <point x="366" y="64" type="curve"/>
    </contour>
  </outline>
</glyph>
<glyph name="rhombusStopabove-ar" format="2">
  <unicode hex="06EB"/>
  <anchor x="128" y="590" name="_top"/>
  <anchor x="129" y="901" name="top"/>
  <outline>
    <contour>
      <point x="126" y="621" type="line"/>
      <point x="233" y="750" type="line"/>
      <point x="129" y="878" type="line"/>
      <point x="24" y="747" type="line"/>
    </contour>
    <contour>
      <point x="127" y="693" type="line"/>
      <point x="85" y="745" type="line"/>
      <point x="129" y="802" type="line"/>
      <point x="171" y="748" type="line"/>
    </contour>
  </outline>
</glyph>
<glyph name="dotStopabove-ar" format="2">
  <unicode hex="06EC"/>
  <anchor x="98" y="590" name="_top"/>
  <anchor x="98" y="818" name="top"/>
  <outline>
    <contour>
      <point x="98" y="623" type="curve" smooth="yes"/>
      <point x="141" y="623"/>
      <point x="173" y="663"/>
      <point x="173" y="716" type="curve" smooth="yes"/>
      <point x="173" y="770"/>
      <point x="141" y="809"/>
      <point x="98" y="809" type="curve" smooth="yes"/>
      <point x="56" y="809"/>
      <point x="24" y="770"/>
      <point x="24" y="716" type="curve" smooth="yes"/>
      <point x="24" y="663"/>
      <point x="56" y="623"/>
    </contour>
  </outline>
</glyph>
<glyph name="four-persian" format="2">
  <advance width="493"/>
  <unicode hex="06F4"/>
  <outline>
    <contour>
      <point x="114" y="-7" type="curve"/>
      <point x="245" y="0" type="line"/>
      <point x="242" y="146"/>
      <point x="228" y="339"/>
      <point x="195" y="490" type="curve"/>
      <point x="151" y="441" type="line"/>
      <point x="185" y="362"/>
      <point x="221" y="316"/>
      <point x="331" y="316" type="curve" smooth="yes"/>
      <point x="377" y="316"/>
      <point x="421" y="326"/>
      <point x="465" y="348" type="curve"/>
      <point x="458" y="478" type="line"/>
      <point x="438" y="471"/>
      <point x="414" y="467"/>
      <point x="394" y="467" type="curve" smooth="yes"/>
      <point x="368" y="467"/>
      <point x="345" y="479"/>
      <point x="345" y="513" type="curve" smooth="yes"/>
      <point x="345" y="537"/>
      <point x="360" y="554"/>
      <point x="389" y="554" type="curve" smooth="yes"/>
      <point x="411" y="554"/>
      <point x="420" y="551"/>
      <point x="435" y="548" type="curve"/>
      <point x="441" y="677" type="line"/>
      <point x="424" y="685"/>
      <point x="405" y="691"/>
      <point x="378" y="691" type="curve" smooth="yes"/>
      <point x="297" y="691"/>
      <point x="230" y="632"/>
      <point x="230" y="535" type="curve" smooth="yes"/>
      <point x="230" y="461"/>
      <point x="261" y="426"/>
      <point x="291" y="411" type="curve"/>
      <point x="319" y="458" type="line"/>
      <point x="301" y="453"/>
      <point x="285" y="451"/>
      <point x="263" y="451" type="curve" smooth="yes"/>
      <point x="241" y="451"/>
      <point x="223" y="457"/>
      <point x="209" y="481" type="curve" smooth="yes"/>
      <point x="188" y="517"/>
      <point x="180" y="591"/>
      <point x="161" y="692" type="curve"/>
      <point x="27" y="660" type="line"/>
      <point x="74" y="433"/>
      <point x="100" y="207"/>
    </contour>
  </outline>
</glyph>
<glyph name="five-persian" format="2">
  <advance width="517"/>
  <unicode hex="06F5"/>
  <outline>
    <contour>
      <point x="160" y="-10" type="curve" smooth="yes"/>
      <point x="224" y="-10"/>
      <point x="266" y="42"/>
      <point x="269" y="103" type="curve"/>
      <point x="237" y="100" type="line"/>
      <point x="237" y="48"/>
      <point x="279" y="-10"/>
      <point x="348" y="-10" type="curve" smooth="yes"/>
      <point x="439" y="-10"/>
      <point x="485" y="77"/>
      <point x="485" y="184" type="curve" smooth="yes"/>
      <point x="485" y="349"/>
      <point x="400" y="516"/>
      <point x="230" y="688" type="curve"/>
      <point x="133" y="581" type="line"/>
      <point x="288" y="413"/>
      <point x="355" y="304"/>
      <point x="357" y="203" type="curve" smooth="yes"/>
      <point x="358" y="163"/>
      <point x="346" y="148"/>
      <point x="329" y="148" type="curve" smooth="yes"/>
      <point x="306" y="148"/>
      <point x="302" y="172"/>
      <point x="302" y="224" type="curve"/>
      <point x="215" y="219" type="line"/>
      <point x="216" y="167"/>
      <point x="208" y="148"/>
      <point x="186" y="148" type="curve" smooth="yes"/>
      <point x="166" y="148"/>
      <point x="158" y="169"/>
      <point x="158" y="201" type="curve" smooth="yes"/>
      <point x="158" y="301"/>
      <point x="225" y="403"/>
      <point x="314" y="500" type="curve"/>
      <point x="231" y="597" type="line"/>
      <point x="134" y="488"/>
      <point x="32" y="341"/>
      <point x="32" y="173" type="curve" smooth="yes"/>
      <point x="32" y="50"/>
      <point x="81" y="-10"/>
    </contour>
  </outline>
</glyph>
<glyph name="six-persian" format="2">
  <advance width="411"/>
  <unicode hex="06F6"/>
  <outline>
    <contour>
      <point x="123" y="-10" type="line"/>
      <point x="202" y="115"/>
      <point x="306" y="227"/>
      <point x="400" y="298" type="curve"/>
      <point x="347" y="435" type="line"/>
      <point x="297" y="406"/>
      <point x="265" y="394"/>
      <point x="226" y="394" type="curve" smooth="yes"/>
      <point x="187" y="394"/>
      <point x="164" y="422"/>
      <point x="164" y="463" type="curve" smooth="yes"/>
      <point x="164" y="510"/>
      <point x="192" y="533"/>
      <point x="248" y="533" type="curve" smooth="yes"/>
      <point x="268" y="533"/>
      <point x="291" y="531"/>
      <point x="319" y="525" type="curve"/>
      <point x="327" y="669" type="line"/>
      <point x="298" y="682"/>
      <point x="266" y="689"/>
      <point x="230" y="689" type="curve" smooth="yes"/>
      <point x="121" y="689"/>
      <point x="38" y="602"/>
      <point x="38" y="467" type="curve" smooth="yes"/>
      <point x="38" y="346"/>
      <point x="104" y="265"/>
      <point x="186" y="265" type="curve" smooth="yes"/>
      <point x="211" y="265"/>
      <point x="255" y="272"/>
      <point x="281" y="292" type="curve"/>
      <point x="236" y="366" type="line"/>
      <point x="167" y="303"/>
      <point x="72" y="182"/>
      <point x="17" y="79" type="curve"/>
    </contour>
  </outline>
</glyph>
<glyph name="aleflow-ar" format="2">
  <advance width="230"/>
  <unicode hex="08AD"/>
  <anchor x="121" y="-291" name="bottom"/>
  <anchor x="113" y="248" name="top"/>
  <outline>
    <contour>
      <point x="61" y="-223" type="curve"/>
      <point x="187" y="-223" type="line"/>
      <point x="195" y="-90"/>
      <point x="192" y="44"/>
      <point x="176" y="177" type="curve"/>
      <point x="39" y="157" type="line"/>
      <point x="57" y="27"/>
      <point x="65" y="-90"/>
    </contour>
  </outline>
</glyph>
<glyph name="fathaCurly-ar" format="2">
  <unicode hex="08E4"/>
  <anchor x="131" y="590" name="_top"/>
  <anchor x="130" y="769" name="top"/>
  <outline>
    <contour>
      <point x="38" y="586" type="curve"/>
      <point x="86" y="602" type="line"/>
      <point x="84" y="613"/>
      <point x="82" y="619"/>
      <point x="82" y="628" type="curve" smooth="yes"/>
      <point x="82" y="640"/>
      <point x="87" y="649"/>
      <point x="102" y="654" type="curve" smooth="yes"/>
      <point x="126" y="663"/>
      <point x="166" y="673"/>
      <point x="194" y="684" type="curve" smooth="yes"/>
      <point x="224" y="696"/>
      <point x="239" y="713"/>
      <point x="239" y="753" type="curve" smooth="yes"/>
      <point x="239" y="784"/>
      <point x="233" y="808"/>
      <point x="226" y="829" type="curve"/>
      <point x="175" y="813" type="line"/>
      <point x="178" y="797"/>
      <point x="182" y="788"/>
      <point x="182" y="777" type="curve" smooth="yes"/>
      <point x="182" y="764"/>
      <point x="178" y="758"/>
      <point x="167" y="754" type="curve" smooth="yes"/>
      <point x="147" y="746"/>
      <point x="106" y="735"/>
      <point x="76" y="724" type="curve" smooth="yes"/>
      <point x="38" y="710"/>
      <point x="24" y="684"/>
      <point x="24" y="650" type="curve" smooth="yes"/>
      <point x="24" y="627"/>
      <point x="30" y="607"/>
    </contour>
  </outline>
</glyph>
<glyph name="dammaCurly-ar" format="2">
  <unicode hex="08E5"/>
  <anchor x="142" y="590" name="_top"/>
  <anchor x="158" y="912" name="top"/>
  <outline>
    <contour>
      <point x="99" y="606" type="line"/>
      <point x="188" y="631"/>
      <point x="288" y="699"/>
      <point x="288" y="794" type="curve" smooth="yes"/>
      <point x="288" y="846"/>
      <point x="262" y="893"/>
      <point x="210" y="893" type="curve" smooth="yes"/>
      <point x="164" y="893"/>
      <point x="129" y="855"/>
      <point x="129" y="799" type="curve" smooth="yes"/>
      <point x="129" y="751"/>
      <point x="152" y="718"/>
      <point x="183" y="702" type="curve"/>
      <point x="222" y="742" type="line"/>
      <point x="200" y="750"/>
      <point x="185" y="771"/>
      <point x="185" y="794" type="curve" smooth="yes"/>
      <point x="185" y="814"/>
      <point x="196" y="826"/>
      <point x="210" y="826" type="curve" smooth="yes"/>
      <point x="225" y="826"/>
      <point x="233" y="811"/>
      <point x="233" y="790" type="curve" smooth="yes"/>
      <point x="233" y="731"/>
      <point x="131" y="685"/>
      <point x="90" y="673" type="curve"/>
      <point x="110" y="655" type="line"/>
      <point x="94" y="697"/>
      <point x="83" y="737"/>
      <point x="74" y="776" type="curve"/>
      <point x="24" y="755" type="line"/>
      <point x="33" y="715"/>
      <point x="46" y="671"/>
      <point x="59" y="634" type="curve"/>
    </contour>
  </outline>
</glyph>
<glyph name="toneloopabove-ar" format="2">
  <unicode hex="08EC"/>
  <anchor x="122" y="590" name="_top"/>
  <anchor x="122" y="810" name="top"/>
  <outline>
    <contour>
      <point x="100" y="616" type="curve" smooth="yes"/>
      <point x="153" y="616"/>
      <point x="197" y="676"/>
      <point x="236" y="764" type="curve"/>
      <point x="199" y="792" type="line"/>
      <point x="170" y="723"/>
      <point x="136" y="678"/>
      <point x="106" y="678" type="curve" smooth="yes"/>
      <point x="83" y="678"/>
      <point x="74" y="689"/>
      <point x="74" y="703" type="curve" smooth="yes"/>
      <point x="74" y="715"/>
      <point x="81" y="725"/>
      <point x="94" y="725" type="curve" smooth="yes"/>
      <point x="123" y="725"/>
      <point x="155" y="704"/>
      <point x="214" y="636" type="curve"/>
      <point x="243" y="682" type="line"/>
      <point x="178" y="761"/>
      <point x="134" y="787"/>
      <point x="96" y="787" type="curve" smooth="yes"/>
      <point x="54" y="787"/>
      <point x="24" y="753"/>
      <point x="24" y="703" type="curve" smooth="yes"/>
      <point x="24" y="641"/>
      <point x="58" y="616"/>
    </contour>
  </outline>
</glyph>
<glyph name="highwaw-ar" format="2">
  <unicode hex="08F3"/>
  <anchor x="87" y="590" name="_top"/>
  <anchor x="94" y="898" name="top"/>
  <outline>
    <contour>
      <point x="59" y="618" type="curve" smooth="yes"/>
      <point x="122" y="618"/>
      <point x="160" y="659"/>
      <point x="160" y="755" type="curve" smooth="yes"/>
      <point x="160" y="829"/>
      <point x="132" y="870"/>
      <point x="94" y="870" type="curve" smooth="yes"/>
      <point x="53" y="870"/>
      <point x="28" y="826"/>
      <point x="28" y="778" type="curve" smooth="yes"/>
      <point x="28" y="723"/>
      <point x="56" y="709"/>
      <point x="88" y="709" type="curve" smooth="yes"/>
      <point x="105" y="709"/>
      <point x="120" y="713"/>
      <point x="132" y="721" type="curve"/>
      <point x="130" y="772" type="line"/>
      <point x="117" y="767"/>
      <point x="107" y="764"/>
      <point x="96" y="764" type="curve" smooth="yes"/>
      <point x="83" y="764"/>
      <point x="73" y="767"/>
      <point x="73" y="783" type="curve" smooth="yes"/>
      <point x="73" y="800"/>
      <point x="80" y="812"/>
      <point x="92" y="812" type="curve" smooth="yes"/>
      <point x="106" y="812"/>
      <point x="116" y="797"/>
      <point x="116" y="748" type="curve" smooth="yes"/>
      <point x="116" y="689"/>
      <point x="94" y="676"/>
      <point x="55" y="676" type="curve" smooth="yes"/>
      <point x="44" y="676"/>
      <point x="34" y="678"/>
      <point x="24" y="679" type="curve"/>
      <point x="26" y="623" type="line"/>
      <point x="37" y="620"/>
      <point x="49" y="618"/>
    </contour>
  </outline>
</glyph>
<glyph name="fathaRing-ar" format="2">
  <unicode hex="08F4"/>
  <anchor x="110" y="590" name="_top"/>
  <anchor x="110" y="831" name="top"/>
  <outline>
    <contour>
      <point x="112" y="618" type="curve" smooth="yes"/>
      <point x="157" y="618"/>
      <point x="191" y="651"/>
      <point x="191" y="712" type="curve" smooth="yes"/>
      <point x="191" y="782"/>
      <point x="153" y="817"/>
      <point x="115" y="817" type="curve" smooth="yes"/>
      <point x="68" y="817"/>
      <point x="32" y="766"/>
      <point x="32" y="710" type="curve" smooth="yes"/>
      <point x="32" y="651"/>
      <point x="64" y="618"/>
    </contour>
    <contour>
      <point x="111" y="675" type="curve" smooth="yes"/>
      <point x="91" y="675"/>
      <point x="78" y="692"/>
      <point x="78" y="714" type="curve" smooth="yes"/>
      <point x="78" y="738"/>
      <point x="93" y="759"/>
      <point x="111" y="759" type="curve" smooth="yes"/>
      <point x="126" y="759"/>
      <point x="143" y="745"/>
      <point x="143" y="714" type="curve" smooth="yes"/>
      <point x="143" y="689"/>
      <point x="130" y="675"/>
    </contour>
    <contour>
      <point x="4" y="654" type="line"/>
      <point x="222" y="739" type="line"/>
      <point x="222" y="784" type="line"/>
      <point x="4" y="698" type="line"/>
    </contour>
  </outline>
</glyph>
<glyph name="leftarrowheadabove-ar" format="2">
  <unicode hex="08F7"/>
  <anchor x="90" y="590" name="_top"/>
  <anchor x="90" y="825" name="top"/>
  <outline>
    <contour>
      <point x="142" y="600" type="curve"/>
      <point x="162" y="657" type="line"/>
      <point x="123" y="682"/>
      <point x="86" y="705"/>
      <point x="47" y="726" type="curve"/>
      <point x="52" y="689" type="line"/>
      <point x="87" y="713"/>
      <point x="124" y="737"/>
      <point x="159" y="763" type="curve"/>
      <point x="135" y="820" type="line"/>
      <point x="98" y="791"/>
      <point x="62" y="765"/>
      <point x="24" y="740" type="curve"/>
      <point x="28" y="671" type="line"/>
      <point x="66" y="649"/>
      <point x="105" y="626"/>
    </contour>
  </outline>
</glyph>
<glyph name="marksidewaysnoonghunna-ar" format="2">
  <unicode hex="08FF"/>
  <anchor x="101" y="590" name="_top"/>
  <anchor x="104" y="929" name="top"/>
  <outline>
    <contour>
      <point x="51" y="604" type="line"/>
      <point x="121" y="614"/>
      <point x="194" y="686"/>
      <point x="194" y="786" type="curve" smooth="yes"/>
      <point x="194" y="862"/>
      <point x="158" y="914"/>
      <point x="106" y="914" type="curve" smooth="yes"/>
      <point x="60" y="914"/>
      <point x="27" y="870"/>
      <point x="27" y="823" type="curve" smooth="yes"/>
      <point x="27" y="783"/>
      <point x="49" y="743"/>
      <point x="96" y="743" type="curve" smooth="yes"/>
      <point x="117" y="743"/>
      <point x="137" y="750"/>
      <point x="160" y="794" type="curve"/>
      <point x="118" y="812" type="line"/>
      <point x="118" y="744"/>
      <point x="98" y="714"/>
      <point x="24" y="679" type="curve"/>
    </contour>
  </outline>
</glyph>
<glyph name="zerowidthjoiner" format="2">
  <unicode hex="200D"/>
  <outline>
    <contour>
      <point x="72" y="529" type="line"/>
      <point x="93" y="555" type="line"/>
      <point x="-60" y="746" type="line"/>
      <point x="-81" y="720" type="line"/>
    </contour>
    <contour>
      <point x="-13" y="-28" type="line"/>
      <point x="16" y="-28" type="line"/>
      <point x="16" y="639" type="line"/>
      <point x="-13" y="639" type="line"/>
    </contour>
    <contour>
      <point x="-70" y="534" type="line"/>
      <point x="83" y="724" type="line"/>
      <point x="63" y="750" type="line"/>
      <point x="-90" y="559" type="line"/>
    </contour>
  </outline>
</glyph>
<glyph name="lefttorightmark" format="2">
  <unicode hex="200E"/>
  <outline>
    <contour>
      <point x="-16" y="-28" type="line"/>
      <point x="13" y="-28" type="line"/>
      <point x="13" y="602" type="line"/>
      <point x="122" y="602" type="line"/>
      <point x="66" y="536" type="line"/>
      <point x="86" y="511" type="line"/>
      <point x="175" y="620" type="line"/>
      <point x="86" y="730" type="line"/>
      <point x="66" y="705" type="line"/>
      <point x="122" y="639" type="line"/>
      <point x="-16" y="639" type="line"/>
    </contour>
  </outline>
</glyph>
<glyph name="righttoleftmark" format="2">
  <unicode hex="200F"/>
  <outline>
    <contour>
      <point x="-14" y="-28" type="line"/>
      <point x="15" y="-28" type="line"/>
      <point x="15" y="639" type="line"/>
      <point x="-122" y="639" type="line"/>
      <point x="-67" y="705" type="line"/>
      <point x="-86" y="730" type="line"/>
      <point x="-176" y="620" type="line"/>
      <point x="-86" y="511" type="line"/>
      <point x="-67" y="536" type="line"/>
      <point x="-122" y="602" type="line"/>
      <point x="-14" y="602" type="line"/>
    </contour>
  </outline>
</glyph>
<glyph name="hyphentwo" format="2">
  <advance width="254"/>
  <unicode hex="2010"/>
  <outline>
    <contour>
      <point x="17" y="192" type="line"/>
      <point x="238" y="192" type="line"/>
      <point x="238" y="344" type="line"/>
      <point x="17" y="344" type="line"/>
    </contour>
  </outline>
</glyph>
<glyph name="nonbreakinghyphen" format="2">
  <advance width="254"/>
  <unicode hex="2011"/>
  <outline>
    <contour>
      <point x="17" y="192" type="line"/>
      <point x="238" y="192" type="line"/>
      <point x="238" y="344" type="line"/>
      <point x="17" y="344" type="line"/>
    </contour>
  </outline>
</glyph>
<glyph name="dottedCircle" format="2">
  <advance width="526"/>
  <unicode hex="25CC"/>
  <anchor x="262" y="-34" name="bottom"/>
  <anchor x="258" y="628" name="top"/>
  <outline>
    <contour>
      <point x="415" y="456" type="curve" smooth="yes"/>
      <point x="430" y="456"/>
      <point x="441" y="470"/>
      <point x="441" y="487" type="curve" smooth="yes"/>
      <point x="441" y="504"/>
      <point x="430" y="517"/>
      <point x="415" y="517" type="curve" smooth="yes"/>
      <point x="402" y="517"/>
      <point x="391" y="504"/>
      <point x="391" y="487" type="curve" smooth="yes"/>
      <point x="391" y="470"/>
      <point x="402" y="456"/>
    </contour>
    <contour>
      <point x="111" y="82" type="curve" smooth="yes"/>
      <point x="124" y="82"/>
      <point x="135" y="95"/>
      <point x="135" y="112" type="curve" smooth="yes"/>
      <point x="135" y="129"/>
      <point x="124" y="143"/>
      <point x="111" y="143" type="curve" smooth="yes"/>
      <point x="97" y="143"/>
      <point x="86" y="129"/>
      <point x="86" y="112" type="curve" smooth="yes"/>
      <point x="86" y="95"/>
      <point x="97" y="82"/>
    </contour>
    <contour>
      <point x="178" y="23" type="curve" smooth="yes"/>
      <point x="191" y="23"/>
      <point x="202" y="36"/>
      <point x="202" y="53" type="curve" smooth="yes"/>
      <point x="202" y="70"/>
      <point x="191" y="84"/>
      <point x="178" y="84" type="curve" smooth="yes"/>
      <point x="164" y="84"/>
      <point x="153" y="70"/>
      <point x="153" y="53" type="curve" smooth="yes"/>
      <point x="153" y="36"/>
      <point x="164" y="23"/>
    </contour>
    <contour>
      <point x="66" y="168" type="curve" smooth="yes"/>
      <point x="78" y="168"/>
      <point x="90" y="181"/>
      <point x="90" y="198" type="curve" smooth="yes"/>
      <point x="90" y="215"/>
      <point x="78" y="229"/>
      <point x="66" y="229" type="curve" smooth="yes"/>
      <point x="51" y="229"/>
      <point x="40" y="215"/>
      <point x="40" y="198" type="curve" smooth="yes"/>
      <point x="40" y="181"/>
      <point x="51" y="168"/>
    </contour>
    <contour>
      <point x="262" y="0" type="curve" smooth="yes"/>
      <point x="277" y="0"/>
      <point x="288" y="13"/>
      <point x="288" y="30" type="curve" smooth="yes"/>
      <point x="288" y="47"/>
      <point x="277" y="61"/>
      <point x="262" y="61" type="curve" smooth="yes"/>
      <point x="250" y="61"/>
      <point x="238" y="47"/>
      <point x="238" y="30" type="curve" smooth="yes"/>
      <point x="238" y="13"/>
      <point x="250" y="0"/>
    </contour>
    <contour>
      <point x="50" y="269" type="curve" smooth="yes"/>
      <point x="62" y="269"/>
      <point x="74" y="282"/>
      <point x="74" y="299" type="curve" smooth="yes"/>
      <point x="74" y="316"/>
      <point x="62" y="330"/>
      <point x="50" y="330" type="curve" smooth="yes"/>
      <point x="35" y="330"/>
      <point x="24" y="316"/>
      <point x="24" y="299" type="curve" smooth="yes"/>
      <point x="24" y="282"/>
      <point x="35" y="269"/>
    </contour>
    <contour>
      <point x="66" y="370" type="curve" smooth="yes"/>
      <point x="78" y="370"/>
      <point x="90" y="384"/>
      <point x="90" y="401" type="curve" smooth="yes"/>
      <point x="90" y="418"/>
      <point x="78" y="431"/>
      <point x="66" y="431" type="curve" smooth="yes"/>
      <point x="51" y="431"/>
      <point x="40" y="418"/>
      <point x="40" y="401" type="curve" smooth="yes"/>
      <point x="40" y="384"/>
      <point x="51" y="370"/>
    </contour>
    <contour>
      <point x="348" y="23" type="curve" smooth="yes"/>
      <point x="362" y="23"/>
      <point x="374" y="36"/>
      <point x="374" y="53" type="curve" smooth="yes"/>
      <point x="374" y="70"/>
      <point x="362" y="84"/>
      <point x="348" y="84" type="curve" smooth="yes"/>
      <point x="335" y="84"/>
      <point x="324" y="70"/>
      <point x="324" y="53" type="curve" smooth="yes"/>
      <point x="324" y="36"/>
      <point x="335" y="23"/>
    </contour>
    <contour>
      <point x="111" y="456" type="curve" smooth="yes"/>
      <point x="124" y="456"/>
      <point x="135" y="470"/>
      <point x="135" y="487" type="curve" smooth="yes"/>
      <point x="135" y="504"/>
      <point x="124" y="517"/>
      <point x="111" y="517" type="curve" smooth="yes"/>
      <point x="97" y="517"/>
      <point x="86" y="504"/>
      <point x="86" y="487" type="curve" smooth="yes"/>
      <point x="86" y="470"/>
      <point x="97" y="456"/>
    </contour>
    <contour>
      <point x="415" y="82" type="curve" smooth="yes"/>
      <point x="430" y="82"/>
      <point x="441" y="95"/>
      <point x="441" y="112" type="curve" smooth="yes"/>
      <point x="441" y="129"/>
      <point x="430" y="143"/>
      <point x="415" y="143" type="curve" smooth="yes"/>
      <point x="402" y="143"/>
      <point x="391" y="129"/>
      <point x="391" y="112" type="curve" smooth="yes"/>
      <point x="391" y="95"/>
      <point x="402" y="82"/>
    </contour>
    <contour>
      <point x="178" y="515" type="curve" smooth="yes"/>
      <point x="191" y="515"/>
      <point x="202" y="529"/>
      <point x="202" y="546" type="curve" smooth="yes"/>
      <point x="202" y="563"/>
      <point x="191" y="576"/>
      <point x="178" y="576" type="curve" smooth="yes"/>
      <point x="164" y="576"/>
      <point x="153" y="563"/>
      <point x="153" y="546" type="curve" smooth="yes"/>
      <point x="153" y="529"/>
      <point x="164" y="515"/>
    </contour>
    <contour>
      <point x="461" y="168" type="curve" smooth="yes"/>
      <point x="475" y="168"/>
      <point x="486" y="181"/>
      <point x="486" y="198" type="curve" smooth="yes"/>
      <point x="486" y="215"/>
      <point x="475" y="229"/>
      <point x="461" y="229" type="curve" smooth="yes"/>
      <point x="448" y="229"/>
      <point x="437" y="215"/>
      <point x="437" y="198" type="curve" smooth="yes"/>
      <point x="437" y="181"/>
      <point x="448" y="168"/>
    </contour>
    <contour>
      <point x="477" y="269" type="curve" smooth="yes"/>
      <point x="491" y="269"/>
      <point x="502" y="283"/>
      <point x="502" y="300" type="curve" smooth="yes"/>
      <point x="502" y="317"/>
      <point x="491" y="330"/>
      <point x="477" y="330" type="curve" smooth="yes"/>
      <point x="464" y="330"/>
      <point x="453" y="317"/>
      <point x="453" y="300" type="curve" smooth="yes"/>
      <point x="453" y="283"/>
      <point x="464" y="269"/>
    </contour>
    <contour>
      <point x="262" y="538" type="curve" smooth="yes"/>
      <point x="277" y="538"/>
      <point x="288" y="552"/>
      <point x="288" y="569" type="curve" smooth="yes"/>
      <point x="288" y="586"/>
      <point x="277" y="599"/>
      <point x="262" y="599" type="curve" smooth="yes"/>
      <point x="250" y="599"/>
      <point x="238" y="586"/>
      <point x="238" y="569" type="curve" smooth="yes"/>
      <point x="238" y="552"/>
      <point x="250" y="538"/>
    </contour>
    <contour>
      <point x="461" y="370" type="curve" smooth="yes"/>
      <point x="475" y="370"/>
      <point x="486" y="384"/>
      <point x="486" y="401" type="curve" smooth="yes"/>
      <point x="486" y="418"/>
      <point x="475" y="431"/>
      <point x="461" y="431" type="curve" smooth="yes"/>
      <point x="448" y="431"/>
      <point x="437" y="418"/>
      <point x="437" y="401" type="curve" smooth="yes"/>
      <point x="437" y="384"/>
      <point x="448" y="370"/>
    </contour>
    <contour>
      <point x="348" y="515" type="curve" smooth="yes"/>
      <point x="362" y="515"/>
      <point x="374" y="529"/>
      <point x="374" y="546" type="curve" smooth="yes"/>
      <point x="374" y="563"/>
      <point x="362" y="576"/>
      <point x="348" y="576" type="curve" smooth="yes"/>
      <point x="335" y="576"/>
      <point x="324" y="563"/>
      <point x="324" y="546" type="curve" smooth="yes"/>
      <point x="324" y="529"/>
      <point x="335" y="515"/>
    </contour>
  </outline>
</glyph>
<glyph name="keheh-ar.fina" format="2">
  <advance width="771"/>
  <unicode hex="FB8F"/>
  <anchor x="320" y="-111" name="bottom"/>
  <anchor x="320" y="-20" name="bottom.dot"/>
  <anchor x="674" y="584" name="center"/>
  <anchor x="324" y="709" name="top"/>
  <anchor x="495" y="612" name="top.dot"/>
  <outline>
    <contour>
      <point x="771" y="-10" type="curve" smooth="yes"/>
      <point x="824" y="-10"/>
      <point x="851" y="30"/>
      <point x="851" y="81" type="curve" smooth="yes"/>
      <point x="851" y="126"/>
      <point x="830" y="170"/>
      <point x="779" y="170" type="curve" smooth="yes"/>
      <point x="730" y="170"/>
      <point x="689" y="204"/>
      <point x="648" y="261" type="curve" smooth="yes"/>
      <point x="454" y="529" type="line"/>
      <point x="437" y="437" type="line"/>
      <point x="748" y="586" type="line"/>
      <point x="747" y="764" type="line"/>
      <point x="385" y="564" type="line"/>
      <point x="362" y="418" type="line"/>
      <point x="433" y="323"/>
      <point x="497" y="229"/>
      <point x="562" y="134" type="curve" smooth="yes"/>
      <point x="616" y="56"/>
      <point x="676" y="-10"/>
    </contour>
    <contour>
      <point x="359" y="-15" type="line"/>
      <point x="476" y="-15"/>
      <point x="574" y="35"/>
      <point x="594" y="163" type="curve"/>
      <point x="522" y="256" type="line"/>
      <point x="493" y="184"/>
      <point x="450" y="165"/>
      <point x="367" y="165" type="curve"/>
    </contour>
    <component base="_part.beh.fina" xOffset="5"/>
  </outline>
</glyph>
<glyph name="noonghunna-ar.fina" format="2">
  <advance width="618"/>
  <unicode hex="FB9F"/>
  <anchor x="274" y="-274" name="bottom"/>
  <anchor x="275" y="-214" name="bottom.dot"/>
  <anchor x="290" y="280" name="top.dot"/>
  <outline>
    <contour>
      <point x="262" y="-232" type="curve" smooth="yes"/>
      <point x="421" y="-232"/>
      <point x="564" y="-129"/>
      <point x="549" y="111" type="curve"/>
      <point x="499" y="67" type="line"/>
      <point x="521" y="3"/>
      <point x="570" y="-10"/>
      <point x="618" y="-10" type="curve" smooth="yes"/>
      <point x="671" y="-10"/>
      <point x="698" y="30"/>
      <point x="698" y="81" type="curve" smooth="yes"/>
      <point x="698" y="126"/>
      <point x="678" y="170"/>
      <point x="626" y="170" type="curve" smooth="yes"/>
      <point x="585" y="170"/>
      <point x="560" y="179"/>
      <point x="553" y="207" type="curve" smooth="yes"/>
      <point x="545" y="238"/>
      <point x="539" y="266"/>
      <point x="526" y="340" type="curve"/>
      <point x="404" y="316" type="line"/>
      <point x="417" y="235"/>
      <point x="427" y="180"/>
      <point x="427" y="108" type="curve" smooth="yes"/>
      <point x="427" y="-10"/>
      <point x="371" y="-52"/>
      <point x="275" y="-52" type="curve" smooth="yes"/>
      <point x="202" y="-52"/>
      <point x="161" y="-27"/>
      <point x="161" y="71" type="curve" smooth="yes"/>
      <point x="161" y="123"/>
      <point x="167" y="167"/>
      <point x="180" y="236" type="curve"/>
      <point x="79" y="263" type="line"/>
      <point x="48" y="176"/>
      <point x="35" y="99"/>
      <point x="35" y="33" type="curve" smooth="yes"/>
      <point x="35" y="-148"/>
      <point x="124" y="-232"/>
    </contour>
  </outline>
</glyph>
<glyph name="hehgoal-ar.fina" format="2">
  <advance width="492"/>
  <unicode hex="FBA7"/>
  <anchor x="228" y="-111" name="bottom"/>
  <anchor x="238" y="508" name="top"/>
  <anchor x="238" y="404" name="top.dot"/>
  <outline>
    <contour>
      <point x="492" y="-10" type="curve" smooth="yes"/>
      <point x="545" y="-10"/>
      <point x="572" y="30"/>
      <point x="572" y="81" type="curve" smooth="yes"/>
      <point x="572" y="126"/>
      <point x="551" y="170"/>
      <point x="500" y="170" type="curve" smooth="yes"/>
      <point x="470" y="170"/>
      <point x="460" y="177"/>
      <point x="390" y="265" type="curve" smooth="yes"/>
      <point x="316" y="358"/>
      <point x="285" y="389"/>
      <point x="231" y="389" type="curve" smooth="yes"/>
      <point x="160" y="389"/>
      <point x="89" y="310"/>
      <point x="16" y="165" type="curve"/>
      <point x="117" y="90" type="line"/>
      <point x="162" y="165"/>
      <point x="190" y="201"/>
      <point x="221" y="201" type="curve" smooth="yes"/>
      <point x="249" y="201"/>
      <point x="268" y="185"/>
      <point x="312" y="121" type="curve" smooth="yes"/>
      <point x="373" y="33"/>
      <point x="418" y="-10"/>
    </contour>
  </outline>
</glyph>
<glyph name="hehgoal-ar.medi" format="2">
  <advance width="424"/>
  <unicode hex="FBA9"/>
  <anchor x="260" y="-358" name="bottom"/>
  <anchor x="242" y="398" name="top"/>
  <outline>
    <contour>
      <point x="247" y="-320" type="curve"/>
      <point x="346" y="-237" type="line"/>
      <point x="336" y="-199"/>
      <point x="328" y="-159"/>
      <point x="328" y="-124" type="curve" smooth="yes"/>
      <point x="328" y="-39"/>
      <point x="348" y="-10"/>
      <point x="424" y="-10" type="curve" smooth="yes"/>
      <point x="477" y="-10"/>
      <point x="504" y="20"/>
      <point x="504" y="81" type="curve" smooth="yes"/>
      <point x="504" y="143"/>
      <point x="483" y="170"/>
      <point x="432" y="170" type="curve" smooth="yes"/>
      <point x="300" y="170"/>
      <point x="226" y="90"/>
      <point x="226" y="-76" type="curve" smooth="yes"/>
      <point x="226" y="-111"/>
      <point x="229" y="-146"/>
      <point x="232" y="-172" type="curve"/>
      <point x="261" y="-142" type="line"/>
      <point x="206" y="-101"/>
      <point x="186" y="-33"/>
      <point x="186" y="53" type="curve" smooth="yes"/>
      <point x="186" y="112"/>
      <point x="195" y="183"/>
      <point x="211" y="257" type="curve"/>
      <point x="106" y="281" type="line"/>
      <point x="87" y="192"/>
      <point x="63" y="170"/>
      <point x="0" y="170" type="curve"/>
      <point x="-8" y="-10" type="line"/>
      <point x="52" y="-10"/>
      <point x="85" y="6"/>
      <point x="130" y="65" type="curve"/>
      <point x="78" y="120" type="line"/>
      <point x="72" y="84"/>
      <point x="66" y="61"/>
      <point x="66" y="14" type="curve" smooth="yes"/>
      <point x="66" y="-139"/>
      <point x="139" y="-256"/>
    </contour>
  </outline>
</glyph>
<glyph name="hehDoachashmee-ar.fina" format="2">
  <advance width="561"/>
  <unicode hex="FBAB"/>
  <anchor x="354" y="-285" name="bottom"/>
  <anchor x="354" y="593" name="top"/>
  <anchor x="354" y="529" name="top.dot"/>
  <outline>
    <contour>
      <point x="367" y="-240" type="curve" smooth="yes"/>
      <point x="462" y="-240"/>
      <point x="523" y="-176"/>
      <point x="523" y="-58" type="curve" smooth="yes"/>
      <point x="523" y="-5"/>
      <point x="509" y="44"/>
      <point x="493" y="76" type="curve"/>
      <point x="472" y="18" type="line"/>
      <point x="500" y="-1"/>
      <point x="512" y="-10"/>
      <point x="561" y="-10" type="curve" smooth="yes"/>
      <point x="614" y="-10"/>
      <point x="641" y="30"/>
      <point x="641" y="81" type="curve" smooth="yes"/>
      <point x="641" y="126"/>
      <point x="620" y="170"/>
      <point x="569" y="170" type="curve" smooth="yes"/>
      <point x="471" y="170"/>
      <point x="415" y="181"/>
      <point x="364" y="200" type="curve"/>
      <point x="331" y="63" type="line"/>
      <point x="386" y="50"/>
      <point x="408" y="-1"/>
      <point x="408" y="-37" type="curve" smooth="yes"/>
      <point x="408" y="-70"/>
      <point x="391" y="-93"/>
      <point x="366" y="-93" type="curve" smooth="yes"/>
      <point x="306" y="-93"/>
      <point x="282" y="-3"/>
      <point x="282" y="128" type="curve" smooth="yes"/>
      <point x="282" y="266"/>
      <point x="325" y="350"/>
      <point x="355" y="350" type="curve" smooth="yes"/>
      <point x="375" y="350"/>
      <point x="388" y="317"/>
      <point x="388" y="284" type="curve" smooth="yes"/>
      <point x="388" y="246"/>
      <point x="380" y="217"/>
      <point x="341" y="196" type="curve" smooth="yes"/>
      <point x="303" y="176"/>
      <point x="234" y="170"/>
      <point x="157" y="170" type="curve" smooth="yes"/>
      <point x="120" y="170"/>
      <point x="77" y="172"/>
      <point x="37" y="177" type="curve"/>
      <point x="24" y="13" type="line"/>
      <point x="63" y="-1"/>
      <point x="103" y="-10"/>
      <point x="149" y="-10" type="curve" smooth="yes"/>
      <point x="254" y="-10"/>
      <point x="326" y="16"/>
      <point x="388" y="66" type="curve" smooth="yes"/>
      <point x="438" y="106"/>
      <point x="506" y="175"/>
      <point x="506" y="300" type="curve" smooth="yes"/>
      <point x="506" y="417"/>
      <point x="446" y="510"/>
      <point x="378" y="510" type="curve" smooth="yes"/>
      <point x="283" y="510"/>
      <point x="163" y="355"/>
      <point x="163" y="87" type="curve" smooth="yes"/>
      <point x="163" y="-111"/>
      <point x="234" y="-240"/>
    </contour>
  </outline>
</glyph>
<glyph name="yehbarree-ar.fina" format="2">
  <advance width="521"/>
  <unicode hex="FBAF"/>
  <anchor x="270" y="-341" name="bottom"/>
  <anchor x="174" y="176" name="top"/>
  <outline>
    <contour>
      <point x="283" y="-298" type="curve" smooth="yes"/>
      <point x="382" y="-298"/>
      <point x="470" y="-289"/>
      <point x="530" y="-276" type="curve"/>
      <point x="542" y="-102" type="line"/>
      <point x="482" y="-110"/>
      <point x="414" y="-118"/>
      <point x="306" y="-118" type="curve" smooth="yes"/>
      <point x="212" y="-118"/>
      <point x="159" y="-107"/>
      <point x="159" y="-69" type="curve" smooth="yes"/>
      <point x="159" y="-36"/>
      <point x="186" y="-10"/>
      <point x="306" y="-10" type="curve" smooth="yes"/>
      <point x="360" y="-10"/>
      <point x="443" y="-10"/>
      <point x="521" y="-10" type="curve" smooth="yes"/>
      <point x="574" y="-10"/>
      <point x="601" y="30"/>
      <point x="601" y="81" type="curve" smooth="yes"/>
      <point x="601" y="126"/>
      <point x="580" y="170"/>
      <point x="529" y="170" type="curve" smooth="yes"/>
      <point x="458" y="170"/>
      <point x="400" y="170"/>
      <point x="343" y="170" type="curve" smooth="yes"/>
      <point x="138" y="170"/>
      <point x="18" y="82"/>
      <point x="18" y="-83" type="curve" smooth="yes"/>
      <point x="18" y="-245"/>
      <point x="131" y="-298"/>
    </contour>
  </outline>
</glyph>
<glyph name="uniFBBC" format="2">
  <unicode hex="FBBC"/>
  <anchor x="98" y="0" name="_top"/>
  <outline>
    <contour>
      <point x="116" y="-211" type="line"/>
      <point x="189" y="-211" type="line"/>
      <point x="184" y="-21" type="line"/>
      <point x="111" y="-21" type="line"/>
    </contour>
    <contour>
      <point x="20" y="-211" type="line"/>
      <point x="93" y="-211" type="line"/>
      <point x="88" y="-21" type="line"/>
      <point x="15" y="-21" type="line"/>
    </contour>
  </outline>
</glyph>
<glyph name="kaf_alefMaksura-ar" format="2">
  <advance width="867"/>
  <unicode hex="FC3D"/>
  <anchor x="286" y="-241" name="bottom.dot"/>
  <anchor x="686" y="-111" name="bottom_1"/>
  <anchor x="286" y="-281" name="bottom_2"/>
  <anchor x="134" y="225" name="top.dot_2"/>
  <anchor x="626" y="709" name="top_1"/>
  <anchor x="292" y="299" name="top_2"/>
  <outline>
    <contour>
      <point x="294" y="-252" type="curve" smooth="yes"/>
      <point x="500" y="-252"/>
      <point x="614" y="-130"/>
      <point x="614" y="-12" type="curve" smooth="yes"/>
      <point x="614" y="15"/>
      <point x="604" y="59"/>
      <point x="583" y="91" type="curve"/>
      <point x="551" y="17" type="line"/>
      <point x="569" y="7"/>
      <point x="587" y="3"/>
      <point x="611" y="3" type="curve" smooth="yes"/>
      <point x="723" y="3"/>
      <point x="792" y="71"/>
      <point x="792" y="198" type="curve" smooth="yes"/>
      <point x="792" y="322"/>
      <point x="705" y="418"/>
      <point x="562" y="520" type="curve"/>
      <point x="532" y="440" type="line"/>
      <point x="851" y="586" type="line"/>
      <point x="850" y="764" type="line"/>
      <point x="480" y="564" type="line"/>
      <point x="458" y="418" type="line"/>
      <point x="592" y="321"/>
      <point x="656" y="271"/>
      <point x="656" y="216" type="curve" smooth="yes"/>
      <point x="656" y="184"/>
      <point x="620" y="176"/>
      <point x="582" y="176" type="curve" smooth="yes"/>
      <point x="538" y="176"/>
      <point x="494" y="186"/>
      <point x="446" y="202" type="curve"/>
      <point x="414" y="55" type="line"/>
      <point x="474" y="37"/>
      <point x="506" y="27"/>
      <point x="506" y="4" type="curve" smooth="yes"/>
      <point x="506" y="-29"/>
      <point x="446" y="-72"/>
      <point x="314" y="-72" type="curve" smooth="yes"/>
      <point x="202" y="-72"/>
      <point x="161" y="-37"/>
      <point x="161" y="51" type="curve" smooth="yes"/>
      <point x="161" y="103"/>
      <point x="167" y="147"/>
      <point x="180" y="216" type="curve"/>
      <point x="79" y="243" type="line"/>
      <point x="48" y="156"/>
      <point x="35" y="79"/>
      <point x="35" y="13" type="curve" smooth="yes"/>
      <point x="35" y="-168"/>
      <point x="132" y="-252"/>
    </contour>
  </outline>
</glyph>
<glyph name="kaf_alefMaksura-ar.fina" format="2">
  <advance width="874"/>
  <unicode hex="FC83"/>
  <anchor x="286" y="-241" name="bottom.dot"/>
  <anchor x="686" y="-111" name="bottom_1"/>
  <anchor x="286" y="-281" name="bottom_2"/>
  <anchor x="134" y="225" name="top.dot_2"/>
  <anchor x="626" y="709" name="top_1"/>
  <anchor x="292" y="299" name="top_2"/>
  <outline>
    <contour>
      <point x="874" y="-10" type="curve" smooth="yes"/>
      <point x="927" y="-10"/>
      <point x="954" y="30"/>
      <point x="954" y="81" type="curve" smooth="yes"/>
      <point x="954" y="126"/>
      <point x="934" y="170"/>
      <point x="882" y="170" type="curve" smooth="yes"/>
      <point x="833" y="170"/>
      <point x="792" y="204"/>
      <point x="751" y="261" type="curve" smooth="yes"/>
      <point x="558" y="529" type="line"/>
      <point x="540" y="437" type="line"/>
      <point x="851" y="586" type="line"/>
      <point x="850" y="764" type="line"/>
      <point x="488" y="564" type="line"/>
      <point x="466" y="418" type="line"/>
      <point x="536" y="323"/>
      <point x="600" y="229"/>
      <point x="666" y="134" type="curve" smooth="yes"/>
      <point x="719" y="56"/>
      <point x="779" y="-10"/>
    </contour>
    <contour>
      <point x="294" y="-252" type="curve" smooth="yes"/>
      <point x="500" y="-252"/>
      <point x="614" y="-130"/>
      <point x="614" y="-14" type="curve" smooth="yes"/>
      <point x="614" y="27"/>
      <point x="606" y="58"/>
      <point x="583" y="87" type="curve"/>
      <point x="546" y="37" type="line"/>
      <point x="557" y="31"/>
      <point x="564" y="27"/>
      <point x="583" y="27" type="curve" smooth="yes"/>
      <point x="624" y="27"/>
      <point x="672" y="66"/>
      <point x="689" y="163" type="curve"/>
      <point x="626" y="252" type="line"/>
      <point x="606" y="206"/>
      <point x="575" y="189"/>
      <point x="524" y="189" type="curve" smooth="yes"/>
      <point x="498" y="189"/>
      <point x="475" y="192"/>
      <point x="446" y="202" type="curve"/>
      <point x="414" y="55" type="line"/>
      <point x="474" y="37"/>
      <point x="506" y="27"/>
      <point x="506" y="4" type="curve" smooth="yes"/>
      <point x="506" y="-29"/>
      <point x="446" y="-72"/>
      <point x="314" y="-72" type="curve" smooth="yes"/>
      <point x="202" y="-72"/>
      <point x="161" y="-37"/>
      <point x="161" y="51" type="curve" smooth="yes"/>
      <point x="161" y="103"/>
      <point x="167" y="147"/>
      <point x="180" y="216" type="curve"/>
      <point x="79" y="243" type="line"/>
      <point x="48" y="156"/>
      <point x="35" y="79"/>
      <point x="35" y="13" type="curve" smooth="yes"/>
      <point x="35" y="-168"/>
      <point x="132" y="-252"/>
    </contour>
  </outline>
</glyph>
<glyph name="seen_alefMaksura-ar" format="2">
  <advance width="1263"/>
  <unicode hex="FCFB"/>
  <anchor x="286" y="-241" name="bottom.dot_2"/>
  <anchor x="934" y="-111" name="bottom_1"/>
  <anchor x="286" y="-281" name="bottom_2"/>
  <anchor x="934" y="377" name="top.dot_1"/>
  <anchor x="134" y="215" name="top.dot_2"/>
  <anchor x="933" y="518" name="top_1"/>
  <anchor x="222" y="396" name="top_2"/>
  <outline>
    <contour>
      <point x="285" y="-252" type="curve" smooth="yes"/>
      <point x="498" y="-252"/>
      <point x="607" y="-131"/>
      <point x="607" y="2" type="curve" smooth="yes"/>
      <point x="607" y="89"/>
      <point x="570" y="127"/>
      <point x="471" y="168" type="curve" smooth="yes"/>
      <point x="427" y="186"/>
      <point x="411" y="192"/>
      <point x="411" y="214" type="curve" smooth="yes"/>
      <point x="411" y="241"/>
      <point x="450" y="265"/>
      <point x="505" y="265" type="curve" smooth="yes"/>
      <point x="558" y="265"/>
      <point x="589" y="246"/>
      <point x="612" y="177" type="curve" smooth="yes"/>
      <point x="662" y="27"/>
      <point x="716" y="-10"/>
      <point x="802" y="-10" type="curve" smooth="yes"/>
      <point x="878" y="-10"/>
      <point x="948" y="34"/>
      <point x="958" y="141" type="curve"/>
      <point x="929" y="141" type="line"/>
      <point x="943" y="26"/>
      <point x="997" y="-10"/>
      <point x="1059" y="-10" type="curve" smooth="yes"/>
      <point x="1173" y="-10"/>
      <point x="1223" y="86"/>
      <point x="1223" y="231" type="curve" smooth="yes"/>
      <point x="1223" y="295"/>
      <point x="1214" y="370"/>
      <point x="1188" y="456" type="curve"/>
      <point x="1070" y="424" type="line"/>
      <point x="1087" y="356"/>
      <point x="1095" y="299"/>
      <point x="1095" y="246" type="curve" smooth="yes"/>
      <point x="1095" y="192"/>
      <point x="1082" y="170"/>
      <point x="1043" y="170" type="curve" smooth="yes"/>
      <point x="1012" y="170"/>
      <point x="998" y="182"/>
      <point x="992" y="231" type="curve" smooth="yes"/>
      <point x="988" y="266"/>
      <point x="988" y="305"/>
      <point x="986" y="381" type="curve"/>
      <point x="871" y="373" type="line"/>
      <point x="873" y="225"/>
      <point x="863" y="170"/>
      <point x="801" y="170" type="curve" smooth="yes"/>
      <point x="767" y="170"/>
      <point x="750" y="191"/>
      <point x="722" y="278" type="curve" smooth="yes"/>
      <point x="684" y="397"/>
      <point x="631" y="441"/>
      <point x="533" y="441" type="curve" smooth="yes"/>
      <point x="408" y="441"/>
      <point x="290" y="327"/>
      <point x="290" y="184" type="curve" smooth="yes"/>
      <point x="290" y="106"/>
      <point x="320" y="59"/>
      <point x="414" y="22" type="curve" smooth="yes"/>
      <point x="464" y="2"/>
      <point x="481" y="-4"/>
      <point x="481" y="-19" type="curve" smooth="yes"/>
      <point x="481" y="-44"/>
      <point x="414" y="-72"/>
      <point x="306" y="-72" type="curve" smooth="yes"/>
      <point x="210" y="-72"/>
      <point x="161" y="-47"/>
      <point x="161" y="51" type="curve" smooth="yes"/>
      <point x="161" y="103"/>
      <point x="167" y="147"/>
      <point x="180" y="216" type="curve"/>
      <point x="79" y="243" type="line"/>
      <point x="48" y="156"/>
      <point x="35" y="79"/>
      <point x="35" y="13" type="curve" smooth="yes"/>
      <point x="35" y="-168"/>
      <point x="130" y="-252"/>
    </contour>
  </outline>
</glyph>
<glyph name="sad_alefMaksura-ar" format="2">
  <advance width="1301"/>
  <unicode hex="FD05"/>
  <anchor x="286" y="-241" name="bottom.dot_2"/>
  <anchor x="960" y="-111" name="bottom_1"/>
  <anchor x="286" y="-281" name="bottom_2"/>
  <anchor x="1029" y="499" name="top.dot_1"/>
  <anchor x="134" y="215" name="top.dot_2"/>
  <anchor x="966" y="596" name="top_1"/>
  <anchor x="222" y="396" name="top_2"/>
  <outline>
    <contour>
      <point x="285" y="-252" type="curve" smooth="yes"/>
      <point x="498" y="-252"/>
      <point x="607" y="-131"/>
      <point x="607" y="2" type="curve" smooth="yes"/>
      <point x="607" y="89"/>
      <point x="570" y="127"/>
      <point x="471" y="168" type="curve" smooth="yes"/>
      <point x="427" y="186"/>
      <point x="411" y="192"/>
      <point x="411" y="214" type="curve" smooth="yes"/>
      <point x="411" y="241"/>
      <point x="450" y="265"/>
      <point x="505" y="265" type="curve" smooth="yes"/>
      <point x="558" y="265"/>
      <point x="586" y="243"/>
      <point x="612" y="177" type="curve" smooth="yes"/>
      <point x="675" y="17"/>
      <point x="774" y="-10"/>
      <point x="940" y="-10" type="curve" smooth="yes"/>
      <point x="1167" y="-10"/>
      <point x="1265" y="88"/>
      <point x="1265" y="252" type="curve" smooth="yes"/>
      <point x="1265" y="389"/>
      <point x="1193" y="502"/>
      <point x="1078" y="502" type="curve" smooth="yes"/>
      <point x="954" y="502"/>
      <point x="826" y="378"/>
      <point x="722" y="142" type="curve"/>
      <point x="833" y="96" type="line"/>
      <point x="890" y="225"/>
      <point x="962" y="322"/>
      <point x="1046" y="322" type="curve" smooth="yes"/>
      <point x="1099" y="322"/>
      <point x="1129" y="280"/>
      <point x="1129" y="237" type="curve" smooth="yes"/>
      <point x="1129" y="183"/>
      <point x="1087" y="170"/>
      <point x="946" y="170" type="curve" smooth="yes"/>
      <point x="777" y="170"/>
      <point x="752" y="202"/>
      <point x="722" y="278" type="curve" smooth="yes"/>
      <point x="678" y="393"/>
      <point x="631" y="441"/>
      <point x="533" y="441" type="curve" smooth="yes"/>
      <point x="408" y="441"/>
      <point x="290" y="327"/>
      <point x="290" y="184" type="curve" smooth="yes"/>
      <point x="290" y="106"/>
      <point x="320" y="59"/>
      <point x="414" y="22" type="curve" smooth="yes"/>
      <point x="464" y="2"/>
      <point x="481" y="-4"/>
      <point x="481" y="-19" type="curve" smooth="yes"/>
      <point x="481" y="-44"/>
      <point x="414" y="-72"/>
      <point x="306" y="-72" type="curve" smooth="yes"/>
      <point x="210" y="-72"/>
      <point x="161" y="-47"/>
      <point x="161" y="51" type="curve" smooth="yes"/>
      <point x="161" y="103"/>
      <point x="167" y="147"/>
      <point x="180" y="216" type="curve"/>
      <point x="79" y="243" type="line"/>
      <point x="48" y="156"/>
      <point x="35" y="79"/>
      <point x="35" y="13" type="curve" smooth="yes"/>
      <point x="35" y="-168"/>
      <point x="130" y="-252"/>
    </contour>
  </outline>
</glyph>
<glyph name="seen_reh-ar" format="2">
  <advance width="1078"/>
  <unicode hex="FD0E"/>
  <anchor x="749" y="-111" name="bottom_1"/>
  <anchor x="118" y="-308" name="bottom_2"/>
  <anchor x="749" y="377" name="top.dot_1"/>
  <anchor x="209" y="340" name="top.dot_2"/>
  <anchor x="747" y="518" name="top_1"/>
  <anchor x="206" y="513" name="top_2"/>
  <outline>
    <contour>
      <point x="86" y="-266" type="curve" smooth="yes"/>
      <point x="238" y="-266"/>
      <point x="347" y="-170"/>
      <point x="347" y="36" type="curve" smooth="yes"/>
      <point x="347" y="85"/>
      <point x="343" y="137"/>
      <point x="337" y="188" type="curve"/>
      <point x="296" y="130" type="line"/>
      <point x="366" y="135"/>
      <point x="436" y="155"/>
      <point x="506" y="180" type="curve"/>
      <point x="464" y="217" type="line"/>
      <point x="463" y="204"/>
      <point x="462" y="186"/>
      <point x="462" y="157" type="curve" smooth="yes"/>
      <point x="462" y="54"/>
      <point x="499" y="-10"/>
      <point x="618" y="-10" type="curve" smooth="yes"/>
      <point x="694" y="-10"/>
      <point x="763" y="34"/>
      <point x="773" y="141" type="curve"/>
      <point x="744" y="141" type="line"/>
      <point x="758" y="26"/>
      <point x="812" y="-10"/>
      <point x="874" y="-10" type="curve" smooth="yes"/>
      <point x="988" y="-10"/>
      <point x="1038" y="86"/>
      <point x="1038" y="231" type="curve" smooth="yes"/>
      <point x="1038" y="295"/>
      <point x="1029" y="370"/>
      <point x="1003" y="456" type="curve"/>
      <point x="885" y="424" type="line"/>
      <point x="902" y="356"/>
      <point x="910" y="299"/>
      <point x="910" y="246" type="curve" smooth="yes"/>
      <point x="910" y="192"/>
      <point x="897" y="170"/>
      <point x="858" y="170" type="curve" smooth="yes"/>
      <point x="827" y="170"/>
      <point x="813" y="182"/>
      <point x="807" y="231" type="curve" smooth="yes"/>
      <point x="803" y="266"/>
      <point x="803" y="305"/>
      <point x="801" y="381" type="curve"/>
      <point x="686" y="373" type="line"/>
      <point x="688" y="225"/>
      <point x="679" y="170"/>
      <point x="614" y="170" type="curve" smooth="yes"/>
      <point x="569" y="170"/>
      <point x="557" y="192"/>
      <point x="557" y="242" type="curve" smooth="yes"/>
      <point x="557" y="276"/>
      <point x="558" y="304"/>
      <point x="560" y="340" type="curve"/>
      <point x="475" y="338" type="line"/>
      <point x="403" y="312"/>
      <point x="330" y="296"/>
      <point x="258" y="290" type="curve"/>
      <point x="206" y="170" type="line"/>
      <point x="211" y="136"/>
      <point x="218" y="106"/>
      <point x="218" y="64" type="curve" smooth="yes"/>
      <point x="218" y="-38"/>
      <point x="165" y="-102"/>
      <point x="66" y="-102" type="curve" smooth="yes"/>
      <point x="33" y="-102"/>
      <point x="2" y="-98"/>
      <point x="-34" y="-89" type="curve"/>
      <point x="-28" y="-238" type="line"/>
      <point x="1" y="-257"/>
      <point x="42" y="-266"/>
    </contour>
  </outline>
</glyph>
<glyph name="sad_reh-ar" format="2">
  <advance width="1123"/>
  <unicode hex="FD0F"/>
  <anchor x="782" y="-111" name="bottom_1"/>
  <anchor x="118" y="-308" name="bottom_2"/>
  <anchor x="851" y="499" name="top.dot_1"/>
  <anchor x="209" y="340" name="top.dot_2"/>
  <anchor x="789" y="596" name="top_1"/>
  <anchor x="206" y="513" name="top_2"/>
  <outline>
    <contour>
      <point x="86" y="-266" type="curve" smooth="yes"/>
      <point x="246" y="-266"/>
      <point x="344" y="-161"/>
      <point x="344" y="45" type="curve" smooth="yes"/>
      <point x="344" y="94"/>
      <point x="342" y="134"/>
      <point x="338" y="176" type="curve"/>
      <point x="296" y="130" type="line"/>
      <point x="366" y="135"/>
      <point x="436" y="157"/>
      <point x="506" y="182" type="curve"/>
      <point x="459" y="197" type="line"/>
      <point x="474" y="43"/>
      <point x="540" y="-10"/>
      <point x="754" y="-10" type="curve" smooth="yes"/>
      <point x="988" y="-10"/>
      <point x="1087" y="88"/>
      <point x="1087" y="252" type="curve" smooth="yes"/>
      <point x="1087" y="389"/>
      <point x="1015" y="502"/>
      <point x="900" y="502" type="curve" smooth="yes"/>
      <point x="776" y="502"/>
      <point x="648" y="378"/>
      <point x="544" y="142" type="curve"/>
      <point x="655" y="96" type="line"/>
      <point x="712" y="225"/>
      <point x="784" y="322"/>
      <point x="868" y="322" type="curve" smooth="yes"/>
      <point x="921" y="322"/>
      <point x="951" y="280"/>
      <point x="951" y="237" type="curve" smooth="yes"/>
      <point x="951" y="183"/>
      <point x="909" y="170"/>
      <point x="768" y="170" type="curve" smooth="yes"/>
      <point x="604" y="170"/>
      <point x="577" y="177"/>
      <point x="561" y="233" type="curve" smooth="yes"/>
      <point x="554" y="256"/>
      <point x="552" y="292"/>
      <point x="550" y="340" type="curve"/>
      <point x="466" y="338" type="line"/>
      <point x="394" y="312"/>
      <point x="330" y="296"/>
      <point x="258" y="290" type="curve"/>
      <point x="206" y="170" type="line"/>
      <point x="211" y="136"/>
      <point x="218" y="106"/>
      <point x="218" y="64" type="curve" smooth="yes"/>
      <point x="218" y="-38"/>
      <point x="165" y="-102"/>
      <point x="66" y="-102" type="curve" smooth="yes"/>
      <point x="33" y="-102"/>
      <point x="2" y="-98"/>
      <point x="-34" y="-89" type="curve"/>
      <point x="-28" y="-238" type="line"/>
      <point x="1" y="-257"/>
      <point x="42" y="-266"/>
    </contour>
  </outline>
</glyph>
<glyph name="seen_alefMaksura-ar.fina" format="2">
  <advance width="1308"/>
  <unicode hex="FD17"/>
  <anchor x="286" y="-241" name="bottom.dot_2"/>
  <anchor x="934" y="-111" name="bottom_1"/>
  <anchor x="286" y="-281" name="bottom_2"/>
  <anchor x="934" y="377" name="top.dot_1"/>
  <anchor x="134" y="215" name="top.dot_2"/>
  <anchor x="933" y="518" name="top_1"/>
  <anchor x="222" y="396" name="top_2"/>
  <outline>
    <contour>
      <point x="285" y="-252" type="curve" smooth="yes"/>
      <point x="498" y="-252"/>
      <point x="607" y="-131"/>
      <point x="607" y="2" type="curve" smooth="yes"/>
      <point x="607" y="89"/>
      <point x="570" y="127"/>
      <point x="471" y="168" type="curve" smooth="yes"/>
      <point x="427" y="186"/>
      <point x="411" y="192"/>
      <point x="411" y="214" type="curve" smooth="yes"/>
      <point x="411" y="241"/>
      <point x="450" y="265"/>
      <point x="505" y="265" type="curve" smooth="yes"/>
      <point x="558" y="265"/>
      <point x="589" y="246"/>
      <point x="612" y="177" type="curve" smooth="yes"/>
      <point x="662" y="27"/>
      <point x="717" y="-10"/>
      <point x="803" y="-10" type="curve" smooth="yes"/>
      <point x="879" y="-10"/>
      <point x="948" y="34"/>
      <point x="958" y="141" type="curve"/>
      <point x="929" y="141" type="line"/>
      <point x="943" y="26"/>
      <point x="997" y="-10"/>
      <point x="1059" y="-10" type="curve" smooth="yes"/>
      <point x="1142" y="-10"/>
      <point x="1182" y="48"/>
      <point x="1190" y="138" type="curve"/>
      <point x="1160" y="134" type="line"/>
      <point x="1185" y="28"/>
      <point x="1242" y="-10"/>
      <point x="1308" y="-10" type="curve" smooth="yes"/>
      <point x="1362" y="-10"/>
      <point x="1388" y="30"/>
      <point x="1388" y="81" type="curve" smooth="yes"/>
      <point x="1388" y="126"/>
      <point x="1367" y="170"/>
      <point x="1316" y="170" type="curve" smooth="yes"/>
      <point x="1279" y="170"/>
      <point x="1251" y="178"/>
      <point x="1235" y="219" type="curve" smooth="yes"/>
      <point x="1220" y="258"/>
      <point x="1210" y="338"/>
      <point x="1195" y="447" type="curve"/>
      <point x="1077" y="425" type="line"/>
      <point x="1089" y="337"/>
      <point x="1094" y="295"/>
      <point x="1094" y="252" type="curve" smooth="yes"/>
      <point x="1094" y="193"/>
      <point x="1083" y="170"/>
      <point x="1043" y="170" type="curve" smooth="yes"/>
      <point x="1012" y="170"/>
      <point x="998" y="182"/>
      <point x="992" y="231" type="curve" smooth="yes"/>
      <point x="988" y="266"/>
      <point x="988" y="305"/>
      <point x="986" y="381" type="curve"/>
      <point x="871" y="373" type="line"/>
      <point x="873" y="224"/>
      <point x="861" y="170"/>
      <point x="808" y="170" type="curve" smooth="yes"/>
      <point x="774" y="170"/>
      <point x="750" y="191"/>
      <point x="722" y="278" type="curve" smooth="yes"/>
      <point x="684" y="397"/>
      <point x="631" y="441"/>
      <point x="533" y="441" type="curve" smooth="yes"/>
      <point x="408" y="441"/>
      <point x="290" y="327"/>
      <point x="290" y="184" type="curve" smooth="yes"/>
      <point x="290" y="106"/>
      <point x="320" y="59"/>
      <point x="414" y="22" type="curve" smooth="yes"/>
      <point x="464" y="2"/>
      <point x="481" y="-4"/>
      <point x="481" y="-19" type="curve" smooth="yes"/>
      <point x="481" y="-44"/>
      <point x="414" y="-72"/>
      <point x="306" y="-72" type="curve" smooth="yes"/>
      <point x="210" y="-72"/>
      <point x="161" y="-47"/>
      <point x="161" y="51" type="curve" smooth="yes"/>
      <point x="161" y="103"/>
      <point x="167" y="147"/>
      <point x="180" y="216" type="curve"/>
      <point x="79" y="243" type="line"/>
      <point x="48" y="156"/>
      <point x="35" y="79"/>
      <point x="35" y="13" type="curve" smooth="yes"/>
      <point x="35" y="-168"/>
      <point x="130" y="-252"/>
    </contour>
  </outline>
</glyph>
<glyph name="seen_reh-ar.fina" format="2">
  <advance width="1123"/>
  <unicode hex="FD2A"/>
  <anchor x="749" y="-111" name="bottom_1"/>
  <anchor x="118" y="-308" name="bottom_2"/>
  <anchor x="749" y="377" name="top.dot_1"/>
  <anchor x="209" y="340" name="top.dot_2"/>
  <anchor x="747" y="518" name="top_1"/>
  <anchor x="206" y="513" name="top_2"/>
  <outline>
    <contour>
      <point x="86" y="-266" type="curve" smooth="yes"/>
      <point x="238" y="-266"/>
      <point x="347" y="-170"/>
      <point x="347" y="36" type="curve" smooth="yes"/>
      <point x="347" y="85"/>
      <point x="343" y="137"/>
      <point x="337" y="188" type="curve"/>
      <point x="296" y="130" type="line"/>
      <point x="366" y="135"/>
      <point x="436" y="155"/>
      <point x="506" y="180" type="curve"/>
      <point x="464" y="217" type="line"/>
      <point x="463" y="204"/>
      <point x="462" y="186"/>
      <point x="462" y="157" type="curve" smooth="yes"/>
      <point x="462" y="54"/>
      <point x="499" y="-10"/>
      <point x="618" y="-10" type="curve" smooth="yes"/>
      <point x="694" y="-10"/>
      <point x="763" y="34"/>
      <point x="773" y="141" type="curve"/>
      <point x="744" y="141" type="line"/>
      <point x="758" y="26"/>
      <point x="812" y="-10"/>
      <point x="874" y="-10" type="curve" smooth="yes"/>
      <point x="957" y="-10"/>
      <point x="997" y="48"/>
      <point x="1005" y="138" type="curve"/>
      <point x="975" y="134" type="line"/>
      <point x="1000" y="28"/>
      <point x="1057" y="-10"/>
      <point x="1123" y="-10" type="curve" smooth="yes"/>
      <point x="1177" y="-10"/>
      <point x="1203" y="30"/>
      <point x="1203" y="81" type="curve" smooth="yes"/>
      <point x="1203" y="126"/>
      <point x="1182" y="170"/>
      <point x="1131" y="170" type="curve" smooth="yes"/>
      <point x="1094" y="170"/>
      <point x="1066" y="178"/>
      <point x="1050" y="219" type="curve" smooth="yes"/>
      <point x="1035" y="258"/>
      <point x="1025" y="338"/>
      <point x="1010" y="447" type="curve"/>
      <point x="892" y="425" type="line"/>
      <point x="904" y="337"/>
      <point x="909" y="295"/>
      <point x="909" y="252" type="curve" smooth="yes"/>
      <point x="909" y="193"/>
      <point x="898" y="170"/>
      <point x="858" y="170" type="curve" smooth="yes"/>
      <point x="827" y="170"/>
      <point x="813" y="182"/>
      <point x="807" y="231" type="curve" smooth="yes"/>
      <point x="803" y="266"/>
      <point x="803" y="305"/>
      <point x="801" y="381" type="curve"/>
      <point x="686" y="373" type="line"/>
      <point x="688" y="255"/>
      <point x="699" y="170"/>
      <point x="614" y="170" type="curve" smooth="yes"/>
      <point x="569" y="170"/>
      <point x="557" y="192"/>
      <point x="557" y="242" type="curve" smooth="yes"/>
      <point x="557" y="276"/>
      <point x="558" y="304"/>
      <point x="560" y="340" type="curve"/>
      <point x="475" y="338" type="line"/>
      <point x="403" y="312"/>
      <point x="330" y="296"/>
      <point x="258" y="290" type="curve"/>
      <point x="206" y="170" type="line"/>
      <point x="211" y="136"/>
      <point x="218" y="106"/>
      <point x="218" y="64" type="curve" smooth="yes"/>
      <point x="218" y="-38"/>
      <point x="165" y="-102"/>
      <point x="66" y="-102" type="curve" smooth="yes"/>
      <point x="33" y="-102"/>
      <point x="2" y="-98"/>
      <point x="-34" y="-89" type="curve"/>
      <point x="-28" y="-238" type="line"/>
      <point x="1" y="-257"/>
      <point x="42" y="-266"/>
    </contour>
  </outline>
</glyph>
<glyph name="parenleft-ar" format="2">
  <advance width="369"/>
  <unicode hex="FD3E"/>
  <outline>
    <contour>
      <point x="212" y="-242" type="curve"/>
      <point x="339" y="-242" type="line"/>
      <point x="290" y="-155"/>
      <point x="259" y="-50"/>
      <point x="246" y="117" type="curve"/>
      <point x="246" y="124"/>
      <point x="247" y="131"/>
      <point x="247" y="138" type="curve" smooth="yes"/>
      <point x="247" y="143"/>
      <point x="247" y="148"/>
      <point x="246" y="152" type="curve"/>
      <point x="250" y="151"/>
      <point x="255" y="151"/>
      <point x="259" y="151" type="curve" smooth="yes"/>
      <point x="301" y="151"/>
      <point x="331" y="189"/>
      <point x="331" y="241" type="curve" smooth="yes"/>
      <point x="331" y="294"/>
      <point x="299" y="331"/>
      <point x="259" y="331" type="curve" smooth="yes"/>
      <point x="255" y="331"/>
      <point x="251" y="331"/>
      <point x="247" y="330" type="curve"/>
      <point x="248" y="335"/>
      <point x="249" y="341"/>
      <point x="249" y="346" type="curve" smooth="yes"/>
      <point x="249" y="354"/>
      <point x="248" y="362"/>
      <point x="246" y="369" type="curve"/>
      <point x="261" y="528"/>
      <point x="291" y="631"/>
      <point x="339" y="715" type="curve"/>
      <point x="212" y="715" type="line"/>
      <point x="157" y="633"/>
      <point x="126" y="530"/>
      <point x="112" y="388" type="curve"/>
      <point x="107" y="375"/>
      <point x="105" y="361"/>
      <point x="105" y="346" type="curve" smooth="yes"/>
      <point x="105" y="341"/>
      <point x="105" y="336"/>
      <point x="106" y="332" type="curve"/>
      <point x="102" y="333"/>
      <point x="97" y="333"/>
      <point x="93" y="333" type="curve" smooth="yes"/>
      <point x="52" y="333"/>
      <point x="21" y="295"/>
      <point x="21" y="242" type="curve" smooth="yes"/>
      <point x="21" y="190"/>
      <point x="51" y="153"/>
      <point x="93" y="153" type="curve" smooth="yes"/>
      <point x="97" y="153"/>
      <point x="101" y="153"/>
      <point x="104" y="154" type="curve"/>
      <point x="103" y="149"/>
      <point x="103" y="143"/>
      <point x="103" y="138" type="curve" smooth="yes"/>
      <point x="103" y="122"/>
      <point x="106" y="108"/>
      <point x="111" y="95" type="curve"/>
      <point x="125" y="-52"/>
      <point x="156" y="-158"/>
    </contour>
    <contour>
      <point x="92" y="193" type="curve" smooth="yes"/>
      <point x="70" y="193"/>
      <point x="54" y="213"/>
      <point x="54" y="242" type="curve" smooth="yes"/>
      <point x="54" y="271"/>
      <point x="68" y="290"/>
      <point x="93" y="290" type="curve" smooth="yes"/>
      <point x="98" y="290"/>
      <point x="105" y="288"/>
      <point x="110" y="284" type="curve"/>
      <point x="105" y="271"/>
      <point x="102" y="256"/>
      <point x="102" y="240" type="curve" smooth="yes"/>
      <point x="102" y="225"/>
      <point x="104" y="211"/>
      <point x="109" y="199" type="curve"/>
      <point x="103" y="195"/>
      <point x="98" y="193"/>
    </contour>
    <contour>
      <point x="175" y="90" type="curve" smooth="yes"/>
      <point x="152" y="90"/>
      <point x="136" y="110"/>
      <point x="136" y="137" type="curve" smooth="yes"/>
      <point x="136" y="144"/>
      <point x="138" y="151"/>
      <point x="141" y="159" type="curve"/>
      <point x="150" y="153"/>
      <point x="162" y="149"/>
      <point x="174" y="149" type="curve" smooth="yes"/>
      <point x="186" y="149"/>
      <point x="198" y="153"/>
      <point x="208" y="160" type="curve"/>
      <point x="211" y="153"/>
      <point x="213" y="145"/>
      <point x="213" y="138" type="curve" smooth="yes"/>
      <point x="213" y="108"/>
      <point x="198" y="90"/>
    </contour>
    <contour>
      <point x="173" y="198" type="curve" smooth="yes"/>
      <point x="150" y="198"/>
      <point x="138" y="216"/>
      <point x="138" y="241" type="curve" smooth="yes"/>
      <point x="138" y="266"/>
      <point x="152" y="284"/>
      <point x="172" y="284" type="curve" smooth="yes"/>
      <point x="190" y="284"/>
      <point x="206" y="270"/>
      <point x="206" y="240" type="curve" smooth="yes"/>
      <point x="206" y="213"/>
      <point x="194" y="198"/>
    </contour>
    <contour>
      <point x="260" y="192" type="curve" smooth="yes"/>
      <point x="253" y="192"/>
      <point x="246" y="194"/>
      <point x="238" y="201" type="curve"/>
      <point x="243" y="213"/>
      <point x="246" y="226"/>
      <point x="246" y="240" type="curve" smooth="yes"/>
      <point x="246" y="254"/>
      <point x="243" y="268"/>
      <point x="238" y="280" type="curve"/>
      <point x="245" y="286"/>
      <point x="252" y="289"/>
      <point x="259" y="289" type="curve" smooth="yes"/>
      <point x="283" y="289"/>
      <point x="298" y="270"/>
      <point x="298" y="241" type="curve" smooth="yes"/>
      <point x="298" y="212"/>
      <point x="282" y="192"/>
    </contour>
    <contour>
      <point x="207" y="320" type="curve"/>
      <point x="197" y="326"/>
      <point x="186" y="330"/>
      <point x="174" y="330" type="curve" smooth="yes"/>
      <point x="162" y="330"/>
      <point x="152" y="327"/>
      <point x="143" y="322" type="curve"/>
      <point x="138" y="330"/>
      <point x="137" y="339"/>
      <point x="137" y="347" type="curve" smooth="yes"/>
      <point x="137" y="374"/>
      <point x="153" y="394"/>
      <point x="176" y="394" type="curve" smooth="yes"/>
      <point x="199" y="394"/>
      <point x="214" y="376"/>
      <point x="214" y="346" type="curve" smooth="yes"/>
      <point x="214" y="337"/>
      <point x="212" y="328"/>
    </contour>
  </outline>
</glyph>
<glyph name="sad_lam_yeh-ar" format="2">
  <advance width="1321"/>
  <unicode hex="FDF0"/>
  <outline>
    <contour>
      <point x="421" y="-298" type="curve" smooth="yes"/>
      <point x="520" y="-298"/>
      <point x="728" y="-289"/>
      <point x="892" y="-276" type="curve"/>
      <point x="903" y="-102" type="line"/>
      <point x="740" y="-110"/>
      <point x="551" y="-118"/>
      <point x="443" y="-118" type="curve" smooth="yes"/>
      <point x="218" y="-118"/>
      <point x="176" y="-105"/>
      <point x="176" y="-61" type="curve" smooth="yes"/>
      <point x="176" y="-25"/>
      <point x="198" y="-11"/>
      <point x="259" y="-10" type="curve" smooth="yes"/>
      <point x="362" y="-8"/>
      <point x="421" y="27"/>
      <point x="452" y="129" type="curve"/>
      <point x="396" y="137" type="line"/>
      <point x="410" y="20"/>
      <point x="475" y="-10"/>
      <point x="541" y="-10" type="curve" smooth="yes"/>
      <point x="624" y="-10"/>
      <point x="691" y="16"/>
      <point x="730" y="137" type="curve"/>
      <point x="674" y="137" type="line"/>
      <point x="698" y="13"/>
      <point x="818" y="-10"/>
      <point x="960" y="-10" type="curve" smooth="yes"/>
      <point x="1187" y="-10"/>
      <point x="1285" y="88"/>
      <point x="1285" y="252" type="curve" smooth="yes"/>
      <point x="1285" y="389"/>
      <point x="1213" y="502"/>
      <point x="1098" y="502" type="curve" smooth="yes"/>
      <point x="974" y="502"/>
      <point x="846" y="378"/>
      <point x="742" y="142" type="curve"/>
      <point x="853" y="96" type="line"/>
      <point x="910" y="225"/>
      <point x="982" y="322"/>
      <point x="1066" y="322" type="curve" smooth="yes"/>
      <point x="1119" y="322"/>
      <point x="1149" y="280"/>
      <point x="1149" y="237" type="curve" smooth="yes"/>
      <point x="1149" y="183"/>
      <point x="1107" y="170"/>
      <point x="966" y="170" type="curve" smooth="yes"/>
      <point x="797" y="170"/>
      <point x="766" y="182"/>
      <point x="760" y="231" type="curve" smooth="yes"/>
      <point x="756" y="266"/>
      <point x="756" y="306"/>
      <point x="758" y="363" type="curve"/>
      <point x="645" y="359" type="line"/>
      <point x="631" y="182"/>
      <point x="609" y="170"/>
      <point x="550" y="170" type="curve" smooth="yes"/>
      <point x="501" y="170"/>
      <point x="478" y="187"/>
      <point x="476" y="273" type="curve" smooth="yes"/>
      <point x="462" y="760" type="line"/>
      <point x="334" y="760" type="line"/>
      <point x="344" y="279" type="line" smooth="yes"/>
      <point x="346" y="197"/>
      <point x="332" y="170"/>
      <point x="277" y="170" type="curve" smooth="yes"/>
      <point x="119" y="170"/>
      <point x="35" y="78"/>
      <point x="35" y="-74" type="curve" smooth="yes"/>
      <point x="35" y="-236"/>
      <point x="149" y="-298"/>
    </contour>
  </outline>
</glyph>
<glyph name="qaf_lam_yeh-ar" format="2">
  <advance width="987"/>
  <unicode hex="FDF1"/>
  <outline>
    <contour>
      <point x="422" y="-298" type="curve" smooth="yes"/>
      <point x="521" y="-298"/>
      <point x="729" y="-289"/>
      <point x="893" y="-276" type="curve"/>
      <point x="904" y="-102" type="line"/>
      <point x="741" y="-110"/>
      <point x="552" y="-118"/>
      <point x="444" y="-118" type="curve" smooth="yes"/>
      <point x="226" y="-118"/>
      <point x="177" y="-100"/>
      <point x="177" y="-58" type="curve" smooth="yes"/>
      <point x="177" y="-24"/>
      <point x="199" y="-11"/>
      <point x="260" y="-10" type="curve" smooth="yes"/>
      <point x="363" y="-8"/>
      <point x="422" y="27"/>
      <point x="453" y="129" type="curve"/>
      <point x="397" y="137" type="line"/>
      <point x="411" y="20"/>
      <point x="483" y="-10"/>
      <point x="565" y="-10" type="curve" smooth="yes"/>
      <point x="752" y="-10"/>
      <point x="810" y="1"/>
      <point x="864" y="38" type="curve" smooth="yes"/>
      <point x="926" y="80"/>
      <point x="951" y="158"/>
      <point x="951" y="286" type="curve" smooth="yes"/>
      <point x="951" y="475"/>
      <point x="885" y="607"/>
      <point x="768" y="607" type="curve" smooth="yes"/>
      <point x="666" y="607"/>
      <point x="600" y="497"/>
      <point x="600" y="380" type="curve" smooth="yes"/>
      <point x="600" y="267"/>
      <point x="657" y="215"/>
      <point x="750" y="215" type="curve" smooth="yes"/>
      <point x="802" y="215"/>
      <point x="856" y="232"/>
      <point x="884" y="259" type="curve"/>
      <point x="875" y="371" type="line"/>
      <point x="838" y="348"/>
      <point x="805" y="340"/>
      <point x="766" y="340" type="curve" smooth="yes"/>
      <point x="731" y="340"/>
      <point x="707" y="349"/>
      <point x="707" y="389" type="curve" smooth="yes"/>
      <point x="707" y="428"/>
      <point x="730" y="454"/>
      <point x="762" y="454" type="curve" smooth="yes"/>
      <point x="810" y="454"/>
      <point x="839" y="398"/>
      <point x="839" y="284" type="curve" smooth="yes"/>
      <point x="839" y="220"/>
      <point x="836" y="206"/>
      <point x="821" y="193" type="curve" smooth="yes"/>
      <point x="793" y="170"/>
      <point x="726" y="170"/>
      <point x="563" y="170" type="curve" smooth="yes"/>
      <point x="506" y="170"/>
      <point x="479" y="187"/>
      <point x="477" y="273" type="curve" smooth="yes"/>
      <point x="463" y="760" type="line"/>
      <point x="334" y="760" type="line"/>
      <point x="345" y="279" type="line" smooth="yes"/>
      <point x="346" y="197"/>
      <point x="333" y="170"/>
      <point x="278" y="170" type="curve" smooth="yes"/>
      <point x="120" y="170"/>
      <point x="36" y="78"/>
      <point x="36" y="-74" type="curve" smooth="yes"/>
      <point x="36" y="-236"/>
      <point x="150" y="-298"/>
    </contour>
    <contour>
      <point x="696.28" y="647.7" type="curve"/>
      <point x="772.72" y="743.74" type="line"/>
      <point x="742.34" y="785.88"/>
      <point x="723.72" y="808.42"/>
      <point x="691.38" y="841.74" type="curve"/>
      <point x="615.92" y="741.78" type="line"/>
      <point x="647.28" y="706.5"/>
      <point x="665.9" y="684.94"/>
    </contour>
    <contour>
      <point x="837.28" y="647.7" type="curve"/>
      <point x="913.72" y="743.74" type="line"/>
      <point x="883.34" y="785.88"/>
      <point x="864.72" y="808.42"/>
      <point x="832.38" y="841.74" type="curve"/>
      <point x="756.92" y="741.78" type="line"/>
      <point x="788.28" y="706.5"/>
      <point x="806.9" y="684.94"/>
    </contour>
  </outline>
</glyph>
